<mxfile host="app.diagrams.net" agent="Mozilla/5.0 (Macintosh; Intel Mac OS X 10_15_7) AppleWebKit/537.36 (KHTML, like Gecko) Chrome/135.0.0.0 Safari/537.36" version="27.1.5">
  <diagram id="a45cf8ec-cd66-6f27-3ac3-be6e809c9e4a" name="Page-1">
    <mxGraphModel dx="1898" dy="1131" grid="1" gridSize="10" guides="1" tooltips="1" connect="1" arrows="1" fold="1" page="1" pageScale="1" pageWidth="827" pageHeight="1169" background="none" math="0" shadow="0">
      <root>
        <mxCell id="0" />
        <mxCell id="1" parent="0" />
        <mxCell id="3" value="" style="rounded=1;whiteSpace=wrap;html=1;shadow=0;strokeColor=none;fillColor=#BAC8D3;gradientColor=none;fontSize=18;fontColor=#F08705;opacity=40;fontStyle=0;strokeWidth=3;" parent="1" vertex="1">
          <mxGeometry x="180" y="380" width="1215" height="720" as="geometry" />
        </mxCell>
        <mxCell id="171" style="edgeStyle=orthogonalEdgeStyle;rounded=0;jumpStyle=none;html=1;exitX=0;exitY=0.5;entryX=0;entryY=0.5;shadow=0;labelBackgroundColor=none;startArrow=none;startFill=0;endArrow=classic;endFill=1;endSize=6;jettySize=auto;orthogonalLoop=1;strokeColor=#23445D;strokeWidth=2;fillColor=#F08705;fontFamily=Helvetica;fontSize=14;fontColor=#F08705;align=left;fontStyle=0" parent="1" edge="1">
          <mxGeometry relative="1" as="geometry">
            <mxPoint x="137" y="37.5" as="sourcePoint" />
            <mxPoint x="137" y="37.5" as="targetPoint" />
          </mxGeometry>
        </mxCell>
        <mxCell id="f-J5MaxaQMG7PM0GAeNG-174" value="" style="rounded=1;whiteSpace=wrap;html=1;" parent="1" vertex="1">
          <mxGeometry x="227.5" y="410" width="1120" height="200" as="geometry" />
        </mxCell>
        <mxCell id="f-J5MaxaQMG7PM0GAeNG-175" value="" style="rounded=1;whiteSpace=wrap;html=1;fillColor=#fff2cc;strokeColor=#d6b656;" parent="1" vertex="1">
          <mxGeometry x="1000" y="40" width="320" height="330" as="geometry" />
        </mxCell>
        <mxCell id="f-J5MaxaQMG7PM0GAeNG-176" value="&lt;font style=&quot;font-size: 14px; color: rgb(0, 76, 153);&quot;&gt;Terraço 2º andar&lt;/font&gt;" style="text;html=1;align=center;verticalAlign=middle;resizable=0;points=[];autosize=1;strokeColor=none;fillColor=none;fontStyle=1" parent="1" vertex="1">
          <mxGeometry x="1085.25" y="50" width="130" height="30" as="geometry" />
        </mxCell>
        <mxCell id="f-J5MaxaQMG7PM0GAeNG-177" value="&lt;font style=&quot;font-size: 14px; color: rgb(0, 76, 153);&quot;&gt;2º andar&lt;/font&gt;" style="text;html=1;align=center;verticalAlign=middle;resizable=0;points=[];autosize=1;strokeColor=none;fillColor=none;fontStyle=1" parent="1" vertex="1">
          <mxGeometry x="240" y="420" width="80" height="30" as="geometry" />
        </mxCell>
        <mxCell id="f-J5MaxaQMG7PM0GAeNG-205" value="" style="rounded=1;whiteSpace=wrap;html=1;" parent="1" vertex="1">
          <mxGeometry x="227.5" y="637.5" width="1120" height="200" as="geometry" />
        </mxCell>
        <mxCell id="f-J5MaxaQMG7PM0GAeNG-178" value="&lt;font style=&quot;font-size: 14px; color: rgb(0, 76, 153);&quot;&gt;1º andar&lt;/font&gt;" style="text;html=1;align=center;verticalAlign=middle;resizable=0;points=[];autosize=1;strokeColor=none;fillColor=none;fontStyle=1" parent="1" vertex="1">
          <mxGeometry x="240" y="651.36" width="80" height="30" as="geometry" />
        </mxCell>
        <mxCell id="f-J5MaxaQMG7PM0GAeNG-206" value="" style="rounded=1;whiteSpace=wrap;html=1;" parent="1" vertex="1">
          <mxGeometry x="227.5" y="870" width="1120" height="200" as="geometry" />
        </mxCell>
        <mxCell id="f-J5MaxaQMG7PM0GAeNG-179" value="&lt;font style=&quot;font-size: 14px; color: rgb(0, 76, 153);&quot;&gt;Rés-de-chão&lt;/font&gt;" style="text;html=1;align=center;verticalAlign=middle;resizable=0;points=[];autosize=1;strokeColor=none;fillColor=none;fontStyle=1" parent="1" vertex="1">
          <mxGeometry x="240" y="880" width="100" height="30" as="geometry" />
        </mxCell>
        <mxCell id="aZ0XZCeKC1_UifiNmSna-171" value="" style="shape=image;verticalLabelPosition=bottom;verticalAlign=top;imageAspect=0;aspect=fixed;image=data:image/png,iVBORw0KGgoAAAANSUhEUgAAAIsAAAGQCAYAAACef5MTAAAAAXNSR0IArs4c6QAAAKZlWElmTU0AKgAAAAgABgESAAMAAAABAAEAAAEaAAUAAAABAAAAVgEbAAUAAAABAAAAXgEoAAMAAAABAAIAAAExAAIAAAAWAAAAZodpAAQAAAABAAAAfAAAAAAAAABIAAAAAQAAAEgAAAABUGl4ZWxtYXRvciBQcm8gMy42LjE4AAADoAEAAwAAAAEAAQAAoAIABAAAAAEAAACLoAMABAAAAAEAAAGQAAAAAF50QQAAAAAJcEhZcwAACxMAAAsTAQCanBgAAANvaVRYdFhNTDpjb20uYWRvYmUueG1wAAAAAAA8eDp4bXBtZXRhIHhtbG5zOng9ImFkb2JlOm5zOm1ldGEvIiB4OnhtcHRrPSJYTVAgQ29yZSA2LjAuMCI+CiAgIDxyZGY6UkRGIHhtbG5zOnJkZj0iaHR0cDovL3d3dy53My5vcmcvMTk5OS8wMi8yMi1yZGYtc3ludGF4LW5zIyI+CiAgICAgIDxyZGY6RGVzY3JpcHRpb24gcmRmOmFib3V0PSIiCiAgICAgICAgICAgIHhtbG5zOmV4aWY9Imh0dHA6Ly9ucy5hZG9iZS5jb20vZXhpZi8xLjAvIgogICAgICAgICAgICB4bWxuczp4bXA9Imh0dHA6Ly9ucy5hZG9iZS5jb20veGFwLzEuMC8iCiAgICAgICAgICAgIHhtbG5zOnRpZmY9Imh0dHA6Ly9ucy5hZG9iZS5jb20vdGlmZi8xLjAvIj4KICAgICAgICAgPGV4aWY6UGl4ZWxZRGltZW5zaW9uPjQwMDwvZXhpZjpQaXhlbFlEaW1lbnNpb24+CiAgICAgICAgIDxleGlmOlBpeGVsWERpbWVuc2lvbj4xMzk8L2V4aWY6UGl4ZWxYRGltZW5zaW9uPgogICAgICAgICA8eG1wOkNyZWF0b3JUb29sPlBpeGVsbWF0b3IgUHJvIDMuNi4xODwveG1wOkNyZWF0b3JUb29sPgogICAgICAgICA8eG1wOk1ldGFkYXRhRGF0ZT4yMDI1LTA2LTE1VDE4OjQ2OjE3KzAxOjAwPC94bXA6TWV0YWRhdGFEYXRlPgogICAgICAgICA8dGlmZjpYUmVzb2x1dGlvbj43MjAwMDAvMTAwMDA8L3RpZmY6WFJlc29sdXRpb24+CiAgICAgICAgIDx0aWZmOlJlc29sdXRpb25Vbml0PjI8L3RpZmY6UmVzb2x1dGlvblVuaXQ+CiAgICAgICAgIDx0aWZmOllSZXNvbHV0aW9uPjcyMDAwMC8xMDAwMDwvdGlmZjpZUmVzb2x1dGlvbj4KICAgICAgICAgPHRpZmY6T3JpZW50YXRpb24+MTwvdGlmZjpPcmllbnRhdGlvbj4KICAgICAgPC9yZGY6RGVzY3JpcHRpb24+CiAgIDwvcmRmOlJERj4KPC94OnhtcG1ldGE+CsFKEBgAAEAASURBVHgB7L1pkCTHdSbocWTkVXd39d3oRuNugCd4ikcDpKThIYkc4wCkiSNqJdvRwbWlzLS/9heAn7KVVmaSaVZDaXc54tJMQ0gciYcocSgRTUkUSZEQRRItXCRuVHdXd1XXmVcc+33PwyMjszKzKjMikwSsvDsrIjw8/Pl7/vnz5889PJTaD/sS2JfAvgT2JbAvgX0J7EtgXwL7EtiXwL4E9iWwL4F9CexLYF8C+xLYl8C+BPYlsC+BfQnsS2BfAvsS2JfAvgT2JbAvgX0J7EtgXwL7EtiXwL4E9iWwL4F9CexLYF8CkIA1SSlEUST0LMuKxk3305/+tLO4uGgtLy9H99xzT9iHJsuTqSzk6cEHH7RJizzdddddIfPsQ49JsgYLNCUP0OAxU/mHKYxQG+aBUdLef//99szZs8WD9brdas3a09OL/mr5qjVfO+Mr9YiampqScpTL5eDuu+9G3OjB0Dqh5j2lWp7reuH8vNNoLixEzWdbUa3WjKamFsPNzWZ04cKDPtKzckcKBCQe9FqtSqlZaUmleYWCNW/bwebmZgsAigDWkPy9+93vbmYDUGT9yn/5uHvT+rq3ValYynVD5Xnh0WYzMIVfWloywAmz8GXy6z6OHSysvEOHbprddqMbG5v1Gwpu2ZuanV+eqpZW3KK15ik72NioO45fnyqVppaUurpy77331KH0DOPdZe57ff/9kX3q1Cdm1lqFm1QQvbbgeoemZ2dacwsH1q3I2lRO9EKr2biyub4xZyu1rJrqec9799a991qJwPtm3nWDGuVTn/rU9Lpv3dTY2rjZLsy6Fa/kV6qlqFSubAdRtBy26ttbfqNuK9fbXt566qPL92xb91ujgNOCHAu+Uz0ehuFpO3JmXa/QLFWqmwDN1ZYf+JZfqxeKUWtzqzVfnvIuNq9cWcMzmRpeF8vK7Y7I+/rMmTPl5XrjtsvPXPo/VtevnUUFRjfdcuvawtyJVa9Q2gz9CPwGlR889nBxfmHx72dmZv6vT3/6wQv33quGrsAzZz5ZXllXr2/W1/7XqytX39Dyw+LJ668PZ2am6ouHjmwGjdbWWrM5vXblUiVohd+YXzx2v1IPPgqeh6b1xS9+0bu22bjdb9T+t4211TcvXXtm+tDBQ60zZ26oVcvFS5ZyrtYa4bG1pavVp59++oXTJ274xYfOPfQMaA0Nlnvu+bTd8J6cVX7jfdvrm7+8ubV1aHb+4FapUn7Cc5xvF5zC86EbFrc2t041NrYWo1b4GVctfgmA3oq7Klbr0I2PD6XD2MFyzS9V/GajajnW/PbmtleuOvb87AHvulPXzRSL1War1SgvX15dD6PAhikz4/shWgPa/QjBcRzPsu3F7Xr9+MVLl6eV4xZOKdtZPHA4mp2ZOkZd5YeNoOn7mxDiQa8VOVuNxZGIXbniuFGo5gK/dcvly5cOWN6cUyyVqzOzszMHDx+aKZeK16+vrlY3N9e30b02rZZyzp9fHonWm9/8vLfeKFe3w+0T9WbjkB9Gc7Ozs5Xq9Ny/geew1QyrymoVVuuNM4369mnLLvyV6wSGVmaQmKowGZrr3I9useVDyaPaSvUDhxbV4uEjTqFY8mp1f7rR8udt1ytWZ2aqjUajEAWqWCqVW6MUgt1CDfaCbdkNYuLw4aP2yZOn3Or0jO0WPAeYUWsbm2pudt6JYO7allMP3dhSHIFgqbRmOQVvE5VXOHHihDu7sODMHzhgzeEYhqpSqzfmpmbnvPp2w4YGteq2v3Dq1GjADIKD4KEQ+Y1WaWZ+rnVgcVH5QCqEanulchhZtjc7PVcvlaeebgVhODM1tVwuV3MDiRHP2MESXSu0lG1tTM/MP1suTzVJGCpaVatTamF+QU1VZ1GPbjSFa9spXLRtfySwPPAAsl2Hjo/CInDjKsexIEygwoX5EqIIrkJTVGXQYWsMWtGm7zS2jSCGPS7jASgpKwoitb29bQWhgrJyrAIAW6qU7MpU1apUqwpIiZRlNz3bG9U+lOdqoAeNMr+93ShFgAcMd9CzK61mUHNcb6XR8Ftg8woM7CbbjVJXWKBcATN2sDQWFfsXZ3195fjatdVio95Qtm3jZ4W2Y0OOOAfXDo6u4wxtO3RXMlRIBfkx/wiggD3kqghaxfGKam5uDgMIT/kqtNAyp6LQLXQ/v9frRSQEA6Bh12u1WliZmlZQNaoF8KArtRzHJa0IvBZc1yky32p1mRU/NGi2ZmpRIYhagQo5orIr01NRaWp6Q9mFtZYVbtpFd80uOM1iuRQ4djFsBq0qRmC5AoXlHztYTsB4DJr2doC/nleEsTkTlSvFqNlsWptbmxGioQ0iGvRoGJEVFLyRmLzvPhVhNOXbjnNFOYXLqLDWZm072qrX2PJRgTCFAM5W4KsiyoGuaSsILPfw4dpI9FbL5dCzC+uuV15CF+jD+IoaLfBCO5INoOCCVqA2wGMz8O3Ijeznn4eVOXzPF3GI3Cq0oL2cVYwHmo16K/JBr9n07TBQc5DlXKveUmHLvxEUgCt7YZmqL+cwdgP3woUL/vTBW9cLTvnJ1cbqrc8895RdKBStAwcPq+r0dAvCjZ579tlCsVhadd3C05bTbF343oWhK5Aq9//9yleazjON76GOHobN8Jrta9fQAGedufkD0WOPP46+vOrUa5v+lZWV8ODBxRdUMaxvbo4GFu/KVNisNi/7a+5Xbdt9NQzqA61Wyy2VPOW5BYx4wghOHmfpxaUABvazluc0br21MvRIiPX9Inwpxyxry3XLXw2D8Nzlqytz281g/tBh+6xTLE4DPLUjGIFBc9/iFApPQnO+cGDGz6ylu7E2ds2CsX4IdGxUStP/gP59DT4ONK4gOnBooX7y5Il6uVgML19e9j2v/L3ydPVhu1iEj2W0UF1ebgWF7RXokEcxuqpv1WqBj6aHLsF6xSteaZ88fZ0NDRBW4Z+olKa+XHCDVTjORqpAdCmh2vZallN6GL3sMhxiYb3RVMeOHbfO3nG7c/LUdVBy8Ih4rl+uzH3V8UpbcNSN5Nn9L7/yK75aqzStovO4r+xL9UYNmoUaWT1Xawafg3F2fmNz09qu1cuFgvfn5VL5wvr6Om2/obu8QZIfO1hIHIOBJmyyFdgQdfSlwaHFQ7UTx697/vT1x144ft3J9QMHFpqOW3oKA98XD8JAG1TgQffgzAtpUDu2exVGcx2CU+z25g7OqWPXHQtPnjzJLiLAgKHhFKIXAstqntfu+UHZ9rxHkDlOLfSK3ovoRlcOHjwYFGGjlMulaGFhIZyfm/NBHzaGs1EuVr/jFp3ahdGACaVpqasLjaBarCzBMHoWWrjhlUpN2GIvIN/vF7zy36OB/DC0VN0qOd+tRuXafffd99LTLJR0oU6TLyzD2Ayr1YqP4W2wtb0+u7nZOBIGgVuuVpro5gPHd8K1tbUQjA7dDekatSIa1C6GxWLguk7kFQsRWlq0enUVRicM3oLtw0asF2yn7mxUWveN6Ky66667YIaBVuRuY9jhHzlybNsrFaN6va4AxrBUKvm27Ww1YWGAs3pUtwN1XuaNeoJvl8ioAQ28VfVhwNo++IB8oDRa4SxoHfSDZgnG7RIKVHcxEtra+mHuQGH5JqJZ/HmMiMCh48D2QnOGsVmCa7yoAn+mUrDLfm3TDcPmlPIizrWoBx54IJP6hPlSACBV1StFrW0otXornC6Wrdr6pipjtFDAUL0VBqX5+WY0Ki09h6cU+8yCW6qura5VPLuoPLtq1Tb8yI5Au658z6nYvt+atkqeAyN8hKDbzTHM+1S2i5aHcbEFw9ZGB1t03XXPippVz6vCOVhFbyvyAxF4kkYgtcsjEwFLaaMID4SD2VI0YypV6GaAh0PcCsbMJbQS+MgsaFUn3MLk2+iaRSl3airEeJntDv/Rq/MfyIboKygLyBoeEYymAdpa7YCuiV2E1Ps2tFh1CkOPAsa08NqAFILFvCU9/2IEj0pDI7EKYFJhdnqEKtS+kkfOnkWOq8yT5ed/9LS2C02DgVfBgmYpQmMiuqSOHj2KtCSliyLlyeHPRMCiDqLYNmGiWaC3CGxhVliupTXAe0vtHR2ujTY6SWTxJKQYmbkeCgz4hOAM6ZAAQoAml2MWYCq1olpOi0RgJCcOMCEKHqW6SBdtw4IhpeNJfJTwIB4CVuDhYz7CE1qcV4Dx4mL4hXO4r5Xl+i3r20n+2Ugm2cQnkwFLTAziY7ujGFN0gRtK1FYYFYYRRwzdhRzm+sgReR62XhJ0g0tF8E4Ysd/PEiJrQS1IBoCdRobJjtesTxNibrGuZnSa9yCz+Xkij7lBZnBkQqXA3eCVvOIU1BfnqgJcR8duvtnQMUdTkkzHVKVlymfgw1sbG+CNvueUAEWp6McEPZYdwVUuzCHpwPx2v4muBg057nkkOeeOkucAWXZLi4ucRho9bG1tSp7CWjobxIJZqhqyjXJYViEIYR+lEw13TqxgkhAQQWD7QsftAi5wdFaKRW8WICn4MHB91zF8ZuKtV+kmAhYStjl30ksTo03SZqNucVotC0sayGQmRqH2faxfobUigmOFmQolw1QDphti2UYLxAKMW9gssb2SzkY0DcpAO81C/5CJH5PxHE6IPgkUJ0YMpWJpxisWZzx444LAb5i04zhODCyYO5QON8VEW4CsUjuyW2gzqfsjna6urqJ69AIjutbFvQ5KckSOvMmM0T7Dp5/m2eiBBq7vYjLIGLUmKw1RTUmTUyF8MOZ2liNbHDU08Q9pYQ1UoQrDpQpnMQZK0UiTsHstz0TAArd+W1BsbNq2bJcRd9kKi8Wiahtn7dvDnC3F/TUUS1KJlKzRMjqvSIVhVpsFE4ONVuT60CzUYT0CK5XRXADc4/ZIUdQq5sG4S8L6J9sD+F30rAFMmEidNynyPU4ELLRZMP5AyTWf4Lct3ETQocKaFpUZLaACR5+FUSUWBbUoT9EqMAXlCJ9HFPgBCtJShw+faJcjg1yRmU3E0EvHuiRN+D04vGPdwnSPHBsTpxlIyKP1IkbHXN+BQHrIEBaK7cL550LLwLdkOcUQi57OZaXU+/mJgIWkBxGisuEEDdzjkbqzd0H3Gks5obKYY28gSMOExLHyaa957pquT05EhyAEzGfthjAhCzGFwAQYEJwwc5q6dHZCt+A/rZiUgbtrsYdNMKgOh81rQHo9xEw3LbQMcymiFoN0QA7D3jL1xxYYKzTJAihi68QqR4YnqAlMUokZ8c+OPGKFGfPowFWm1Gge3HaJis0C8oPaigNO6PZzwY4L1EDDYKXXGENCeIw0kPUKx6oGHFSh0r7TNAEdLfCMRsvjjz+e0IEoJU8BTNwaBSog7KCHT9Mf/bwOIj2ySkXB3rYwUrFH8+C2S9bwGnDvEd8xi1Al8PBDp0Cv4AjV4hKU4woTAQsNXBgPWnzSssGsYTjmTDQL5tyyGi03i4HbYpMDQBPt1aFdhOTIc9udVdF3PUUbsuJzyT7SO6em1RR6HmoWzRf7HfS40CoOFhnamBvFUj2G851lzOtqImDBclCwB82SEmCbAfYTvA9THk45XdntuyOdoSnLaIj5InvRLHFGKAJ0DHp/Nx+bReysXoWMmwZvYTmkKsALeOFCBg+uKb+xV3BNg5ZdDywXgMUt4mTkZaJx9gMPkwGLFEGM+L6FofOg780hbrBR2WZYbLq27ufb9lL3neGve6kWckKrPeaIQyUsosEEaRYez6tmoQFd0lbJgApAUnAdrP3ASQUdEubb2BGNR7VMECyD6wGKtafeGfxUn7sw8+i3oQ7pk0Jh3UDfe/2e2Ws8MRLjBAcgBSHraOiszDoTgwSLBoxjWR6mnQsFxylDv1SgZmRy1qTda3n3mm4iYJmenmGvIPKLOKpFNXIMwh8sGUxIY2iJJRqcP9lrwfulO4cbYWDB46b7dcpWuvl+D8Tp+t4ecGNrC/4jsSixvAIvC+GFJHQNTTg/GpGtGljUVgdtnxSiQnqiakCeg2/hXTKIy6TB8g6ZbS4U3DnolhLt3NIYLdyEsCnAxI5GR4MgEYI6zaWlczSElUE6L+qWXiEVnypGr5S7x6Ebgj8Y6dKkksYv8WgNuMk3f3IIMpAkezBY0AcRMFj9twCztwSbHhsPyJKJHAjtzOJHB5Z4/gZFopbBz4oyr/mI+eO6GGAvqb1Yqem7qLfkxk55DBVTreppjB0+ItGdnVSCjHNDcMpJhhj9IIjW5DCa3RBeCLanYeSWwTPqc3yqZWJgkdEQmgO68FiDoNIi1cBPVtdTAk7LsTr8JENVnU7M0RTnfYA97VKhiDvrTSeU3n0EAjseoYUrLCR3Ygbja33lwN0/6hLOJGO1lZyK5YJ+B+ZtFVrFsx0Lrzxa1sukG+ocDVExIyRVidYfyzibv/88MoXbARMkcXbxIaZFmmMIg9ocR+qh1WraFlbljUybK/q8VpENIIE+zunxL0IvYx0p/C24bLWyz9z3K+QgLvs9k098imlmCCM0bLWyT7Zx1Gg7Yk1qmCSiNeihemsjiC00c+ibh76BSkWLL424BrezdBwCAH7CFbiUIwDDehRimCjtW5rOnIa/mhBYlgH8WJd0lFHi4uqMVGGKaz6y+fvPnl2O89OEdrdQ2i21o2hZLuLqAnfsGZCTrZp2Dg1hKi6UESV2ATCnWYq712cnAhZ57bazW99ZPmpPrFDI6sG9cEHv7SYEOv0sY2txtM93MESQyH/2HKFFszPTGtyYAI0+ntIog0jxfhABg1PEyh/c4wx1nDzXw0TAkipxu9UnNoq+Cw8nVPXw23Wl8pbTc+dwgDOf9UQtLf267mvatHtavN05jX5NukIbWbCNcFnL6Ll1PsmckRt44X+O+xS22OAKOVklFzdJCiH/MNYp7Z7Flf5IarHjNvS1Zn3gypeOR/peYP0PJocgTO1PoVRzq6ydRPsNVXUHiE4uP9qb4ITDPPKGAJ2CyeywhstGwE1ojGrZWchcYiatWaTFoVFobmMW2BziEXQuTEGd8EUsaWUkFAs3oZmc5EOtdy4gkh9KNAkPb1jSTIkJYnuBCAv6wwb0SwPRXKyN+VH9hkTvQmWLnQhYpmdn4eXvWuFOfUqMIKCrkGNOPk7kqJc2SRcUyweAkbozktbRN8V3x3MgLUOv13zjMFTpo4FiiTULs+U6YryFG4YtaNFtqBV2R4gHZs4Nk/Pe004ELKY4ZAU1hr8dgTxKRZY7oke7OC+PeWHiZ4mzMYCUy7hnv3TpeaE7GqX2U+xC21c4M1c8SgXm9Z76BvLDJBStXDQ2rPHFFnJY7dsM16FmWozkMuYxTTrnYCB0SKnPxSXG7xCYEWnyUC6aRaOFaisXICSFG/IkDU685RLJG/RD5tGd3GuiG0IvJPjjTfRJ1C4wXNbQHzVozkg3dK77yXyuJ6pZ0N/sAEg+bKRzIVrQDcVQkSaYvj2Wc60Z0xqGdLVvCXsUavMpH8opGcKe5Tw9NqWA3RJE2zBxd7TIfIjqXCYGFs2FNmW7GUi3wu57w1+fgwe3852gfioml1dBMBgyLaDLbk+KDuBEnN/Luga3WWJPg7xMYFfEAOslCP0mjF1s8duyxqRYJtQNgbnOmSHDbSxnsJ8bYCgp+Fmgq22MEJAtA17dQVdPOXNtC1Y3h76PzUixuj9D0BjE5j04wTsamDXHJodYNiAjWA5asP0oatLHpjPYhTOrhYuCYhsyAiW2uAhSUImIEzADOxe/loNdHbJOxvaTycQ0Sz+4gHsKILdArNDPgo6hnW8P1YLFQu37I1FvP94+a2cEhHZoAa69b98d/Qy0NDn2eaJZoFW4/UQY+SCI85f40Fkd7i8cSDAXIXZQoH+dI5QYMGzlSUhp8SRuxBNZKYdnezHQQQZq1bGzTvDdp7D7uLjkWFzSpKbEL0DDgMuFbheYR2MME9Ms2KtH2EhVW5stcp4o13Z01jO07nYWKcLAjmVjZ7v2zWxnqax1RhJhYvX7pkFY4HePTOTQBB85q3eN6hIT8aLHRNQq+M9uaOjM9/jAxMBiyjOQk1pdLd9118gCJY3z+GE9LJqcocgz/AdhgieJzm3xU0Kn60RzSrzCAsWP+7M80JVmlMs2XIAUKE1kzAN/+OdLI8i2JqhfqSYDFvGz6CIklZUqERgVyXL7csXtsLKE87Q2MRqSHNsZJVoGtgRvoacH72P04IKIUWzgL3KmChl24dR81Ou1Dq7EbIHrljYL/gMqmCHCtphL8z/sSNeWQraziU0kooo0A51oGQtT4meJ6aDJYRoR9ksn3WxS2/PTMct4OTKP0RDJciLRkKcqgZkiapRYwfgOOixRmSSepDXPZDlORrNICTl2bTOapdC7PdvtZ5H0pgeKtdhueQxzP+2MM8+lW4G8ZObBDk1HmoRZjoCC2CycAkBPB+AALHgv94JkmitQmOOEwHIJat/2oSwtuKXFdqA/ggFNIz8fCzM8x6Gzj/evmC2MS/pVcEI6/DFQxth6GALO4GeRrPTuEJJp1x9NSSqT/VGY15sgUvqYFvlgAEP8R28LNmy1w6NHsfvVGMKEwIKSU2DtQGbML81/O8WIZ+fwHOZHup6WJt3+g7v4TNxYBCqEQUkrkc6GEGO1q2x7vIQtx6FzV2raZswW/y0ZOqNdhGb3q660mS8nBhYsR9Ly61Xk/nd6pd41jl+LSYWcc0/lvMupBgcsUKo4BPmA1i7P9L8NtKwBFaY7ZUKNElGZ9MuBiN1oYKvHMYWJgWVg+bvby8DEu98sKGgx7tNnQgouEon2mNnPksrTkOl3tLmskusv7uuXYoj4LoUoBi58LehnuR+olOrcENkNk3RCYOnjwmWbYPsAi+h6hxB/fxbPm1vt9kUPhMSKLDkyYkgGDXI14p+Vgc+RLTELzcTYAwOT7+HmtSQNmaA7Fy65AMITZwuibN/1Xw5zQ4ZPXVfmSo6Mygu2QEtLlijoTkDT6aKJWgzrefhZ4h222Tl0hTT482Dt9ttvjwgVAQhpCVpEpaADkuaAQmjN0lWU3C7z4GMPhUl55WiRiULR7MZs7yGPvSWR94YwIjCpDUxiDW2ic9IsOrteQ+c2IX3GXihrKJYqQEeSC0dAXAwlhi2UCzT0TtAmqXM4mRBYDmPo3Af1HPqhXaIyTb1mYovvDRV2fNs81fBNd5fHNmHxyBl1liKgi9/Jj6P4TcisNgu3Y4dOTORDdAA9nG2mSc9i7ChHkjiHkwmBhSXlmm39aRDig+tLsLaEXyeFI5L22U6Bj8TfOXRDXM8Sd2yUHrUKafIXB3ykku8oZfCzmJywqklqiJ9Kkh9IR7KcBkRxR39CCanLWbGiSvUi82wDIm2zhC59LPiWWVKw3E8mBhZUmHCJv0mNpbmBBo3js00OASsAYbw/S5rAWM+NGNv1qMmZ+JyIzzKflPjo6E8F3nW5PfyYQs7c7F5K8GaMFjLFth7r1fycnNiJAlJMytJZg33AmqTOdNImymzYL+jszHAoU+byMKWHTIUQ57zQxrjZIsd76JVSWic7qR05TBwsac0iDMZgaffEO8o4dAQn1dD5iED7PZzZz9IvY8b3ofzAoGf2cg9OOWleJi1fcaZyQSwwlKcIDYWO48TB0kGdYtXMioErSxS6Eox6STMlfpaKmqdoiGyTFK2yfHxXc6xLFHoVPBe00FDRwRypm8kk9YyPabFepPOI+5GARaqLVdbFs4wYMnJ1Hs/Lzk9J9iTUpaEhTm63lZHUro8nFLhwALPOcPjv+sxuCdJjZzYIaWv8AyWjnx2fhTsZsNCB27vbNoARPnPRLECLrJSLpS4EtJ3SBkdMNfMbibEDlxWYNPeYLg/puFxeoDN5EyI8T3U8fCuewX+pv+u8sbaGuVAzkdiBD8oT/S0UKFRoHppFJJaadCZCYL20gcLmziv4WXJ5b0jyN0u72mQwNyVFkXplQxG03Cdxmf5AUPp5OWkL08SPT7Hk5mTflX/TCHqYYW2Gd81l9wTcn4X74CJlojVpq1CWRp64l4OfpdOAxjodbjVq/EcyMMG2Z3Aj8Uuh6IdycOHWSyUiBdZ7TDs2X6hVZD9X2S1sdxmNmiIR6KgZDP0cDc9UrQ39/B4e6OlnMZCEBttDFkMlgVexo8sxIzEhibUZ+Dh3Ln4BcfdLpjEzaIEyH8Q/lGpXKYZiYg+JJwYW7EGt9Se7BP5rh+Q8F5sF+fb0s5jRUa5+Fm20gB3UXlyBwhcvxaimq1EWO2p2H2hzPeTZI488Yml3fycpjRGDksSkHjL3vSWfGFiS4gjFBB8SDYY7I5LEo53Qz4Kux/R8PTPJw89iNk3uRYBdH4GCe5gVs7F1fzGNpl6P7BLHj/WKgZfkQwZFnVBTcxluZyOU9Hn+mShYiIguftjLJkDJzcDtlBBEqXEzDj8LPpCbVJ4hyykasEVNSv2CQ/a98pTGSscICNmTgqYji712FMUUKZfjRMHSgxWNH4oW3UNe3RAloxu1iJPeOJJOQMn79LNkHTqb11eZX3cQxoQuXPFSnzkNnk13CoKUWZouGqLlun5HXPp+1vOJgIXbhLGgurY6eeG4uaMWs3IkhNAFdZKhYPPIuSuPBYV9CyRjNu8kxB0gbiCWXyXpuJskG/kkBgzVlskD56SVXJv4PI8TAYsuMIaPEnbwo5t93qOUFBm6wWPibXnm4Wfp/yaIkCNE6EGyIyeq5aRYiEn+dOAc2OTCZMCChXKR7XBFF3cUQUvjHin6e8swRumLANPYhTqHbx9TdOJnARmeEyXp/VkYh8gc/CzIJ7UEV7fpHnWHAuBzmm2wSgFG+1MsNUCAr3zAswKDFm9F+VSZkc/1QE0sogm4DVQutHqVcDJgAWW+ldejAJQxewip2hz8VkJC/CxdIkv697SW6VGg4aJSaBn4YO+5joGP9Lq5ikbXIUe8Q40PO0O4ORHoRbQdNzGwkKRRmgSIxohu+IARtXVcvcbsbxdy2LOefhaTSZdRaKJHPfYaDaXzorclfT3yOdaEbZexBjcOPIGeRhvQwcS/LL431Gam4ywfQXZkCVDuWM+SyDhJmYefRam2gZtkvJMU3mIKrXJmtalXEOrWbRwQmEqQhieNLinCuE4mqln6MDEWwEjXpgkmmhttkGpcYvNcz8LBD5jQGccjlTSvWGjcA0LpFLuf81UQSQV7b7DAxjeT+KMGCwfOUoe7i2u4FN1+FhJJAvqGPPwsJj/2oea8+0h4Mi630RC763jIjB6VeZtfTLrftwTi2xkOE9ufxZSR/Syahqm6tpBj34RJl+Uo3VA7546sABqKus/djqQ5XgRY/JTV3a+L0w1MXhusYiIq/hpsjkVPZTVRzdJnFze2D2n2zZx2dJT9WWJFwgMIJGoFgk1aZkoOI5/uzcDNb7Ci14bq4oKVhK+RGRjiwQmBBfuzcEtyBO1T0SWUiuMptSlK4uA7gvpOtr/az0IlDT0mmhrbOWJNCc/p4wEtvKrkRnktfmJpZZGJpqfpIk5GK6xR7CDRbDZy4Q25CvL44QzMWATCDwsQ+5Wwk39OdJhpZ5h8N5Rq5e2isGdCJbK7fU87dtSzrvUsO4THFoKPc5u5Id4fsVuinyX9hv0OUmL58m3MConmENAE0I/GmpLdThxgg7ExjMiHyWXwcWJg2fEJmbhc4LbNPOOyvWOW4lYL0hi2bPS8SXkaf0+ceFQBJxWVItr3NCdvP/KX2RGx/NjAwB+CQ76kPMW+Jch+Y2JgyV7UveegV/cn2gJgEOcVMpDBV2wh7T2/0VKOisFdqQko+EcMWtFd0JTYYx4cj40oS5WTctyVQUlg0N+duqMQ2R246GK4+EkQokl1+jmG0gjdZW1f71IvPW7z28zt57OfgREoF/ECsBOCenlZgAW7KETouDlsRYhHzkml5Thqlhpw8MV4UxXm9SC9IAm0WYbkrkk16rF72hkZD8g7+xfjUc5EauRFuiHAxYJicbDrwCDqo/LYfq6jUbejx3MGcyHFapuGARFnnRcfeqhnmnbqwWfncTvAR8BNqgSIMiqBNFmIGLQmzUhHUgBWWq0WWwDrSdPsqjAgU/jJ7u43pUSVxRLCATjhf1nW74A3lGF8TrmJgYUcGXaTIwdBCKZ7ymOl3Lkk866TPACSypLIMHpFoyR1cwetIDcPbtpnROnBuMVACANo/BWwjA8rk7FZNkprZASTwRYXr8DHoddj4Fz8LlifgdYZKg8TgFn37pcqAy2sZbSxR7n4PIhTrqNhwyM68WNhwtz8LJIxFndxqa2FfXUsfEmNm11jwR58LFGftzFT6Nr9lKv7KzVu5sM60xoSnQ5PRLNAueiPluL7R+MKk9MsYKkfE+YGh5dZu6GODzNBlCbvhDYipGvIY+cnZFoo9P++D2vS0M3eDcHyn2dunVUGqZpuyJAa27GT8tjI9M8Y0mxLtH+y/O6QYOyryLrz016WPhGYFlzKmRmQUSLQ0lVj8MuxGXKVL7XzS/+7zoMEBSlqQUKmmZd8xIToZ0EHh3rSebMbgkjlLps6aeJLKzhk/yrIIGcbyOf+Qil6PM1IzCt4A0hApwtE8e1cDxMgYcqrF2x3M2vu5nW8+eabsdwXFguRAptPMMGRECVKfEjgHFE+a1U7AJ50Om1uktFYOyrTGSssqTQZOrMbkq6InW6PEmQi1/FwQrcjdiwXmP+iq0zXF/+mflCmO0YQ+RVCSGq6QpQqO4BqyfreUHcJQSKurJhYd4Kcr8X2ivPEGm7OGr1cwKK56o1OstmpXjPJFYMRg0rmE2sUXYP8i1/XrhyZyHU/nCsv3ZlDrxDsJhp86tBbsCZZLscJkDDl5KdjeJ7waW5AfeoWmcerIOeZawoJhkj7CPpofy1u0KLDyK3R+FnYpk1mkzwCKEnZpacFSsdJf2JgwetB3A1aaor7mNCGN/vfuoUCtqXAEmrOs2cM5/g8fA+mAo3NQO1CWQY+1rXo5SdBHn4WenDZiYouYy/LX5oN0szIk3mcuyikux6wYW5N5DgxsNAZpznqjQct8Ozuxw4/SyxCMW8Te0JH6u86Z9s0eWtrU5iJZ3/7Vpi8mtL37h5vYOmG7M/SIb6JVZ8UcmLU4LWN2dyhKdksJbQcbFmeQ+DQWXdszGwHPSrvXOiYoqa7AxPHI4gklAYNsdPP9D9PvQqS1lz9H8j9zsTA0tYsufPQkaEZOrcjO3EhV+BavzeUzc9SrU7tRGKbcOdZRrToV0HwSiJCJ0dtMuyj2lf5n00MLLsVHdseWNk7IU1FliikPk7VYfeBY8wTxfvg7laqvd03dsTOmkKMRHZ+Wm1vufZL1RsqMJx2ku+XxYjxEwNLuxtKSgqukx4IkSxKdricRy6wpRPB9WKQRihs6dz8LKYb6lWNuiCuyj43ZOSWsGYikuO4zd1eskyIT+QEkiad3AoCtMg+uJRcYjEQljEwEZ+3tjaaxcirGzT86qy+d59JkunYDy7gsJt0JjrdD+dWR90Z77iOX53pRj+4y5fBc9QsAyxAcJyXTM1EIl2nhCIqsYMXYFUQmt9bQ11Sjbc/Yyz9LDz6Y3wVZHJgwRIS8JJMrJmGLkfNp6w6I8NZArACwfke/SzMG5uZyF4mWNvCCOwL43LZKr4ync96Fi5RQMZYkkPPKl9IwlLYgPDg9AbfS+YSBl53zCJlYZEcyvP6r84KrOlvg+TQlfcr3ATBoovQrVn6FWzUePpZEucefcMM+At3oJzT2OW5/q5zNj9LsplPhwW9s+SY2UzX684Ee43BYEjkFwsR4E/lS67S13vNdO/pJgcW48ZMsYdiUnWK+uQu0YMWEu2dpTuVz4Vq3YIzAgZWOBrSgMo2dE7KRJXVI6D2NIwM7z3SDBNVxv4snQDp9fTLYKVcL7bGE/dtwI/rGdsjojQdg1Vup5V51jlesJ3OP30uy8ZFo+WElnTmOAcSE5CC2+S8K1lulxPTLJNyyvWSDPdgS4+AaP5y6BynNcdejw6MSyYSu1IZQHZF537JglNRypQ91uBySOm+1L8KQimFeDk8d2n1yFA8uFiu3b6lYZIeIOEmypJ+R7mdeviz+IOaPR6UMZm0/rGNhxKqmJTNfRojyTw+mZhm6SaM2iJ4zK/7drZrdkOpQCKalPnLa7NEIYUrRuceNPXcsu3gTOfKKCgWmu65kemV0cTA4uzyPgTWzPYq30hx+GSLWArth6XCRJLo5fUUisEKL7OHnohI67fsJLh7lLwK0jOrsSMFVPOroZ4s6MhFtYiT8Rh5vciiy+FYlV05bgMd6A9kHYtYgVyX64RuxfMPH65lAopxyrEM8N0ovO4lbjiaQ+0BUprEA72Ku/c4eRWkU7XEIEkT2Xt+Q6acCFhYphgqY2eKfpYwEOtVWnvS5GNdA1Wto5qNIUXVmTzJV0cDHe3742CSL5m1Kew8Szlzd97MKWZiYNHl3SFGCCAZleTiwU3Lpd26SUXLWnohJvKy7WTSwUlHNXZcgJC5zrhGIc1YfB6XQYwVOpHBoyHWI3X2qImBRdssvXlhLF9hzc6OzsHGhgLoF0SW7RFynLt0TdnnUPoXtgNGCVTy4q2fHcSXXxheJnNDwkt/GcvtfP5gBWdHjUkfIbN6ui9iU8y6+KmDQMdFPjz0zAXufnCQUIMwwQr80REmvnQYq3wnolk2NtbHykRPwSKyn1aGwGXxU2YPbj/CveLRC+W9mQ9NXcEIfXP4jbsbelluE8a6YqvjMWUSxZe4M96uXeik/1DT5WWxdHdDYJJOXAENx2BpunmfT0SzTE/PJKqzLwM5lsTvsYqx/XoGZ2f7lmKoG8bdnwCzx9M5kUpy7lw+KSChucIfOtr2XFHyQI4nOVZRjqXKmBW3NsX6FYf7szArl+8podFBZSt8fzkKMM508RJTHu8NtYtKWPAHt7vNDiKEjY1z/HosKW0/tuezZLM9KBcZ+bDjQdej9QqyCfgafjaHwODCTB4sgxRlttFszOmdWFYJn1zMmZDjH+MJiWdnEwfuYPlkuksjQjLIcWpINEhSKn5PGoH7QQuAlOW8HCYSE/7GfvJt1aMXSqgKbiYwnZ8QzOskUSztDNnv4Ao/KhtRa/BUvwx22BZVrNtZm9sxnbnGbO9Fj1PB0DLJaroxlWFs2bIvRRBsACMwVtCh6qWjOPTiOLeiTLQbGisniUjuhI0Qr6YXsSY35ASypoE7maJ0ks7lyrAEawWn0gcBKzDCYBxx6JxLT96npBMFC9tEX4Kd82N9iruXaKyUGxAgT5E3Fz9N1M8yoEx7vhVPJEIxQpTQJuh/oFYCqBfY7PxCwHgbQd+62zMDe0woK+WkPePPGJni4idM/GjopfQHsJG62mOhc0iGwiR0M2+azLdXuS5Omyc40HeLBRn43iy7I9y1XxZfXzVy18Ibb8Vx6Ix3DgWTSWXhhEG6IX2q8h06x5kOOOThwRV9Al7IDg/ACL0BfvyqiwBzaWkpAeiA4gx9a2KaxZQMXAiP5jrvo16igJVWsbggTfpWMKPtU76q4GJK03GwYoKb1mZ8FaRH4anAjBKTc7R/LmLL40tm/PoqmIB9Im8kUbOwJwIfYUCFA3rgenxWy8TBwqXT+C8VZ2TNC276a66zHuVLZt250axFoLuc/+mUy0qn7/MxUFF1rFzUbF68rdBJCwtduiKY6TgSMvzPTojGu2DlbN+iZbkxUbCIDMdXRYkcaPWBFsc8CTXT2ilSCBXx42uBSUF4Epchvy+ZEROaLfApzMBk5264OnKMLtyJgYXGeocQ+1w8Pj29p3R9Hm9Hx6MeAU07VqDCS9+m8yqnl8zS+fM8gaicY1Crec9s4CZfC9CAQQNIKPElvXGHiYHFMCKvR5iL1BHdr4DkzlTcqKec5UVjSx6XlohL0S66a7AwbMgHlAmVXie6DPGS0l4JRo6TrijWMCNnMuSDEwcL9TL+962oH/7wh+yI+97fC387Zp1ZZ905enm9N5QqURqhiJbBbOp2Hqe7y2Z8/dDEwSINHG08LTgx09IRGc7pZynwcxzj18pJKWlxJhc40fqkHZPjPOIOryZ2bgBE8zKg22XudTZxsPQqhMTlWJIAfpZuV3Fi4BpXv0w75zF0rnM6rwMfQE7HNUdDmYfOPT802rZZtFxzFGKPihpv7j0I9o7qaJi9k+wxVrY2jWwX1YXNUuIWz+xRfWLJSN+Azt6jnyVbSL83RGWW/PQ4VmcuZDKT2rWgnBmiC2ac4ccELGAxRz7pZ0m37tgvIXLU3+mAYJv5r2hpq5P8wN+ufLO1Kaoszl58cu0EaAydGi11K5fTHzVYyHbukpU95VK5QobohbpU9hjsW1MjpMfzVBHMrZGPemvTFWrHJNsOnpKaHJ//KCExMhdDPghO2w0wfrbbQBwyyx3JZfHTDiqdyTByToTeeWdvV3t6OmfplsvleAWgLjqBg3LIP1lgyaKPDyvdZuDeBDWWVDkKVvws9JwaD25aPcfj2cyKJQ3GHMu+u2xJLNZc/N4QvUeEDKLBpi7VeLz9PxqwpOVshMNW0mrlsx172s9iTCHK0wTSwlcl2hHmxohHVFH/vFLdXx6zzkmpBSUYiPGNfBpi1C9Ga18YkZFdHptom2iXJW4B7Qg5KxS86MyZM72w1JWy/6Vez9LDzzKoQvtn1/8Oq6ZjONRO2h857TSjnoGNJHs0AHzQFh/rBVDw7VWO/jLJbrcy/WjAElcc2HbjFtFRzrQW6Lixx4vCju8NpawiNMJcglRLb7TsqLEcRs7cRaFWK0NkkA7/xt0PJhAd7HnmWC7wYrrdXBjcmUlOktuZ8aCYGAztFoLEZjOfb+tVkTvkPSi/9D36WVrNsA1CUWIW15IlfhbQTy1R0P1/Oo/czk0fmEuG9yh+1xng4Jvc9ANSftgCANsAADAO/QXhOCYY2oX/kYClTV6GlwlodPzgNbTpZ/udc32t6b5NGmroGKQSFSbv13QNqc0DOR+bTsPKNOscvwoCHsib1jDgyHEdD3DxgCHOKuQKz24R/AjAEiuNuCsyBQL7I2sTk4c5yrsRCRmJRY+u50+6kGkeGeMRBUE1cn9tGLjZ6HDBtkE8+yGoYzQM17Fd/NAdcS9o7Ph99OhqbrJMF3giYNllF4W4/nJsFLIBoQGflhtlzJ8GJabfxvgyFigJUVNj8LSik7CtBx98cHSsxnND4CHJA1hhr1RA3gUoU7aG0PcDQzZdz7mcTwQs6mCPsrZ57rqZx4oWZMmVh3GQbT/b9DrGDHHfb5Lu/ZhU2S6PSO9nWU3YoLukHHw76YbEtpW0HDBDtbgYEcG8dTgaCmECh0vyhsPg7Ea5OxmwdJRsh8wQwThdlJtv3kgqueOxPV6YfXA7qKCL095OtPk4n8TPkona4EKRltDDaMjDmuoLF+7JSG0ebYC9jw7AIc0zjILkBUuozZeLgYudDGLRxay2D2zdqE5Tj+0bI57xG4npWiFQoK4lNxOvd34akcBeH4trlcv7a7KZTy5+EBkNsQgECvAi/yyMicCbNcaPgkzOg4vJPQGDMLRXYY+QTpYo4KvN6SD6BNSN3ZKol3SiDOempXdnAYy2VVn3zSGvzXvxwEfcqESdcJk2MCPvD8AqUnarZTtH4T4YMvs9Je/H554eHjbRXuyDxx/PY8G2iw3ZI+BTG83sznku16LBIGKvJa6ytikzLDed6YmKBIzaByIJxGTBWpM8PntXxnedgQhAQmMQp9AnjMFfnmHj/qIX2ktL8wRL7oCZGFjwdTH0M3znZacqlkLgDxbcZ2fwzjvxsYPOiowFF+ctwwnLDd1oc/MUFZ3pmXY8NDjCiqrV6fhZZD2g5HyzodnMYd5rVrRj0mVDng5xAiNXoALY4EtZBVOnI/LVn2uTcf8UOd2hxTLRkBYV69Jo77gQ+uNU+ZYohoxp9l34KatMTjkp6hz+JvYtnCwKYyy8X0m94mL4jJ18+HHzl7SfhXxi+Iom3N+IpRGay7p0zBfQwIX+SOAi3YMewlIDcGSEEuW48KNHkxNFgz9yK6eWUq/XgHnaQZqg1iiACaGi4G+x7UIJW83ryVRKPd/Qg818Cew9NzuX6qOgoPYFKCJX0xCl9tqlaeXolCPQJeeEhiCSnh6JQTuJ79zXLsAIZ6WiB6CQIUPPgusWDn86/R27SKslwFvy58+PkPkeHtnZu+/hoSxJUIuJSNv5UAbGlsk+N6Q6RkOCmzYpnBFE+emV7N+i7ijcLhfJijikY/8DRws1Co3bIp1zAdz9Z88u72R6l3z3cnuCmoXO6d5FQjuh1yy+m92DywlYZBkTIxDlPP4jF3Cz9CtN7zL2j939m4TshVp2wxSof1Z7uBMPhCQlzgkUjIHcaQCnDHPXHSd0JweWXfrtsRYkASKHYlhblku1tWsWzaB9wbMUPQ7eOUaXSszQC3FqyPMKXD4pxGh2gREXOqWAyaEZx7XL7I5arfFtQNjFJUo0pjAxQiw/P7Aso/TYwEQUNLVCf44PIfiYx48wdIZdc3t+zNKUoAaj8cy5KG1E695AXr3OSIpOuWa9jkkgvacvLF2sZJH5ZoyB7CmMoWHbWq4qjU+3TKwO+XlcNLi+bVq2Hcko0M7HQQoGJqrL0ERdomHyA1JonBx55YUVlt0QScrAmNjABU2NmgeSu0OfULNM8al2n0p+XIDUhXk7DeulBMe/67wcNMsg6WhB7xD3oEcG37O4pxxaOFs59TUCJYsgsmbllW0nfOSRwdkMc1dTaT/Rm5sMaJGsp4UP/JH/4MMrOFYFVwVE4Ye1LXT6jylMTLO0O4QxcdKRLeaGWHvxCMsAhkkgSWnzZnjd8VjWi27EZM0v9fzt8Yw1WIrBgAXMWCHnFpw52C4EisfWQLDcc0/W2e0U4dTpBMESU+2BezR+VmAc8hg6M6u2Uy7OWKpSbAvH3MtRtcREzAEARdWZK3O8z5yMdGx6deQIe0wHYgMGrsVV3OiOYK/EQHrggZGy3/UhQ3jXhFkT8LvOFN4O+THjVGRe3kd0QFJk0xVRk+hz9lAoSX6OFim+sGD4MEeUgALm3BALk2lVZYwzzAWh/ORNulT0RNAosnCTizctDNFfBt2QHjmnpEjppQJbYupy5NPzeNKR9SwwO80eg8jbgCY+4oU2CjUPEzceffQoPaoUKgx8yVqekVmSB89iSSYNXCMnzGYALWKvF3Hk60PULpaD93IzgXJAMSeiWYob8A9IICB6SBX3wGeUV2sP0LqQGwkl9BKwiLx1S9dlyuPvzg5HKAurvfkdjeoUfSvJo0ALOMUoyLarOEd7pHxzVJkJJX0yEbBoUm2vHIAhUebICwz9cngVS6lzzCwK4I7Ad5ZdJ4KHk0hUhUKB87MxeqyoUDBqhw9kC8YC2i2XrLZEGPpcFsf/bFwADrSjrbA5LlZAwSNHpwB3P3tgt4KMeH8iYOGXzPD+k0ZIj+6GFj60amRL1zAiJ6nHZD0Lu3XtZ9Fay9ynzklCHgZuP3c/2dXiNc0E3UOKdlKIIU+oPeKg/TvxNb11L4Ovr8qrILqBGza7joRLSghdd4e91EsUdMVQkuznTV+PCy3cHNZD1OsNaKhCTwAYulSisuhxWCZ6pC8WS6DVbt9pzQw6MSaL6r4ez+YRNbFZZ80JEcMG3wUMXX158CN5JJ+Qif0stASNzUJS+Mlo6MzxMz0rOq+CECgkB/8tPshQzExrU21K4fEnc16j8NiG6ShPD/EMGrS0bpFfLMWOxzmcRci6BpcLtuGg5eAyESjqimDR1yna3Ea1owzjuCBQBn5bbe9Ep+DwZ4UljPV6dHz2bUqn9SKcZ5zpuJFndw2lr7O+N8Qiy/4seq12woHRLBIBVTPO2dmEaHziYLMITjvDwE2z2p1s1+uGS6ccQoz7najh0PllMOs8SBLgPZMQ03nTqYeBD9emdTdAucYfjCHYPvNpgq0WXRzpEqTPcQP/5fXVpmWdPTv666sXFhetQtONKXUeEopxdKbXZJPMdp5MrBvaSborhozmU3+SMawiEZ1BSFqzsFPqoj7a5aJ5LK4lc2mOYkyj+8W+GIHr24uocHNr2OO5+AFpWANzybwBWt+iTQwsgwmhZqFd2DVktVnIKX3gzM80eR75w8gFO5o2ZRifp5+lr3Rxg/WKzsFycnILmCXFpIkGsBM248PKZGwW88V4+scGh+yqhQZuwA+ZJWJMlEhyAuDk49NZxseusLXZYJ4EvFio5IbLy6OvjT0PIi2vc0RFPrppv+Q/e3dFXcVgmQuA+A53XIupViEu7F2B1C2WwdewS0SQCb04OQXcHTc4p8F3W60eL4+RMvkDqzi1sESPk4nZXownWvYQPDU+1ZJzFfXnRhNqq03OnrLSTMWxCrPrFaVo4GK9tgDFlMbgk9dCMwVUk2akY2KztPWY5BO3Bx7i03gR7gMjkTEPFZpY9N1d9k5W8R2l8X0aZ2JgIcOm0gxAjBCkBQItLX4wKvvifrRicbSATFJVmrwBp+V0gCkpx5Ani2pRlrx2kokzAWnRKnKJPQKbNmaD7xuSQir5OZxXeN1dZR08xnrlntSD+Z12U84v566c6PJmI+iqQEll2E25zk1UVy67X55HEpKCjQtqhl5ndqjc3Ga4+5copgkJcy1Py25i56e2oun/XO87xEqz2WOYnmYNHPuYa7yw+FA6tneGI8RODCx8ISINlPQ5yy3ctedrpKJH4Eep87LYqPP5lOhwSkVg+bKwOY/1LEnpO4pLkqJxMCrj4ieOhhYzVqLncW4oFTqvcEMaiXUulSTP04mBBR/I3VFuAkaDJvagwWhhL9RzSLjj6T4RsaQgxxgiqYFR/AiXVnKjPqWyzTovKwyHJCCrHgHmBXHJTwPHNkuPRHuMOo90brOOKRPDF7s50E2T5iX2r8vD/dCrWBMDC7Y6Q63BB89lK5YPHlv4bG4Tvwbe46Hhls+CpHPgEl0QagcfqOJOn/IdoAhGL74a06pjjQtXyAXYuyXIzjuwwhV35KyF8R5NS84ykHJAfnCEQw6jIS365bvuSldtr/roG0e+WGbwEWEJP9zQThTgO/GgA97ihgh6Ngxc7DoylpBdYHssFndRYFJpDT2e4exfj+iRosTP0vWk0WLmiHc+M2/9rhYxHDKrKqklhbm2rSQMp8vxYPpiuHP6j1p4BZ6+RvOkGIHmQo780KsbxRtPd9zJ42JiYJF1qIRD1wSfYcKo1zwYRUsDJcg0JVmAhCFZlujAEMw668yRs+vT6NRi1GjnV17i+iR9LuqCwU0+s9ksd8peukZevY+RhXmxII/J2F75TwQs3NnUfNu4VyFMXF4zwTY2CTPNzyyqIlCSIKfZ30mURV3QLOhDU5kDo2nPKjUOAt/+ymRLxF1LmxCRqLWY4Yv9Hl74h6d49O7O5NXrOBGwKHUAnWkv8nEcJMDbxWJR5d3fsmXH6lo3fFQe1U4er0wUiwUZVaH4UofEYxqUZviOo433rO35+bKkGyCJwbewMR16ur554A6+SVCIsmmw/kUYVIX9nxrhDj20RjvveByNhBpAD2d33B0qgn178oDgQl8RMObHjp+LnW/PYeTMNwCRFUObLFmFHU1QkjP8iW+OPvqax0ItB/vSIaN2dqAo1wllnjSwgCwlg4572S4mAhaqay2xtkC7WwilzVmNrHaEuPth5KF+RJOYbgi+DgELj/hnq6brPPPMM+0CjSjHol5XsUOOqFFdrRiYwYqRsqyunpHjaKRuVzRwOU2iA8DY7fqXG5w0Gc9wyFCOCzCmwwLkhiDMxRRx2U0M62IBlxyaeyDzI1pdU5sgCDGjWWhM5zJ0RsY+X0TvZgaVGDcGcBnxHQ0uj4iyGJ4Xp56BZpEp10RyAsi0FMEqJyyz0Eln130+GbCAKl7a4TsuEihb/rDuRH7ybg/vNJq5vCOIobM4HgwdZo2V+CHXs2AIT7+Er4pB89SpUxlaOnPF249Yxihp4eD7AABAAElEQVTsSO+g+SIyWZHYxUvO8ngj8UhSVm5GpB19eC9K5CjaEhoT8gzxGkwjy1II8tQvTA4s8ESz+9b6BKLsUqEETl4r5Qrd7ywAEqAs1KVmoWIKAE0eW25wuzExS9ISBpPsB/FXNoOJ/BA7X2dcG4vCBh5GeSJBak3BeQL2WLLiqEsXJc/ziYCl0Wphq6X2JBhVczcTkAHiPJVHBabzFiGCIMDIH4mgGm28s5jd3U86tLMEFrryGBUH1ittXzpbEQVT4q4MHtxVfDuSC62YJyhqpNBoj1EjRHGHGz+9pLfcOFEqySYK5JDfrSCD4FoYjiWLGKxnyWndDvttEqFc0eopYH1OOQM0qMGw4jjhmYwf7zQrAMkIctb8xFyRJk51YwRNx3dCLKRO2B325OYNfC0FX4sQuy9+WEgIp+3c+r0f2U4x+tlENAuLJ3ND6XJqwzOJYXXKzgZ5DGfdAhZWclKIGOzUYtL9iYGb/V3nK1euSvkBlHbQF2AHDMWxGAtF2Pitj++6/eigM84rBZ5ZwtnJE58jOBk4+/CSXt2/5nl8KR3sJPIjd8Kc/AGnkCd6CcsiVrJsW258DBCnENCvfdBE0gJmw2eLb6+GaBdj2DNqFvGzmJrSJJkNGYr7PBrxUdTi3v333DMsiXZ6aCV+Ok+EREmChkAkHjawCPhhgjTZu7/9bE5nE9EsnEMBH7J/CDtxBvyNp0rjS0yh8OwZACvTijK4gFFT/GwY4Yj/BAkmbyBLM3Tm662FpJUK/ZH+FIvr2LYAj7LuOB6XOiRNiYkP/BoJuljaEiNR0Q/xNRIO9wkI0xBAjzJL6pD3WlgT/JK2WZbJEa1aqTARZrfYoFiiFkyNSD2hbxlN0J1wt2t6OttppN6ATxzp+xCDkMXAqBYtfYN2QKZwQBUiG+Px2OJM5cXys8vDiNYHVFtwpgXGZBmFN2pMu4ptirAUR2NSiCVA4RVsNWxNU+DHljLyJXnv+NNBbMfdnCLK09NhwcOm1ioIy54TTZWLUaNBYy1QG9vb1K0BNpjcDKN6tHmqmYlRGq0O5ukx3nH4HmvkN7ENNQZjWHUyjbmVg7Mz3lSxGIShF2X1R1QqJcjPLxU8jGphNJfwRQ58NzeqFMoqbAbKc8qhZ5VaRddaDetO/cIFXYnQAEPzSM+0V4YvH/ibqRZVueCoaWxmWrShuRobysO6oKi25sOjRHtt6Pz3UtUTAcsBvNhlhX65VC4152bmoiJ2nMEXCtTU1JSanp6G0sZGespa94pF/0ytFsFm2UvZe6b5NtY4QIEEpVJ5e35+BjSqmLYv2J7n2c1WQ62tr+GbPKoRFesQrO4YRmnpJL69XYejDy437ERU8NzQDxqyKTMbARckOQXu9xZNB4Hvul4rvP9+bXT3LPgukRh2h40avv5hWyWAASKTYNPRuLCwwElYf25uruQ4TffTn/50uovfJee9354IWK5dW0SvbcN56qvt2oZ17dpKdGVlubm6uqLWr11TVy5d8mAAHg+w2ngJnnHYLBzujtQ62ALxxYMt1OAWVpJZa2tr6uKlJX/l2kpw9epVVdvetrCxUFSB1DE7C+Bow3fvImunnJmZh1WuivjCiD83O71RlDceG9HVq1fC9Y01TuMAJNirFlZpGV/raD85/BnbTzHAkkLbXoXHO+TXP+q1Rnjl0kV/Zfky59TwHcbtohtFi2iE3W7J4Qn2eGIiYDl0aC2E3t++fHFp9tELj9hXrlyOtjbWw6WlFzcvX7lU81tN97nnnnrX5aWl9y40GlMcDY1aieha7Fpt/cDqytXFp595yr506WJQbzRaLzz/3Pbq8pUGVFxwcen500tLyz8HecjXnnrIZU9R/nTNwftjle3aduF73/vXuSd/8ES4eu1KcGnpxdbK1cut+vam+uETj5VeuPjsB2pRNDUqTyzMuXMPYZlDvYrGVv7hD5+yn/zB4z7Av/bsM8+tPP74kxfxJuJVzqQ/9dzz/zs+UHUAtHKv27EgsFvS3Nm2GvjBM08/Vb20fNk+eeKYf+7tb61iaWMJjVHdcuNN6mO//j9FCwcW33bo6MIXoFmuxIChuh22RTprq9duevqZHxx++qmnMS95m7r1hptfPHx4vlUs2YeuO33U+a//9RPF5Yv2T87PL372oYcesu+++250ScMHCK8Q+Y3prc2twnce/mbxne98p/XaV70ymJufKxVLBbW+uqr+5q+/UHnxxaffefDQzP/54IUL1GTytc9h+arVas5GvX7k2tXV2SefeEKdPnMmXDxw4BNHT5xo4tMg6IaCAgz2d37+c597xZFDi2+/8NBDnwdH2P0nv5A7+noVjSMUfLkiuLpyxYGKtmdnZgrVcoGTXn4AVxXUNeyMyC0Xi6avleHzKP6WEydO0G4INtavRRsba1GpVAyPH50PMDlcxCgoOHb0SLi+tups1tduKhYjzudnajAYwM02mw1n5doVDMft6MSJRWemWlDkZPHgPPoh26o3G9PoYktQCSPTKpfLWO/TpBYLL11aUuDNmp2dDbBeTMHgw8aDJefA/IHvX11ZiWCfqY1yUO1VF1niJgIW+AhgADrYLh9ub+hK2BNFEJYpE8g0aNS21IEDB6z52flm0Su6MFJZroi2y16YA9CAAx2uXvX45Yw1GMw1mJNY/u7DrrDKmFzkNrJu0XOKc9MzYbVabdo2FBstxFHDBlf3eVV+ZKFa8qIiiMBbS0BIuVkogmVuZtrHGgV13XXXSTmH1Sos3ubmJmTi0nhfAnDCSqXsz85M4Vt32JAdtrSgMFLrpVKpOX/w4BV7eiaRCZ/PI0wELCgoHHJhqVwp4pO1JVhnLa4GovsDuFFOtVpR6KUwCFRztleUlzQp0GGFyn56amrD9sMWNhKmX4V2NTxy2P4T3TlAEXn17XrRceEhdDG1WbJnIdyRZeAtcJTlFJAHykznG2aWtROEvhwJNERBrFnFx4IuImZYnuJsOHK0MRz3APwZULJgA4IvBzZ1AQOhYtkrFY9DoxyhUIuuW0JcpukFQzd9HFlQ6UzS52zl6ZbOCmwuLESe61bWrl51NjfXIVQ/dnPS1YnXMuFzWbq4ZMP3MoOdJkOq3HSeg86ZP+7z3VjnySefLKByipWqd2OjVpteX7/m1Da36CGvIhHftnE9z8Vo5SrShbCZIhe2wJ5kQJ5iWlKcb33rWwX0cy6Gx6eLXmGq1azbly8toapC8MR60r8mvsVsBS0PCyLr3srKnvkiEUOTvNXKZXu64i5sb2/cQBspwKCg0dx+TaVcOoUGeBTouN713Dv8IDgUtkKv0WDnlG8YuQ81xaAAL11S5VrtWoFDi6efflrN+DP4PMsjIWyHaGlpKToUFo6tlJwbj584Dn9nIYBKJV1KU2yUVRiC9LfAD3NsrjI9Xyy6c0899VQTrQPfkAoje8u2tuwtNErLqlQqYTWohmpGqcuXLztIh1GCB8Nx29vYaNnl8vR1CwdnX3v8xAn0d3Z44MBC8drqtWh+fi5qNn3rsccfxae/CiF8E8DUbLk8W6g88cQTWHxPp24To5sAKr4ifgwFfyFfRuc90HEbjYb17KPPNsNSGGFIXvK86pGrK6tvuHbtmvOKV7zCP3ToUAFDdAVbAvujO8qco5yl1xVnrpub9paee+45r16vw28IvoBinNvT+FxQw2mg7OWIrsmoDGTWLAvgF/lQXnOhO71RLb7u4MGDlVtuudmHbcZe9nXotZ/ATD5Sq2q9UT8MXwv8O+5t07b9MGiVt7a23BnMNpQ9z7/i+7Wbbrpp5GmxoZAO0XUEAKXwgx9cmvejjXOQ9i34tHAD/G9CDi1wGflR6Poh5uYjB2V13371yuXXoxUcOHLkiAcmFISvWDHr6+sKgAlPnzr9ZLMV/C2GnAeBi4bjFFYjFZZgAcCMswLUGbIVzKDrptqHTRKRTOS0VHAA00u1oNVCVHgzVlrdhCEknLZlVYSLFUYmVsvVORGnLl686C8eXny65FY+X2vWF6DpqvggJdCIF/zQ+aHnglywXRO2bCLDoAs+wqkwgOfesq4gCg0Y7y8XvCV8xuUnYLjfsbh4oIxKLc/MzAlfaCjytsLKygrd8M2pysyXYZ7h/UV4q5E3vC5NFBSEQAWRKC883PrL9oiBCOltwI6onAYJwga6sm2g/DYA4ZVwLh4lusFbsLmxYa2vb9ROnzzuYDTkPvbYY8HZW275Fgr4NRjVz6LDPQR3wSvxkdYN8P53eOwzN9xww1pHRe7xYmSwgFH3qacuH2i1Nt4VBK2P4aOOc5Apdjji5hKWz/v4cdKrAfsES1Xt2cNHDh9DxZVh0atLUEe4LxqFx0OLh7BLQGP74uVLGMls2PDyRhBM3W8FHG7SU8l1KDaAgzJzVYxoJlQuJ/AgcixLQAU5YatFr23h6OEj04xv1hvq+eefVwQnBKUOLB4Uz3ENH0m+cuWK34ABjPgIqOB7tTRMUXxiQibo0PUQnhgje1imhlrHvSa0j1XbrqliqaimZmZaGMUtzmCERwcgtSTuiyeXDeHw4cMClmeffRa7xsCI0utPaLIR6LTLpNvGzCcvSZ8/vvgEaqTnkNeo2fIt2Ebh4pFDs9DCHlbeKToZodVEjrTg6cmF3bKNuCYWyQe1Wh2jpSLKEijYhejJyo+B1d+qVGa+Pb+11bROnqwh7z2HkcDyla98xT116uyBMNz4uVbL/yUI5/rpmdkpCB2fdIT1KPxH9F1wjpmyp5HiAAAVqnpWHJmgMNnatzE/VIXrn0LGfWEeD4nAqQmoHSA3wxSFuSNwJR4j4Z6VtKxtBvjgJV9UJkcUomF4vgWasFeUVy6Jttmth2d5mJ7l4ACKwGPZ+GO5YadLHCuR91jv5IWBRw5nJcTl0hftv7T406E9vtN8c9U3aZlQg1amZma+AJFq1eoiS3SFbBgEiUMgsSGUID+4K7j45jLmGr8BvfinsMwfg9mwZs3PXzN57nYcGiwQAvvvRd8P3w9N8BuQyuFKtTI1PTPnUUj8MVBY/LHSKGgKkeBA1yDgkHuxoFl5TdwncCh4kwef4bMEFgUzKDQDjk4LquwVhQbeQVItLAAnPQqT9Jj35vaWaBZ4deUeVgZLPHqgQdlLpbBr4Y95MbBs/DEUXYzokD95IKCqU2XJn0AhP4xnMJgwz0kk/uwGFrwAL42G6QkadItSFuZNGtBT8L1siHZhY6TdRPmxLJQBtNE2ZHgN5cAqhubzKPg3MRD8vxuN6BrsoBdMOQYdhzJwISQHU+XzUI3vRz//K2D9MFTxNCoTY33d2kxFs5D8aelYqoQRcYj6CDFAJrMUlklDeRvhkTH4QCBgqQTUecCvoAvDgxiZcgu6IqFJYMiipdOrWUa+0DQtXyqyMlVFPh66FM5/w3atAIR+iCNsBV8cq31JUPtx4pNmE3sSVhBBw3KTZ26MTAx5ACsD5i7BHz9Hji6pFcqzTNsNlnjrO3TUvUnD3pAbPoTHxkDtJnQhQzYi/kjfheomQCg/oYPCUI4EN0GDI10StMNqSI8hmnV3FNi1ohN9aX15ubodBC/AltzqXQodu2ewoIDeY489d9BzS+9ttGr/C2ZSj0FTCFBYeBaShU6rSpKgFcDC8x61AxczmsrnM2QGxqIwxGv+eH9rq857uHRFSKQxKNBWoTC5Opp2CgwMeKrwLIRKUIrAmi1Vg7ZBT6garaYImq2RAre0F74vCdInQExepMUugNeiNQLNP9ORX6MJYdDL9XZtU1diTIFpGPYKFnbolC3pkTYuRHbMgwCaLldEY1PO/DFQtrxHWjyivEUAyEMZZxuN5jIclu+B0XfU8py/rTRpC6rH5ME+f3SJ+9w00RgGe6XS7Gm/2fgw9N2HIXgMb4swM6aKVPGmcCb9KEcjvFGe3csz485/tzLsBvbdns96PwaLNAwDOjTKywDAs5jC/hrGZ5+3G8GjlQMHnutHq20x9UkBJukHOAigfABOn7uQbAavJFQAFg8I50gCQ1qN5D5Z7Ef/GEjAGNjUsPwxQGsvYu7lODzBr4Of9G6/YF23tbx8rF9xB3ZD0f2R/eijL8w7KvhZWGAfgp/hCIBRBUgcgKUB0DRBkN5TLiofmFe/AuzHT0YC7LrYLfFHzRL/2LMcxciLnTwX97aisvPn6JpbMIi5GrYj9K1gAMCCb2DWq9tvrPuN/wSvxolCAd5yOLgwlK1hlnMVwKFjaQHqTOZzOnLev/ixkgC7YfNDnSX2DuNQj0fR1mlLvwfOqoJnhf8PHKUhRqn6XZeYk75gefbZtTmsEnydr5ofxdj8JGwTaDKsKC2VGliHchlD4nU4qYoY0tF1DW2WrSsiA1nCj9omyVL2PJ7dTX4cNFBGHDDQSOY1j/EAwnLd4nH4KT24je+Bk+JksWLfBydjhBHWiilfT5sFW1HMb2+vvLUR1O/3/dad0CQF/HwAZRtAed513CsgzHWCXP1FsJj89o8/phIgOBhMF8Rz1pv5EUiwXQ4GGKKjNt/k16L3ob4PYxIMe2DosEOzPPLI5Sn4FG7FwOsjAAK7HoxAC/AIltY5vwANsgnXPUfEWGkdYb7K5mftTX77xx9jCVD7mIbNnsBc62E+3A6ox3K5cgN6kiWs8PhA0KqHDcv6a6TDpLkls79d7G1gGWz9PyGv10xVplqFonx2BW85OCtAHvaTsQEwCxOZ0UIUWFhNbosXyiC3K7P9yx8TCVCjpIHC7odg4ciI/iPoGQ6rLfywE4Nfqtfq81g/8+/gw7xa3N5eR4JOsODhwoULT061Wo2TjUYYLczP+5hF/S5mMKmK2OUcg7OL2qhI7zMUjLyWwIKQMH8MBA5/UGPig6HTimkGhXFrJ1O2QWV4Kd8zmoKVzxEPwWCGy7ymfBnHemEayoP1w1ES47nGiPUE4Fh4jn60dSSyIszIY/qfqww7h7tYe4JtS/BhHCACoynOiuKjfBFnwFDX9jzquwp0stvBigtuccIxVydITCHbiNUTaZwM3A/jk4AZEhvQkJLRJASIAQrjCRCCh+Dgc7yPGRveSgLuY2lJBLe0VS7atox2pbmjwsXoWF/HOnG+OAhjhOYOHNf8sHQRD84AKBW46ss8RyG4bEAKY45EKdAoBaEWYSH4Y9yhQ9zcdD+MUwKUNQPBQmAQDKYh85yN1dQPr9n18EfgYIHYjqJx/ksWgWDWpOX7ReQ1bQxcgiXeEYDLUIADWcmBGQmsasarNjOIw+r4qMqbJMZfumvhHAvjWCAeWQgGMnH16naiEiVy/0/uEjD1wjqhRjF1ZMBj1vPwPn+sJ6bT9bOC6w7NUgdWMOOLxb42Fo7a0DDoXQxYpPBYO6NeXGYydEMOEmLVOjI+iBfgyuiaYMhqm4TEDHpJkGpsbm4GxDU4qN4YxyUJBjS5S2c/ww4JEBQEiAk8Zxx/BNLsLAavCJjFlwlH1qExDVhffOU2FWjkmO096YolTrCiJhWuXYupaR8KlQtHOrMghm+XCLqkQAQKC8FA24STVEtLl6QPZL4zM1OSjivHqHH2w/glwDphYONlIBgIGHY11CoXL17GTDhn5h0BDu+xfrggrCtQIzATnZG2a1nZ+nUT8x76PGK2MccExYL1kLLkj+sfsCgEL2RD0eB2UgiilQUhMRbmc5/7HLTLnHrNa16D36tE03BdCdeBUMsYcDGP/ZC/BAw4WC88549dDAHBFXNf+MIX+G6WwsJy9drXvhbrayrSFXH9M5/BFF9SKACOi8mpagAcWLEyuMJbEkkKnKzZa9hxQGIIFSKLAOFHV4AZ+uGAGH0UBFOrEAzUHj/7sz8rgPja176mHn74O5IJtQwX4LB/3A/jlwArncGAhY2UjRnvf6t3vetdUmdf/epX1Te+8Q0xGahl2BV1mQpcFxxrFhy4ikxh+xIMdgQs5tN9IMLv5mBlsmzJSSsJSoWDIhisnhdg6SMG1phwAsbWgMgrWDDM5YlY/KwWsfbzI7/4C+r6M2fUF/7qr9S/fvf7YuHgfTkuhZdz5IvXPcqyKAkfh2Ke8jwmljJLkqMxE4w2o83EQCGyX2ZrMraWaVnUeFp1czVbBYKmsNEq4HegMLmPjI89XqiVGa/zoIFIZ2UdookkHYUOIct9njNfXtM7Sn8Hr1mJpjwsk6lcpmM1D/pRhpRfOo25Zn1Qhvxxear5XQZIrkGzHDl6VN18yy3qP2CbMrwio/4RDfqvvvhFyQvbnPBDXVI2KQd9K6CjiyOLPW0LVgfWFXbaLDBP+N0oOGLgcsPSVECMCMOFoNWeX5iLsCKeSKWaUli7KVrj61//unRD9XpTvfvd/07ddddd6u/+7u+A4H8mUa4sl66IhaEWYoWx66KKPHhwQbSTJMzwh+UhYFiZ1GZsVYiSwO6SSyIZWHHGWcXysCx81gCLcTznumBqRJ4zPfMwXWnamcX0pEWVbwBLjctQrZah+uelG5CIDH9MOUmPwQDNnJM+Aczy8h5ly9dQCNxbbrlJtMsLL7yA3RjO4WMadyq8JKe+/e1/AU9tGSR5y9ZqxDqJYSk8pAQ6naMhe3MDt+VTr3xrRUOZTQqA3tzcgsAaRQgxQj9nsfU++uij6qd/+ifVL//yL6vf+73fU3/xF3+hPvShe9Vb3/oTCssb1N/8zd+IAF/1qlfAqJoBA+sidAKF60VZAVevrupztMAsgar2ArZWwvvE6oYbro+1CUFSkR/z/ud//rYA4OTJkzj/Z3X99derm266AWk9Acz3vvc9eb2CeRDUeEdbHTvWXguEFYOiLZgXAcmX8Fk5fCXjueeeVPPz81IpfP3j5Mnj6plnnhM58BrrQ/iYPG8qmnUh9SF3Bv8hUPkctWD388yDgGZjZTqWHZPBYqOQl9XVNcVGTlAfPXpYGgLenVJf/vKXpdG+/e1vxV5mSVl4RpMVBklUwOoCqn02O9P24oLiLT/494Ar0Sz08og+wtN4oamEd5KrVKt8KxBv9zXVv/zLv6j//t//UozZn//5n5d3gT7xiT+RzH7+5z+E7S5uV//4j/+IjZD/DULBHAFaKkFCZjmC4jWZMxa8PDjiH2o59s9f+tKXJAeC5Jvf/KYIihEcDRAMpIU3EEVw1IgMtK0oyO9///vSbVDT4G1AaZmSAH/ILyuAjQRvGArY2DpZMTQcCRhWAN58wMhwSUaHeOFLNA5fz0iHboB0X6fTmnMDFAMWPsNymh8NVPL/9NNPS/k42CCYKeeHH35YRq1nz54FODhyXVJvectb1K233qr+6Z/+CYB+XuqBeTFf/KcmwVpdVYS4CBb+8NIWwo59U9k16u6Rt1nP8r0cqNUIL4fZ//Zv/2bfeOMZ9eEPf1hRIF/+8t8pc03r+uMf/2M+pz7wgX+v2HppVH0XNky5XISm8QQs7MspaHYPtCeyBqrTt771raLJSIvDRFYgAc1zVv7rX/96uY/XOhX27ZfW+K1vPSykv//9C7A9iup1r3sDPM5HwLSDFsgXcnXQby8UoCFmJf7UqesBIF899NBXUUl47wkNibxghby8YUmeKfy77z4njUlXgu5CmONeABKTlgPBbH6MMCBhPgTSyso1kSOBzEZ49uyt8sIbgULNhtdWBfB4O0PkzkZLefHIrdXS+aF0NPYwzUPtEhIoCNh0Sp+YTTehWvRwHeaKmCq8LWmAaBt7qNlUu8z8b//2K0DuMfW+971P/eu//qv67Gc/L/YHuyQi/D//5z+UrGnDEDC0YahhGBYW5kS4ZJQtlv1x1kBhzc/Pqre97W3qO9/5jtBjt0DwEjDs+tjaCBrSo4Z44xvfKJqAo7fvfve7oglpYxijlP29CSwnQc1hKO0B8vSOd7xDbAJqM3aD1JK0HRjYfZHGd77zXekeTD5pkPA8fW3S9DoajcJ7pmJ5TvuI5SJ9Ng52O9QYy8tXhTfK4BYYtwQQeWT5OHwm8MgTtSJtLZad+cblgdqCNom0RgFMQamot5JK7+WLzASrfGUjDkSWS2ONBKnuSYwt55vf/Ja67bZb1M/8zM+IwfTXf/0lsQ8+8IEPSCX9xV98VrL4qZ/6KSD9rPrLv/xL2BWPmnylv+erEnloFgqTgRqOZeTrsVT/bOnPwn5iy2cXwb6dwjuKEcKpU9dJGrY+Vi55YSAYCK5/+Id/gB32WfXf/tuD6sUXXxTNQcAxUCtCttBEr5N40qfwCU6+Rvq2t71F+KOcfvCDH8gz5k83QLqvTbr00VSmOfIZVjy7GdIkaNgIyBfBDu0v5WJdkR/aW9QiBBLLyQbNZwgUKgCGdDnw1jeQo0vAt6IQtFdWR+m/HEZR7LHuYSQ1C/Zp4953trwSSfRy3P7Zz35WkElr+4Mf/KD6sz/7M6n497//59Qv/uIvqk984hNS8A9+8B4xhInmL2LIRmbouGNgH0pEZw0EMjQfGC+pN7zhDdLS2PoZ2D1wdMMKpUBOnTqZkCOwWLkGBMQc1TZHDBQoDVMKl0Il4I2hao6c5mD/z3ecmY6gY4UxsBw8z0NzGpAwXyMvypOypAbj/TNwW7AcNPRZvttuu03KxFEQy4bNGYUPNg6WizJjHjFI6F/heQwR2CHQGE7BiZ1zDYygu4JoFvRBfAcdC5v4oNQk+kWb9gZfMidhWtBUYR//+McxXH63uuuut0Pg/7NcsxX/1E+9U/3qr/6q+oM/+AP1J3/y/6mPfOQ/yrCarYCGISvuzjtfgxav32OmQNlayQCnCwBOuaYQ2B0YzcHiJvx0lZ2XtE+oejkkN+GOO87KKbr25GjO2dIYaPNw3oTCZ2VQQ5lA24RxsTClhVLIHH0wjk4tajAGNiQGvN4rLZZajIH5poPhgfYGfwyMM3RMvDmSBjUBf8yL4Kf2I1AoG9pgHPHQJuEojjzTqKcxz/p49atfLc/xPvMkLTYiahvjlANPFrUVtS/kjm2I8B4k3gjFakkB0A6woNLolQHEpIsSsCBzixmxIgiQP/3TPxXkUjt86EMfUnhRXgi+5S1vVr/0S78k3Q0LQAD9xm/8hvr93/999clPfkr9wi98GBroHrFv2M+ztXKDQB7x/q20cLZmzjORCVY6BWMEZoTN6+5AdUxBE1z8GaEznUlvjr3iCFYKij8Kkkfmw2dYGeSH8fzx2vxMHNMOCmnavdIRfAzMzwRzziOBwUrnOdOyYbHh8vqOO+5IRmMEETXM2tqGwnanAioat5QjByPkk9cEBI1h2jrUrF2hjny1RoFMcQJzH867zkTr+hJahWKJ7+G59jCN6prq+JOf/KQUioBh4c3cECufAPqt3/otETRHA7/2a7+mfvd3fxejrj/Htw4+oN773vdKC+HQleB44xtfD3r6VVAKhOBhZbEVsZIoaJZhkMCpfZjGlJXHdOh+tvsa3gHlYdsKj96FFBihXeGW0p5Yk78BCtOZOFbCoEDwDgrYR63jtsk3fWSDoKyp2Tn8JUDZoCgnVjwBcPz4cQEy7SRenz59WtJz2E+5sotlPDU8bUXmT366Altj/OM94obvU/cKkDkxjlvy4yiafgs60Fh5NJpoPP7hH/6h2Cqve91rpXLplCNDvP7Yxz6G7udPBMlve9tb1L333qs+85nPSOt4z3veBRvmp0UD/f3f/71okdtuvRlMB/I8C0+BsEuikE2fzKKmKzJddAqAjJvQna772qTrdUznw/t8lmAw2orXrDQemZbxmY105MO8zI95p0Fp7AvKghVNg5tdCxsvNQifo7ORXQudpdQk9HOxvjgKMhqFAKPBzzLzWWpwY+CSVfwSIaIMyFY2E0F0D5sFsQxsxqYpkIWIFclh5Z/92WdkBEAAsCB/9Ed/JMbsm970BinoH//xH4sgqS0+8pGPqN/5nd8RgLz2ta8WBqk+GQiqu+++W4bh4kiDcDgaKRSqEJIeEpIhCo0MdaOf8QzmaFq2uTZHSbSHP9wdAZ200KHgXZc2CtcT6zU6phJ5ZDBl4zXP08PsXuTMc73uMY5zP8yHlYkpOvCl6VLDEpjUHKxcnlOTUH7GluM5bSY2GKYjUE6fPi0A4QiQebLrYVfGKQDKho2d9Jg/j11BmNRlxmaHoOk4GDrjQeuhhx7SEsBGbbBwwD6S4Q8yMD98x4at3Zdh56c+9Sn0ly8qAuT973+/wl7xMtN8xx1n1a//+q/LiOfxx59Ega8TXwYtdAaqSP4YaHgdO3ZUvec97xHjjK7nr3/9m6JdWHY9UdcUwXRXPK+7f2Ta/ChM/sw1mTXn5si49I8GKe+1n+N1e/U7Bdr9YyWYX3d5hr2mJjU/7HAg5ywP5c68SJs2CmVJA9YE3qe2YWMhSNg9EVRMQw1CLXT6tAYOnZEEFkds7JJ4j9ek2xVY75hFpMLAf/AJzdKjG0K/DYhgLhX6JxUoWA5LiUgaUBwF/eZv/ia8oneKkfT5z39eNACH0e94xztE9d18841ifJEZBmoVMscWTKav4Etg2ItN/eRP/qT68v/4H+IbYMu48cYbk1ZDQVHFU4sx8NocTYXwmvd5bYTLOCKeQuaR8SbwmsEceY7dwnjoaGV8xuRH/k1eTGfiEwANtm87aPH57oB1rkkUy0UQEgD88ZxDYQ6Jec4RlgEp01KurHDKgE5DNkg9UFgS+5Iax9gsBBGv+YzpOo1MkwKgreKcTjkxXlFhvOoBlhbUEgoAVaglGudAAqxkEqCXlIX97d/+bfXRj34U2uFdcs2JQxqzLCzvc/hLZiho+lNMhdNhRiGYymJreOUrXykVQFVJRoh6tnIGGr2MZzAAMQyaI/PrvmcqknR2A0u9poVtQEfhs9x8lryk82I5TH68z3vN1uApC8Mrn+0VuFyDeRqaLAdtCdoq/LHBkQ61Dfk05WQ8z1k/pEEHHK955L3DhxelF6A82cjZdRlNz3PKjekROuobNBiJd0TEdRLV6227JCl/hKEzygKtIpolyUBX+JYM0WhQ3XvvfxDHHB1xtGfYJ3LiCuWViqWAGVjhZJJqj8yw0jn8ZjyFwRlR5sf1MFwL00Alnb7+enUbRlxc+3IrHEtHoTa559wbYAfN0CADeN705jfJehhe/wSG7NgoRp2Ej+M1WAU2j6HgCRh7fJaVcB18EFzTwfUeN6Kch9G/T6GlvgIA5TN4v1e9+S1vUoeOLCrXQ8u97WY1PTulbrrlRnX7K86qCrb8uv6G0+rmW29SraCprjt9Ut1w0xlR1GduvF4dO3EUNA+izHfI8eDiYfXKV70G5a/K9dnbX4Hyz6hyZUq9EV333PwB8HtE0he8EtaYXAfj9BS0gw+j9bXq9OkzAAQN1lOQmYMJ0Eeg0Y9Au9AnQqOfDYPGAkGsz1kHfJ4KlOds2OxaGRjH6RBqccqbJsQUysP5Ls5/mXRMyzriD8GBruWuizIIgngFNbzREZAU3VBi4Mo92hBEOPtFOn/okGLfyB8rngjLEghGoxoJNIKKLYMg47nRMmzx2u7Qhh7PKRimZSvhfapgAtTkGTMv+bMFUjuyrzYtkOVmGrY+PkP6zIN58dz060zDMpoWzvQsH2kzfna2Ks/QiKxU+LqVksbFFsw0cQuWvJlvunyUH/PDm59SPtP1shym/JJhnz9Mw3LxaNIzTwKFGsvEadkljjeRZSrLdCVOoXOhKcIfQycgLIvrWTQ9pCC8TEJJTcCwQsg4QcN+lE4gU5G9AGMKKRmk/pi05sg8KHACg4LkOX/UPqbiyDgrkGn54zkFbgDCsrFcfI55UDBUxxQi6fCcYGHlkwdESx9vykD1TMEa+syXebJMPGdg3syP9Gkf0I4zwOZ9xjNvBpaN9zi64ZF51fFNLILCgIVlMmmZH4otz2swWwnwJdGAPyyT+RmZky/KjOXgPQaCkGXkCgDKgjIy/HdnD+TwIbqgGDqNWMZoM1KAAtiIu5/REJK2GTiM5ViegYJlIUzhGIfyJcHEm6O5YQqXPrIyWHAKiel5zoonj7xHhkmP8TzyWcbxyGum4XM8pzAY0vFMx3hWEuOZD4MBAe+TngmMZ5x5jvF8hj/S4X1Dh0emQ7aSNzUIz5kfK4SjG5OWZTbn3WXV+Wg6TMfANN3ykxtdf0w9MK356TJpO8iAhWUiD5QrwWvK0pVd+xKjePjkoDiwBWw7Vp9RFOgP9cJbdoxxIAH2hRQ2DU5DiEzxnAXrFQyjvG9+vdJRKCYfpiMdk6dhNH00+TKdEQ7zYBoDCD7PPBl4zko0efMZVmj6PuP4vEnDfLRgbXmWgmXlM5Bv062YsrLvZxl4TVnxWeZvysVjmgbPmdYE3dI17ywHy8eun+n2EpjO/JiefPBn6DKOZTKBNAwo47guQiwBoIK9dHlfwHLXXXd11DTgAqr8136W2oQZs+WnCRpGTMGYKc/TwaRJx5lzk5YF588I3pwzHc/1Uedt0jKO6XlNGszLPGfyNfeZ1gDDxJmK5T2G7nyZzlQ0z5mn1hqUoRmu66MGkgYa5YOvhUgaAxhTPh5NXjxnmXgkbQKDMjY80BYzgJTMBvxh2fhjXulfOp6P85r0GcgbA9MjdFYadk1AUq60pwrnfQ2WhxKnnMTxDx+n9BO0cKU7MyUBCoZCMMJNg4eF0Rkkj8p1+o9hwKTlPQotLVgKTQtVP2nSmiPLwnNzZPqY6aQl8b4RPnPR4NAVynOmN/d5bnjieVqQPOePZWR68wzzxys2SRlIg8/qH6/0Nfkw9PQzWgPyPvNiesry/2/vvJ8sO6o8f+/zr0z7biHb1TIYCQYEkpBASC0DAwODi4UIiI1hh93fdvlh/4JGEzuxM7iAHyCAxa8CVgY3GmiBAFkkIeQtI9dqqdW2qrqqXj3v9vs5+c6r+15XG0Ddaqkqq+67efOmOefkyZMnT5qL8zvxcA6HPRzih/h+EW0BjgAPYSrKwp0BvWziLuK0GDvW0fpsa0ay9FbKbU5KFkmpoASH8jwTn6ZHVJI5hAU493u85N0BToYt5icfKgIm5A7BkgwIUk407k4U7jjuxPdK8UrnHX6HI/hDBYQKDyd/Ew/n+ouXT76kJS6Xw0i4x+E9z7zDEc4IiYoBVjfJh/LCPmTwJB7O4eOZOExcenkoxsQ9EgcMh3OcN0w5DivwOW2G0vKZAsyUDL6D+FGEAHEv5nh3XFs8OAe7zzAaPQWuc2S4Uwh3F5sU7gRMEpU4ECPkF1orFepxuBMHR56hzw5zIfhD5S90LcTzchwOf3ZGAV4nhhMCGLgIVzHmgB3n5QMLyjujBfIkP94RDiz4PQ/PlxZKGHHw64MkltYrmDTkR16k4RkYPF/upAN30hDHKxQ/H2ggLY6bw0Vcwik3mTfxiEN+XPi9XOLiBxdGZtDB8yacpFzE08UHIOoKbeodw0Cj2gCz9BYoKNMD7SxKsOxe5RSAuXC687UVhnj6JJBOlDdm0USiOOdA+SVu6Vn7F+3MLMfln1ctBWAWIdcQY8iW4Hueh7qhPvaSXkogRlmEkfqRlj2vVgpIgOgDWjCL9vAydA5d1KDOYshjiwjbF4mzLFmMKEvuB+ULJtF2ar6fYjrLoLnfSbLMIU6JpXdX3atTMc1Ea7H9NIWg/A4ouFEkFXdwpLbMN0uMX2ATq3TjjMA04h+TLgPMoolBGQxgKwsmzcD7JUa3pYquxsLwC4cm2JgajoFZhrohJkBbjPeJLDWHU596DpsA+4YYo2MbwE7h9hXG69gbcPixA/AOq+9CeLAz+Pif+7CdgHSEq1x7F/ILfuwDOPIlHvBwJy5isyc6LY7/8I4LR/yQd4Ax6ff0xPF4DofnTx6eH/F573GCrQN7EHGwbUBfpzH2Duww2FpIh10GPDFqMhGKwTGE+Xkvnoc+c6jpFWbhg82FPDxOoK0+d6cyCSMP6lRnGItGKdlTsOcwFaGFWXpPHtkss9ic9IR9K8BKXN67AxedpA6uACwToSIG1+n7PKSbyUrm2EiIoEBpebwyyAw/s5fcIS5+COkGJuIQjiPMHWH+zB0GcIbxuKR1v+fhTEk45RDOFRAL62At0XH84/QbxsFxAS/oAQOCLxeOsEDb8CU4cHa6cafRksZpAV1poKQhDwx7xHHrtOdH3sTzhqdH6trqW8xKJQgA7VhlYWWQLAtso4DgpLPoPc1iwAGQeMOAAHEK4g5QVDh+LvdzV5L++7ByK8wnkRcOBB0J4uPIw98H/0IeJONdgCWU58+W+Dj+cfoAIjTjglHcz3uenX48e1ynB3cqmzv05w79vAESn3S88/ohP+gMU+BITzk44hLO+0FnERRoS1j6ItJSXXddiNrVabc4scVgWj0lAeYlACqqIedLJpEwAAKgICF6GDDEIz2mbxwEIo47R8wRIg/Sgyhgk5Y8khdhpOPydJ7f8Xh32IHNGcT9Dq/TxPEiHD9pWZkIzZEW4Av+0IiFVtDf8+cd+fOOFQIwB3QkDAdt3U9epHPmsQjhh8jIFM3RGDOoJc+HbkinKBh3KCFLcHWkKZIlBHkGZEp5AElhDiDIMFkWJs+YRwlzHx6f9CBJH4sjLQjwHueM5oBzR2yG9AsIkkfod8kLooXuxxG3zI7jH8d3GEToyQVOOGiTxIl00AR9EefPxCEc2hNGhfOMc5pSNzQ2nOfv5XkY6RaBTYSXKqIqAjrF1TXW7mVFUjlt71HCUIsh5IBfBwjOJSpAw80A4wBxd25Nij1nKNIh+gCc9+RJGHfCnRCeh+cLMISFOM6EQfc5ANDjLAD8uHDuB39afahUlNLQiBxH4oK7Mw9xkc40SKcRpzggXciTMKc9tPS6SnYzlMWFC5J7UWYRkCGKfpXArLhh5bYF62eWmSIdXipGUtS+Su+v7c6aWJBkQzXAgSBbO2AekOQUJN4DEEdgADDrTAlHYpDO17qynhXkiM+6VNKDOGtRQZ5uje0kvCcP8uN9IGpAdgC4V9AD+DmjQCvWGVOpHMjDMw3QjyMJa5DDdxBYDA4tSQ+doBl+X9hNnTh9yW/v3kmjH7RkaSx5e91ASxzphxychxLJhKKm6+07xoFZ/JgwLdTXyn2TOYypyeGAXHx9Bkix+56Kc8ahUln5Hyq5auGEgZQzAOmIA3PBACBEfIjATgEYiDgQkmE6eft7iEAaYKhUqhZOPhD2leSoHOjiF7hS2dxpeNzRN9wP3mxDZTkr4dCPtJxhB42oA6cvjADNiEs57ErE73VCOvKHzjALzzDYkKProevQrHMaRdPG5dbJfSzyY8JCEsy8PVfVfdyRo5Wzop8N2ewcpFLZK4T0AAB2EgI8lTkxMWEEQHJwiAzI4OeQHBy76pzLN23aZACDECd048gTP0REmhGfQ2nOOOMMIyK782AUdkgCn0soEOcizP2Ug4MxFWzlhjhqGCIWxD6cowWTBoffL8ohfy+P99CCZ+8GKCOU3bXdAGxYhxEoFxyRqlQoe688LhvCoCV5cCgPtMHPeTLEh9ZeNmfCkA56cMIF4TwT1+OQH8wFvdi3xfEb5E/dTIS6otINR93bmbSYRNs9dAyy1raYZOmd/JTgFdvwwJJtsyyZKAJ/KxQCwQiSKCy1M8qBMIVwHcpBrKRzwnsYBD6Ug1C0KhYosQmcvpvWxv5djup6Od0wLovBAvzQDwfzQzcqkq6ZYzCgq1fyMC3Jn3fkAZ14742DZ8JhlKQjftKRP8xBXpTJ4T84juzg8KSyGmXPoYgw41zTxw31xQ4dnaMHwA3qs0fTnQ8JiQv0y5BooUQVouXDNprRMadFjZoy+mInShS2ksN3A04oL2qYwMME8nh+5z1SzUcFHCxEN4iYpaUeS0dFAP8wDoeCAUanQoGbLpfK5ogyWjk8BKVZz0veSVp4GdzDksvQMGl8xINZ8PtoExgWai1AxDNlMMAgDYxDXsrSXHJHospnz48+wRxVNMaSEabb0rZEWvIgs6iniDqZjESEOiJyEuwkJCIASdzGVZkEtd0zpUWa/SWXPhpSvIO6Yc53IniCYcnj4X5H1NMiITaEJj1d0u23327dk8c7WncqkWvYAccwLsNxeCYt0pCTEGAWuhGOMMGp/oyRvIxhZvEy9JU5Yw5nEO7ubzaD1ErCmPRDOxyNljReH5RFF1fQBkI5IQhj6Jx1m1Kmt9BBRvrVItT+mXJGhRWtTmd31JEGbINsp0xbDE9YLI9O3m7ZF+IBxJGCWQ7X7ycJuph/WPIIvgGHFKN1gBiMwzMnAkCEY6ngJitgAMDDPCAVHVYqCh0Fx0J4nmkA7pw+ziT+DI2guYcPP5Oedw5j0g/NPB/K45kyveEZjyi5qlXOGwaMpbMEe8smB7qh9so1nZFyvV0ygUIic9YtUSGAIREm3SfYQnpqi3UNDPMO5YaZwQH3NIercLaJsnELJkGcgjDKL9tn0WHQXY6mowK8EpLlgMcwLsn37ofJ0Q+Iy8lMKJgcU4/NhAuJ6c7z87y5J8tPhkNXriSzkc8wrJRPutDogq2KNMTjXV4w4BQF5VIKKbPO+ri7ggjWCGtQssTTk3Ez1dCKF/ssCCIJOcRFQXqWGUYfxOPrIC3JPaQJBVLRh+tGht8DeNLB6YdyHKgHc9BCEaOMrhDpbH6jEl4ON4zDoWBgmAqOHGCEggmzYCrgmFUaGg3AGcIrmvz98u6GMgij0okHo+Cn8SSd5+FhpAn1RVcWRnCu59iuBs1u47QNCJFXUu0UVeFZTRSwaSglId4/n4Wa687oKNNmQxucWSHV+yKIwsUsprWna7V6t1Sa705NTcaM/QEIQCHC4bqhJPAA7i7p97DF7ihlKInk47YGhu50Rd4dLpbupQpLwv+X5AlTA+/JJ58oifJmnXJ1tx3xik2ExuatnHK4oEvyIg60BlfeO7PwjB9mSrpheHnvdURDg7kYhTHsdn2ml16dvYRISkeyd/kUMzPQzXQ0Gfcli8XjAJ9Omg8RoZygMNmyOt511TJaKiSrjFMy6GRAnlbOcIyC3ZRPZPwocyAIILz3PhrljjBahHdniEHfqkk4eUI8GIR8CINwnFHCWI2WuFpnnDz//A7lFc7MFc2UX7AG41djEGEhPCZw9giVrQz4NKMvWxOOn/NNKPtwbjGmTlZIKJOWactALH/CQoUzcgllUQ7lXXDBhYY/BxmNjCx8tRZawQBcYfRX6B39tca6XE6hxLYFHUdHg9IKI4hEfQddacCEO1PxTN5IEeCGSWFYLk4XXasj8qE78fRe/VNc6LTbYyKRPgCv3kgjNytCs87W1GGWnGioyPYMMeX0K9mk043FiTkKhwCuXAIQHOobtDgxEcYAWU6AgnHgaOKQDkTckMbQkQvgEcnkCbDcyQ/k/PwzZzikCgzkDEf84S6uT7XjyAM9wJ+NaLRs6ALOwA5t3HoNI2ASgM7oYtyhH36XDv6e7pe05I3uhp+Gh58LP+lgOhocUoRGSNnYppBw0J6j2nGBsU2iqZJ11mwc59VMM1KD0WPCkRt+dj+n0qNm2fbVHtMosyBipKtwPou4L4PJHclCRWF6BhgKwirJxBbhxAEpKpaLo1EJc6WUdEgOACccgtCXE07eIIfFcdWqwDQwC+FupnYCQKhXArNQ6VzgAZ2QujhaOLTjHUr6mjUrzE8rHx8vGr2o9PHxMZMm+KETdIRm0ASVABrQgJBU5MUz5XjdUAccGUY66M0pUFh7YTifIzKAwo/qXCJSwloCUUseg5LroyGTwzKz6C1filePpdh6FB7CRD4xAIa4LK0CczMcCUIA6l0H4TgA4kKB4h7mIEI4lQ0yEIk8IB7pyAM/4hU/RIFx5DUdBaYgP/KidSgLcxCFfI53F2AOUsIbEDiix4A3OENLHNITuoEWtCE+DtrzDlrgp1EibYiDHwaEZrwnnLzxkx664mAULhz1ALNxyQ2d3W+9DoNmhIUJDH76TueLdTDK0R31A+XRQ1pcnKZSKBzEuHDeKgAUSYEDULgfRxq/qFiIxpCbOKQFScJIi598QQKHH0i8PIhHOnfkS1pgOt4d9OFiHSzS1PGETuDOM+GgAo48g6/jCH7QBRpy93ogLs9c5E868nTmJD2Odzh/j5/GTjhMi6M+DnSxvr7aokJ6Jz9d1YsSuM90P0HpKe2uCkaXscK8NXNHFAI47xCDOJ5B3F1APKxhAREIAnIg6sg64xDuCDrxyIc82DROmSHuAiMujqSXfnzckQhIEOoOXKCR4+4QQr9weGAw4WOGB18ulPXQ0AL+4Ex4YMCwfojGBn3Jn/fQD1om6wb6UmfuyKPnXLKQVjVkZhNJB4ZG4vA+s2zpRV9jd2MOpWQs0XvBWcrqn3pM4ZUMQAACZ+IH2HBiYmAemIK47kAM4BCLIMQzeZKOMOKSH+HcA4MsPFOGM6fDQtkJhL2o4+4OjMBeq4Wz8MAP5gFX71rAiQvH3ekBfTwMP++4Qx9/TqYljHydaTwOeQAH73Awll8W0PuBWbhU4ao8laUvKPLKuyF7iNStiefgJviEwSVx+DFjHFzpFcOdZyoQByFAjmfeQQxe+TNbDnhPGhCjleC8GwEB3rkjD5ClyyKvwDxBESQfHHnDLExmHu+OVo5uAO7gQtcDzZymXvE8O22cBqTRvG0fRWcC4uHnPXdP5/SCPpSBcz0F6UU4zsuEaXuuNydoy7Bb+sCUuFTA9njAmcXiYu5XBk10XCKpoIwqho9SSYsJJQCYX86xIIUfYJOAIDr9mSKJR1oP82cnEEwAAjjyA2kc+fJOya2f9S6OuLSMZjPEdSKRhnfkj3Pm4pksyRsY8AOPx7PIh/mhDNI4bOTjMB8qKWUiQYgLPqQnjLwI49krFngJxzlswEqcgG+zf3c8ScN74jt8wOa4MioiD5fq5E184noZyoPvDXW55CCqiTRpREQfNMp1OntIj7KibM2pvP7yygXW7r1cvr0qKYChBU6VlMB6L9Eue66exdIJJy6TOIH/jEESb8wbWH049Cg80yKSbvg5+W7ZfxQoAAuYwJAFRbqy/PBJbzS0IEkUptEKDIVj1wgajrgMkXMsHQwSrmNZ6nJZUABpwZ8UXPpxrgFmIU50YvtEhjaKZWLIlFwFwyWmHeu+MLTRw9F2zizLkuVoU3owf9qpQqQOaU5IKo3Wu7Htoi9ZLPaOfhpGzQydbU8Ip7nAJMecURycZWZxShyrO3xh+qyGWyZVDpQsURTYBWUfIaRf/qwrMs23px0fDZAX6+acSfx+NMpdznOAAqYshmUJUmvjmCXZWUkas/LBMX2nIZTqBafeKtSe6SuSL663sJAXCXNsFZg+hMueY0MBTSJqqKOy/IojzeQ4sxhHqY+Km81GyjohW8simz+H0WHRk/2lKvNjJpvWd/HgprDoxsf0IKFwsxlw70kiwy08h/cEJG0C2AmwBXBmCLPafpYId84xYe1HpcKkGt8JnJRNhcm3ffKzwYqvf7BeBdsCdh5WgWH9xTgooag7SxZbLczsGASDYZAxIBfTB6Th3eEctgjsQW5EAz9wd/zJT2hb+YwJmAPiDrzcgcHhpLwXX3xBhrL9UhHZTLbL0rF0lHSOVy4HbQLs5E86P9fF8SScMOCDrm6TAj4MltlsMJzyjuM3oHeomzBfBD48y6mafFAhRkil+NZQVvprXiouyAzqLKQw1zPKyS+JAiV1Cl2ny4EsgryvuywqXQIgi77qZb74DUMbBiPS4wcprLowA185I5xtH2HrRCp66KGHLB5ECjO0By8TIrwcDpgpG1ywknLx0XM2duFnBp0lAswIszzBZ51Zg4IBD0flw5DuvEL9mTvlHM55HO7u97T+rLw9I62QY1dQlFfJmsQzoRKYRdtXrSwBpXQ5pIknosmxjkxD505DMFcV46DNMAlIEikH5lAI+XwFxGE2lMuJxLdxWBzEtDwLq9gRyQ47yrjtttuMqZJlED4My6HKPpJ3yfySZXlaD6NsnNcfzzALznHECkuLplGwa5BFS5jhwfmJJ/7DGCngECyuxH8pnNMFugKmPzvsuidbtE+HbAAALN9JREFUlZpppN1FHITLSadwjdzjj3/MmEOiSvHr8oeslNTsK4ppOosKqan/wQTszNTPnIJxFOyFS5gZQPbiMD+0NBgFwtLiWC1HPnv20OXstdR8TxqmobtiYRV+trTyjWMIQPzF4PCww4BwRK8dN49M3lzD4YPMEtkeJ0zujz32hDENEhIcWBEI7ODM+pNt27ZZGHNHoRbCcg7K87K87D/3TnrK4sItBnciTySGljfpe0JSRGo6mN1YfsuWUPmntE5hPgg8GWljksO+IuaINecsLmL/kEmZRJYJLwRLVpojm4hyUC+tjD6Wi1Z22mmnWItjzSkiGkKz0osWydQ9XdaJJ54QfeQjH9HzwgervABg8QqEKH+tS+bneSXzHS7L43scJAh4wdi8Y4kjDOEVB/7sA5+YmDB86FpxMBOMhPO8/G6BR/hDGrp0nMNKF46/l98AkRQObxCmuxGwPzdEYHeHdKFmtckqOfU6JjyMB0V2ZIvNaytcfEYZQ4cX9oCgcFwSIQ+zFwf5YRIN6eIKF9mw1YNVYGweR4rgWAkG47hoX6OFxvv3h0XIw1l7uUlYhuO8FM/kT1k91AeydDhRMFkdSMWz7hjF29QBU+DD9x1ZNwtDUYnPPvusrud6ek7YkEY5jovfBwo7xIPDkYxCOeSz2LtEvJh4MLVJlqi3YDs7vYc1cn2FRTlx2o9UcDtywax0Ioi6JsoYYMQ+EoFogWEocDheAogBL9IBscwib9aR3nvvfSZlWACOBOE9DoLS6uiy3FEBSYlGuMPB/Uhh8PwWu5PPYm44b3/28v0ZSYhOAqxIT3e8pzIKhXx/RhgFl4XbMAwMNqyzeJ6ex5HcnSFI6+kPzSxigwTONugYKOgEq1yaiTgB+aJ+KCSAUlrtzXR2PEJ5eh7kFgU4gcjTAcJ/JI60LCKGOZAejBBQZM855w0aGYRvDU5N7ZfoDh+CZBjM4T4Mp50QXo6XfbAK9nh/7j2JXzIt5SXLSvo9HicVIFGQnnSroSsN64+JryxsiQJMv2LFuH07m4ZDfB8lkZfj5vlyX6y85Hv8ns7vhEE3npNhhPec7A+mq1L3gq7WGzr3zpQjUlvspkzk4rS+Yp5mr2q73eJjz1h0USizQoJ1D9Fzzz1niqgP7+g2isWCiVI0fyoT7g2Ka2RdiYkzAel3xDOSwhfnsKCblsc2BXYKcPCegLGhJBvJeaarYociDOXdEuIbpHlHnhCQrs39TtDF7h7WI9Kit+E4TmQntJcLXuAMzFw8619bVp80Olx44YVmAvj9739vsIIjcNIgkD7kx6kU+XzYPkO54MgeKWiOEkwc8qVM0kBfwsgHSUS5OLprBRs8PhTftGmT7Zr42c/+zdKy1YZRJo6yehcqR0v51PUt7P7KqJDrVRY3ivaoFxUUOioXUy5rszTjaNtdMwKkXcgXYo1SWqqYLoxCBV188TusIlHcUOIAjgoCCcQnfgcUpoCJQMYBQ2nlEBsQvfnmW210c8EFF2i/C4f0BATIAzGIww8z0doYJZEPSuDRdlTGX+qAkW0t6F+ve91Z1hDoYu68807LEmMdFQ5taDTcMaChj73zne80aQuuSBnX16AvTEnXDT1hJOjC6Qwe7g2QkSWjxltuuc0a4BVXXGHMRuMmDvu4hpzY20a9TbGDuD8MgAKzbAkPnfUnCC/1QRotiTZ6ZwpwTk86w7I7JhbKnXXma2cEDKupbDhIS2e4B4Aghtu+fbvd0b6pXPpqHH7sJLQIGMi3J3B0BoAT70R92Z3WhqtWQ6uB2OTPYmaIBNGISysCF/I81g6Y/FqsbN7h/O4NhrCJiQmroCeeeCL63e9uMQlMt8qyS3QyGgbShM3yGPHojnkHw0JDcGYkRYMhHszFO2iEZIYeNEwkxp133m30vPLKK6ObbropuvHGX9sW2o985MPGaOwt8tEWsPUcRZiNTdmGcbZemJ3lqquuotl0U/v2xLa7VVPOQpXymXVEwnRabW2l0wcWZ+fmVgm4NBUM4Pfee69JBWwglPDkk9uslXDADqIVZOircTAYFxVOGOlhNloNAJ9//vk2PCaMZ1fsaDm0Gi4IQDgEhUhUBnkeCwdBuIYdMBzsHXH9PTCjq9Ca3/rWt5qU4EQF6PF3f/de0Y3KDlt3scPQIHRuhRhlxE5qghGQSFivkURIGZgQJvFRFI3OT2jgeLE77rjDGOvcc98cXX755VZfMNO73vVOs4Y7bEmcFAaDiFlslX+w2dPHEGmL/sxJwRXhzZQmKEUVdrPad8Gz6pm0bT4aeeCB+3KqJOwxBhQFY76G8++//36rTLZGMoJ5+OGHjYh0M7QSxDAXyL3xjW80ZqF10aXxTJeE9IAhICwEgWmID6O4NOFOCwQGpNSxYJbFmASaQeykS8bjnb+nIeGoXBRc4L7kkovNtkIF//a3N4seXTHAqElOGhI4wlhzc/Om2EPnTdI50FvIh7jr16+zLg4Ggamw1fz617+OnnlmW3Tppe+KkCg33HBD9OCDD0dXXHFZ9N73vlfS7HfW5dMI0VkctgQeICWAQc5GNfIXeic/0Q19NhIQmFioX5qP/WLGkfRRgrhrm4Kk3GboBmgRcDMHA1IYBwKSDAlDi3/ooUesEt/+9rcbYR544AGr3ImJCROtxIGZSIuus27dGiMWjADjIT0oB6Jxh1lwvIfQIAkTcYH0y+lgCHA3si0CCO+B2S8kCd0Eoz/oAS1uv/12wxEJw8iJkR/5IWGIy3GmK1eOR5dddmn01FPP2IZ27DCnnz5h6gAKM7rbeee91br3a665JvroRz8qCfYW65puvPFGY7CLLnq7dVP0CDRUaOs2LAdd5cIssrACuJ0rCKcfaFjrJejpLLakLqO60Cp/OxYsL9Gm55SNhpifAXEkAwjB+Qxt0WGwldBVoaTRcngPY732tWdKWoTjsmAELJkTE6dZsTACEoUWQstxBqErQwTTTyNtSAfhITLMBsMcbbcYM7jUOJKygRcHzODA88zMnCmedBcf/OAH1fofjK65JszTMfIjLpUJ3tC5J5xsszsV/Ic//MFGSTAAdPzRj34kPWY2es97rowYdX3ve9+zURgS5pJLLjEJc/fd90gJPj36wAc+YI0SvRHaLuKw1plJXtRFfxn8KojOa4Gb5WAiG1ZTC1zCL5PR4X+cAGQShW4DYjETTLcBI1DRjz76uFUmXRFa+P33P2iKKDPHHFyDPsIoACDRUc4+m+M3mTALR1epLHsmby6YBmah+0LaIHWc2BCS6+V0zjAi2iHB8G6USkcSwuB0MSiY4MgoiVEKDW/r1l9ZXt4l0SCQGghQJAzhSGy6o61bt5qe86EPfcg2un/pS1+ybuvyyzdHmzdvNgaCKd/xjgvVLV1qSu5dd/3BGiSjILpwuvMhp9EwtpUOSDXrDM3EMAPye5otqpk0NhXrj1RbWJtIlcL4QsopVVxFEmBUXdB2IVYTon+jroeWgvKFjoH1EeToR6lkZlU3bKBv3WviEwCxo9D1sINxbq4UlSslk0L0eDNa58GAvVKdt/tcaSZqd5omnomHxsWVL2j/je4dtrjoThz8aankXOTFc6wGQn6NZjjKHD/xGYFwJ97hnDNDkjmodMKpTHDC78+E8Z6LNO5HKYVxkI5IDCQuDqmBdEDC0KX/7Gf/ZuGMDMkLx4CBdCjB0PMTn/iENdzvfOc7Jnk+/vH/pG7qsujLX/6yGLEk/eQ9kjLvib761a9Kuu+M/vZv321K7j333BM98MBDxjDUlefvXbpwyWgvVk4f7BU6cUkjZ1rkILOsVYgiwkDqrWxyyKmo0ypT1o+SMUM29A2IMDExYXfG8bQauiYIwntaDjoM3dHk5HR03333GbLYUeh/cUgGJIWPfCAGhEfycMGE6EaLOa+cxd4djTBnlOG8geOvdUgJaPiGN7wu2iyJgP+OO+40JmL4DIM549E94eiqUFix9H77298Wbbtihs2SIu+IPv/5zxNF5oyLTOL84Ac/kGqwx56R+ugsjz/+J8vX4Xd66p7DL1bRIgPJikxGBZYGmaW7Rl8FEZdoWUtLKg6MYn2ViARnNVWhXbofDD+ILiQGChiiFCaCS+HOp556ykQr8UAIQnBgDHHQa9BjxGdihhkLg1nIj9WbMBzMQtfDBRO9HHYUCH0wdzCmOVh8D/dK4Tnp5xlGYIadCn/b284128pdd90VXX/99bw2KUAc6AH9gsW3YUoyDMPI6Stf+YrFveKKy3Wy1AXRP//z/9aAoKqZ+dBFffOb35S0f8oY5n3ve59JNhjPdUNgogzqUH6UXLYmqvVG7dlZnWVrufd+VElakpASo3RkDaA67QzcqhJUpTiVxeG2fAuFCOMZ+gPKLHoMoxNf9UXXg0hFCXteZmpGTgCCbeHUU0+20jC4EQYDcYdBSIc04hkkUHghjrcoElJRw5VF/KPtvEy/e3lHWvbB4hHO5bh6xaEDotMxULjhhl9YcdhhKJ+hNGmISzfOgIDuiwb3T//0v/Qu0vMHzDL+xS9+0fTBD3/4g1YnDKOffPJpNeyTrKHTkGGOpFPeVWXBbngNQTvGMFIrBplFhevQ9oxWpsass0Wy1CVl5qW6lNKZzIz8e559dtvMI488IgFQs8qlz8WOgv7x5JNPmpQBUZgHiYNNAUIw/ufwPVoEyLLe1E3XMEqlXIv2T89Gk/t0+nRGZ5YURiX/dPJANqfzwCXgpHMb+6J7Jy7iJJ8P64cqnn7Yz/Mh3MEYhYo7Ukdcj+930kIDHN3uCy+8aF3w5s2XRBdddFH09NNPy3byG3sP3WAS6E/3TMPFNoUE/+QnP2lS/1/+5XMWFx2G9J/73Ocszj/+46dsIPLDH/5Q3Vw4IYqIziw0XHDURf1j8dSHHtgcbz0MVFtwExMTna5OpHRuUiJJki4boCeFRFULcauai3hax0uVxQQtuhv6S4xpTz/9rClrSBTsB1hlEatIBrou+l0cAEEQLJkQy4eFII9yzMgKSZLUU5AyIDHsnNh+H37/Uj4vVj75U/aRlp+Ml/STD1KBRkU4ehxzbTh0ProZdEBXeqEvNCI+I9DQlXA8/aqI7gXr+L/+6+etS3v3u6+wPL7whS+oB5iK/v7v3x99+tOfNp3oN7/5jfUQ6DgwK/oi9aO75ALLZ3Ucu9ZfazEI6sggs0gJp1JQWhS329CIab+04ue0knzHnJaiS0lt6oTEXWe+9qzf611ZksOWXWIkoqtBkUW8ITkw+DAkRMKw6o0hHwwC86CjIJG4ADI5zodhqBi4HSLgIIw73iXdMNGT746Gf7j8l6oMGCTYkcICdGgCvWhYdPkwAY3zpz/9uRWJ4S7Ez5qUIR42ltWrV0Yf//jHTYf5+te/boMSdBYa9Xe/+12TKNQH5cFs6JCMCqF1gmE039PV/I5NJna0/4deJjBLb27IgBAxqI2WDmVvddvtkphsRsKplCvkn1u1csXOUmm+2Kw305tOn9iucXoNPYN+FQ0bnQXLI8YlKps+96STXmOMgujkcgahJbkNhTDigzDc7RxOfBzhuCE+sbBj+fPXMMrBmJpwLvQ/KhAFl8bEM47ZapiEdT3YSWiUv/rVTfYulwuL25EuVDxKLl0SjPSpT33KaPr973/fwv7hH/6zpYem9933gNXD5s2b+4c2J+muzDmTHyus9JUwyFHYoGThUzX1eoPmLIHSzDRaDfVd0ayIVBHTxJVatZTJZeZlcWmvXrXy6fPOO/9PKqThRjMqHcQAHG2cfpQ5IUQbCMEgSAkuJAhdD8NwLLwwBC2FeDAOXI5Oo6SWnjRUlqcnT54hNH7SeIUQzkU4zsOJo2BjRg8jDnkeznm5ybhehpdzqDyIu5hzWKlE8Hd4gI93KKDQCcfpkthR0AN/+MP/J7z4BMxKpSuYxEYaeQNDt3n/+99vOgp2FuwuTO7SvTEsR4dk/g4FGdpTFmVCI+HIXjF2cmhJpRb3S3hE0S5nli0GDHaQdDpD12Jip61Rkfw1upy6rG+NutinUZ/Wxqd5NiFlcvG0tOSpU045pcYo5o9//KNVMqMeKh1lFuBpKRDZCQCjgBjhdEtHQmwDcAn/MASGmTAjYL3FBvXLX95oFIFpnMmC7sNJ5JGNPFnegE6C/ujmCwYk9AJ0c9QDEm3IsWKLFWRNCYN2t1Zrq/PozToHXiGhGVk0DFHTlFFOjVdAqFgtiJJBVXaQspinofSVRr1Z0Ui8PjY+9sIpp506Le6sCpGG9JZ2mD1uWouAIUAERlE6YyYYC2kEQ4E84QEUWvjwBRoexqjD/X/pPZnfsJ/n49MxQKALoqG96U3nGANQ+T/+8U8NYObkkBBIdyRRuRx2BDACZe4J+uPUsDVx+zrFDasPqRvXDS2CfhRXdZ5CLut7QeIVCQ/pTY2gDKg/IuLmzZs7f3j4YckSGMSMMhIgeilJLY6tit10VnhMBlm2l0phVreW2lcs5FsnnviapqRMK5/PjWmeZ6WQktDI2wesAAaGcCUKhBGvjgQicNkdngLQDIbAnXvuW4ymLEe46abf2kQhXQ/dNxdMQNeDpRw/a5tpuG45R1Lh6OqDZEnWgWpEbVsr9Fva9azVcmEBFM0z6bq5dp6RkJiKoZP0HOmb4ptYlc3MM5Kmpo6spE8TzZYrlTl1S3Pi2d2jo2MPS5fZJo4uS+mdUSaTitvwPhSAEJ3c4XL0GhCnj1x2h6cAE6102U7PqanpaGJiwkZJDChuvfVWywTllq4IunJnZEpDpQtzRmFiEfpTD8SDiZJObRelT6p2LINsXOt0KjZ0NjYNYieIn3vueYw+o8n+IDGNDHRhGN2s13PiPZZApbKpVEnsVtdnZOoSLQUhoXw6q6emp5E0z8mQpniZdWIebDOrZvfP8i16M9Ix00nXA7cTxt1bSxLgZf8gBaAVle4KNl0QFnLWq9DtsF4IiY2lFosuTAKzEIbNKqQPx8SSh4fxnngJh74qdVXW21jblTvtUr6dZdAz+Nk7EjTz2nwoU4f+VM9EJq0mbrOZTrvJV8y0HhcLXzelHYrdtjSgOU1h1zv16rZao7a+qL2lAmaVJNic4qqs9oSGyGcon3EsuihWLF2AQUAeSbPMLJD40I7KppJhEKQMXRJDZRzLP9BV+MIHC7hZgYc+CCMgNVyCePcEc5AXTEYd9OrYAaDu6+1Oe4c87Uycboys68wrj8GPgAugWCu2tBi70UhpdTa9kbY20/yreX2eRevykSAax6Va3bjVlNUu05EiovvTKlBSqLFD20dOlH9fPl+crNQqp9arzX3i4o4suq+fmZ3NCbgMksWZBT1muSvyejr4HX0EuxTdEB8VxVDnjgrHpsXIhslHuicMb7Uax5FwjEnDpAfMAtO5DgnDDEkVspSyKoOcNFd96HBSCzn0QYZ1puAM6Cx0R6rYrj7bOvLC9ufOfOSRh6/Yvm37xcq0I62loVUbKXqeRquWbTebDHMa0jh261D/mU6jsTfT6T6V7jTvma/M/6lUmX2qXqs9otH3be1W6/5cNrOvMj/fXSvOZw2MejMJNoElyZUTQhABpOiXYSSQAlGigRD+SqVq72kRhUJYpkgabxkgj4MYzoSkJS9aFy1NN4tPmDuIHM6GWfh2IO+I73n6M7BxkX+ANczSYkyjeMQ/IzYm/cL3jyiP1CkpkyutovnGEWaFYpEPdbPfR3YSwaluXZJfQxDdq3QPymNEukagk3ZjYncSY9QlWfZKSo/LcEd83me0AHajGGREo6I5rQcivMkgREZYjkLgIo6sUvqKh/ZUAZ/C2jr/paEzYnDgKrzifXv3je98ceelMrBeoXqxtSy8D6o1vgWHvf0n+UL+9Yr4N3v27XmtVvZ3JjZtvE1EYp6oIoNdLDkSqwKlADX1QdZqI53uzKT0PSoNn/TpvOa8Nt1Pd1KdScUfAyxVaFnxdQsGOioCotN3IlLPPudNxjBUAoyBoyXgYAhaD59UwU/F42AamAHJxAWyxEsyHO8J40JE12rhGPMQV992U2U445Avz8BGmOtWlEV6RDtlOgwoiVhMeUeXUK+3rZtw5iU+cVHpyBvJUC7X+8xKPHDFlEBF4qdcpwvlEocwYPIGAOzk5+WA786dO8xYx5QLJnwccUhLPJcqhBPGxXvK4o6jDOHUrTfq7Wwuoy0/mZ9s2NB+Wu+tZYm3Bp0se9WxU099oDha/JYI/R+a2MvLYvhmLZzZCLKqk5oST6pPm+zEnWmtitL3SLLivnxdI/tGO1eXnpOeTHebu9uN9nYx1l4RbLeuaRGjgfnaAYXwuFCJNSM4E4lcMBHv5+fDAT8QCgfiEAsHAUCWi0qhoiE4z/ipRNJRacCOn/ROPJZJOAzkx3vS4Zw5SIsfpiNfHH5goEyvOAiNIw/8MA7MhMTUgdWUaZ875j2OcrySPA/eWYtPjFDIi3JpDDAF+AE/MIATDj90JT+McMQjL+7ATv7QCr/TnrhcvCNvcKEsMe4eSXu++32Nphx+EscnBcRUzgHMogy6q8VkJ51w0m8Lo4UvC7gHKtVq58UXd54/uXfybWUtJcDJcD4nhbakwbEy09qGzrymktqaLqhqFDWjg3/qs3qeSXXaM/V2fXshl/+BFNvdWqFVZtkgihrLGnAgzVwIhKU1owCDLIiMjRX6zEBcCAeSCB38pCEueUBEwniGKBCA6QSI6fmPjOSMKaks8sZBVFyo2MCAPJOn7EZGZM+XOwxE/oHQgeAwXT4fzAC8w8+dC3ipKCrFGY18cKQDNp7pDhXZ4gI7jgqEQTC6+a5EdBbsI+SLveTRRx813FF0mTAkDRcNjvLJm7gOD3ATBjwwEXFFp3qlXNmtskoaCF+vTwVep3oYWMl9QDekDJFJ7a1bt85vWLvh1l2dfXxi87/Mzc2eJwF2njJvj64ZvSEf5ZupdqpSaTQqxWJcV3kinvYsh140WimmaTRKlWx2zbSG4flOuvPohnXrvi7YPzM7M9NU1zMio1GOCoJIe3btNuKzXG7/1HSqWRe/tdpxZb4eZ1OZbqOmeLOVWJ/r6wiG1Mz0/kgM2J3dPxPrivLZXGf7tudSIny3pemtqX2T4IG/O7l3X0p5deuSJORHmPxxrSIdQaO+8tx8XNIl3amjNcapdWvXxlpj3JFeEBcLhVj7vbuT+lQtTKVW152empJ639Ry5bTW4MxYLSjPeGa6FOUy2c58oxQDazad6UzNTMXCR3BnOsIxHimo21MXbmFaHCx/d36upH7FJE+MziP8+CYlRrVYjNkR06YYAcE0dNnsjmDpAtKE5ZHQkF0TExMTQlkLIE0HE6wiNoyRvPPemQVGgVmRgPunp6dGRkenpMd8q1gc//mmTfdOEjfpDrCIaQY60tW9+uqrOxqKNdatWTPVTHX21svV8wXUa6TvnMoaqjibeTSbTje1Vkqas2wuMhqW42YnLmnRlCaLBb+Aasbdsj4coDWdsuqcPjpSfEZK3r0aXpeff+H5s7RQW/un8/NSdls7drzYWLVy1f6du3ZKQZut5wtFMft0LENeQ3us5+fL85rISlUbDaYrRM1OVJa/I2WZvfzzutosmZCdp6ZW2RERBFumpDhdGQ4V1CjN68ux1Vq1rmFmU11dU5UgS3a3KvuQNuxGZY0AGzIodkVMlpBWmFEXvuTPx0RbmUy2IqCky+uUxlQ8qwqNRRP6lTJ6oGbfW+MrVu6bm5lNK1yiIa6ocvkCXFl5NDWB1xbzzWvmnqFuU3rhfvljwSZ7RZupFE3D1Fh41FLebfnb0oVqyiOt5xSL4KlYpASShQlYrvPOO09m/JMtHMZxZlC+FgZTqHyrd9LikMK8R3qW58t7tSIfzfznGsVerXXUL8bxGzHEDbiQciBo8EHwp7fevnXN3GT5A5op+JiWJ7ypWBwpja0Yv371ynVb8/nUnACodLtliQIsvM0G0tSdgMzm43g8Nza2Tp8cWYHVLtXunjQ9s/+jMvu9fu36tdNaCVfVQHy1KqMkk287o6VyahQacDVTallouzpFs1lUyxIhU7L/YFzUESCmIjSz+XyhqabZmi3NrZFEoI/VrHljtJAfQRlv6D9fLIxUao26znSVhSgV58U+GqBla/lCoaQKGJWxMa18ZmSAXpPJpHPCcX95vrQhTqU1hZGfqZTn142Mjc2r0irCc0WxUKzJaIAdae3IyNic8mzMzs6sf80JJz5cmps7DetlMV+Ym52bXVkoFtRq4vr07PSG1avWlFR2UTAV1DgmK9VKUZWpIgqyZURp8eGK8bHxtvg4L7GXWbd2fXnP3j1rtMpfO0FbGaQLjKItOAwabK6HYbLqyboTuju6GBzdMXFgHpgEhsEP88AkMJYYZko47JEG+zV1kb+YmJh4QXEPYBTyOyyzEEnWwpw4eFW1WT23PFf+n/Va/Q0S9zulc9yg4d9vBeisJHi30m1Xsq2sDRTV45NUSGiMqykI6QhYegtSL0/S5PUZI/liR0Pptyo8pxZNq0q1Wx3xRm5KhFohgIuFXHFftV5dpxoZV6XOiAHy0hDaWuKp4OrqXD4/J6lUkZ1nncpoFnKFeUmRUTEdfVhRxBhTpbPkTLaj5ph4ualDcyQkq2u0r6WbFtAawmZkw5it1uvj+rRsxfKu19cJHnUMGr7byva4ImYYEyOl161b/4T4ZZ0k2vqx8fHdtVp1nXbPjAgOfeCwO6IpEREa2LPVWr2WGSmMzperlZX5bH5O609mBccqzfYWdWiAGlZHhw6k6kpb1fTJqHDmWLYRNblRMUVHlvB8u9NapQpWQ8kVMulUXhNzfH4QyRUzMFA9pJgURDeDSZTeGAG9imeMdeguMIaHCX4bgWlqZg8wiWFukK74RTGK5pYP7o6IWSCcdJhcZ7wz0pptvbE6X/3v1Ur17aroeVlkf7lizZpf6uO/+wSobHKtdqVT6fpH72S3kxLdGNfckZhCZ3ZIyqSy2dVZ/WRS8RoIoW8hZyVlFE9rgsXi6OkJkPGzgYU5K6YgWDahxVmaCU+FDT/MT2jkadZlxUvrT4Yard0JG+VsFqzTRrqn2xlJ45bMh7pEy0xTlUa/pdRxlkapIjiXpKEKEMMJIs2cqjxFS7eVb1GE7Yrpq8oso9aZ1zoNWQmYL81oy6A1XEBnsNnHQd00XRuZMTIQcio0NFSVS3Q0Fn3uVFJYkpN95VJ9UkU1ooKk7HoNYzdIUm1QOUVg0SVc7aIM+xwh5+3qfchM96SfQKQMkgWpgk6jUc9OxakKru+syGb/78lnnvmCJT7EzwEK7mJxlSnjbMz7rVtuueURFfz9YlQcbbfaZ4tjL5mfmSkU16+/Ru9lb0k3R+NR9evqsgVgnGXIlkmLiwsalIyKR/IZzVx3061CW1ZhxdcoraFVeaZYYzPqE3kAFhkG5YxRRHsOROyLSiUQiGIdMY/uGYGrGqY+Ql6qcIgloZHrSnroKey0E8tIn7bZ0m5W+ooqDhtWrz+n5oMyKCCtLOGHuFSobB9q8vJLX8EOEknQ2ZA4uQI+4NFjfnoCJRV4YOU8oqYh5lG4kFf/qmOTxC/pmEWv9LRxSqdBdtOSiDrAGG4PX1ImA4XjLDPujLLc9QqxR/dzp+uBUWrV2j4ZAfeLhlcr3fdO3rRpt6c91P2ImMUzUIHtm2++eb6wqvDHWqn2Dc1J/g+Juderz3+vRN0L6Xz6SfpynYfZEtKdssbTuUysY6OEez5T1+ek1VIkU1RrqlHtmdZXj4AAgQLivQ7My0vepdyqJlWz0myZCu8Rqh8FYkhy6ILICy0LRkkpfy3VYvVXSuLeyrMWTXnWp7OA3Ajfz08eq1b6fOIQFenABDxB8IxJC8EP22R0GnYItdvAD3CFtyFYImTgmXzsEn/rqC3xZrAVSXfqiMM72VxaYjKlY9qQnpEJ7cAndPMBbom+gTKHH2i8MIvqa7dYttppx9euHVn7vQ2bNhwRo5DfoUsYLrH3rOEa33deMVuefWd1vvzpaqV+Xj5XmJIOsEsicwfAaGiJuVbSO11Ra9ZamGg8m86qy4nVHaXEK9SrGgi165hTCQqiIhSmqsUwjT7Ks0kDIBB9xDa9VIaAYiqUI8QZxtKlGKTkrmiIeC280cSnuLLZao9JR5DxK6dtDpEkob6Hns/XtTp0bS5bmFMetaYUYY1okVAAoeVi4n0qPKMlhjLlKDxHd6s/mebl6bS1QVbYoDub9FAieh6BQQ4m4wSfASWSh2cQx6v3pneq00npsHv11YJBJMtwH9UUXU6dFn5dnMaliVzRxMgXlsWCrDKBIIFxuPtFmfK3Vq5YOStlv6KIsn91fzqaLn7rjHPOeD7AdGS/gapHFncg1jfu/UZ24+TG8fna7IWyDv+30kzlXB3XKT5Jq7tS2xdEIqhwtPWcfHtRTjuQ9aUJRaJihYOQs3ODYI8+M0g2i8LGx4qtUhVFNwfVqkUprXnrrerA38MoOI8qL2Xokc1zEuws/+pId8y08rm8BF87q7djIyNFwSc1NZOdlS7UYoQi+POSgvAdQ9uC0kl9yMa0fPQWjSDqjJTojcQ1atfIF/hB3ZKKBQyKFgLmV/oEVLwFTFpGgFmkEU8H5qFQwW00MFoEMii9PIEysIaVAjXwiB+smcnDO4urNqUwa1itTZsmKpL624X3jwsjhes1JYDOYrAZMEfwcwACR5CmH0VdkoTwzNh0qfN6AXW2ltGwLEuLpPTEVgL1s7prXYManqzSsm5J2+VMQ7VRcQsso3CjQFrVqf7bndDQs97BKGqtFt7TNfATTJ6QBqe4YkG1bGis5m1O4eYTA6ABwF3q/9vFnPQqPeTnSrMXlKvltyhFUcPSmH4fI5WUP2wjXW3NZXgGc0jVyjKMx0iGNJENJ71PnendrWZnu4rUs6xLxif0WqhOgIPgEH78D8/DCUiBTrMJsMZp435IQgKdUSBFRm/V+tTK5EuZYqsTlXhlCi4JFQO+EXptaWoiiOgvPVDCCCrYojXhKp6M4hktzfyj9hT9Uksrp6zQP/MnQPpnJkpG/+xnP5vSFgW0q4y2saZlIo7L5Z3KNxwKKMWyi1VVfWXMsceaTYwzMmbJ5p7M5gB/piKJSxRNkJtbJPqIFA1/rcpFAmDBtehINi57UKSq9MZisZ2uVuNMPt8ekS2vOLVr16crjfJ/lQQcY+YXGwZDTBhGRGUfVFfTEm2Fpbh4r5EQ/b5GzNWfFUbH/k+tNr9d9VJWWRjyOkwKYjyjvrisfCmVld6zh0l/iA1SwYtfI8sAqxL04bbE7HMOOPEI4wDLSNQ7LIBbf/aG97JMK46YWoYXTSfoWUPQnNphc7S5fvqk8xbmenrZH/Htz1JwF8tVzEKLCBNGiQihtS8EqIUsPARfnzjDLw72bOKVVL2s+mK8l5Msz/GWLVvsiXY9nI+n14guLYPsapkxdhTT3TlJujH4CkZAujA/pc1x3Y2nbZxVX9/QupyVGkWgg6VUkdYNyRC8sqEJDVXKHi1prEAHz9/L7eF8ABz+/pV2P6AGX2kI/CXwXnvttel8O3/Crtmpr0k7uFItd7QudodZ+P4PtghW9LEElDNgcDBJuJraBjpZm58v7Tzl1JM/M1LN3X7xhy5O2Kz/EoheGWl6vfsrA9iXCsrTTz9dZtNCXurCSepyMnQ96sb6F909EgbLJzqKug67iBMkz0iKbkMp6tHalwqq4z+fv7obOv5RPBDCZ58tSqJ2dYJ4E6XRdBVEbDjSIhi3YBRb4yq9GOunRnomWbRcnW6KyclqLpfH8nhgAa/SkCUpWcbGtmuwgJU+stENE3MuPbijyCJRJD1MkhCRLsqlD4qs7DQ25HmV8sWiaC1JZtk4v9GUTgkVMY2so+p2kCQwA5LGLm2Xki3PwnhH9xMUVtaIyO6nNYcaPmfEaDbkXZS6r7LAJcksj0WPqeKLbVl7KqpxrSuvsVDdTO7UL9IFxtBQ3BiHoauHEa40XS2UEr+ku5rqWDLMsiR1FtmCOnNzzdrYyPjdWjqgw/aicyRFZOjQouwiiu1oRzv7NAfUku2mK7sMyy4RRkw/Z7B31QojOX3FqzMticOE4pJwS5JZLrvssta11948Nzq6+hdaAdJsdRvFUqm8UXYzLZHJN9S17NT6p+c123uWPhOcbYpjZNzJaBZIQiWDpXdac0rPj64anZTZvD/7/WrnmCXJLKFS91VHRk55UObZOSmrczK4vVuzuyczf1LI5K5uVBqTmuC7UNNdnUwztT07mj9DSyLP6qY6p8resn3VqjX/ri0ws+qWlkw3tCR1FphFR2m1t2/PlTLd1B5t/XlCUmSXmKDUaDYrM6W5QrvZqGhG61YtynxI29gaM/OljfPl8lqZ5svScbYp7v2crfdqlyZJ/JawZIm0wPpt7YmJh6cztdlnGqn2zZluek/cSZXrjcqbZMk9eaw9ukdzmJemW40RrcTR1pf4sajRek6r6O5otcpPSaq8akz5SaY4mH9JmvudGMzl3HLzLZpj21CQUBnVkHlNvVp+x569Oz/TqNdGNp42MaPlDCu1dPjx4ljxa9p9uFu7UHa327P70Xs8n6VyX9KSxSYiN3fb1113XVVTAHWdRsVu1BkdiZbVIiktNeju0IrYbVqVdJdGyQ9q3cuszmULu7+WCock8FzSzAId6ErkUFI79/37fbV9mdqeVavXPqNNa6WVK1dd34m1EjoVTWtisbRp06YlyyjQaskquCDvjqUN+BvVRle7mBsjhcKc7C27tSNA+7gz0k3az4pRDliG4emXyn2ZWXo17QzT0RlqMry1tWBtREsmJ7TXcmVci7OSPktav4NMy8zSYxZfNJXnfMWontP0TyufzsxmtV+9nspxevMys/RotXzrUaCt3bFhhb72M2k/WraZ5SjXrpTgZWZZ5pJBCmibFxu2tdBcnRDLzdssPE8vuWHyIFXC05IfDQUybFmgDTPNmPA1q6jVCs1MMVNbPR41r/z9x5aUAW6BIAu+ZZ1lgRbm00ZnG01LQ2lpk1GjVW01tAiqFW2xaeeh2EvrcZlZVN9beoKlvv5E2y+k/T7sV2VHa2s2Pds++7Gz2fq6LFmWVts4NLYTes0K3GCos3NfTVe56vGrljyjQLklL1lsrw+UkNu1bxcLmyRCECNSWbSjem1jbZc9QSHG0v5d8syCJtIfFp8im3+3kw6b2lPs1V7a3DGE/TKzDBGER+0nlkzRYgWdCcMUwCJRlmTQMrMsUu12nIFEjI4IWRYtCfosM0uCGO6VqZbzp+wsCA9bvi8ruH0e8IlEO82EJQs63omdiMtugQLLkmWBFlG0wxRc9p5pNkhGfm1AS75e6v5lZhniAJ3uxPlAHS3WXlZsh2izzCxDBOFRfMIJdcvMMkSb/w8s4CE34f3ZdgAAAABJRU5ErkJggg==;" vertex="1" parent="1">
          <mxGeometry x="1090" y="110" width="76.45" height="220" as="geometry" />
        </mxCell>
        <mxCell id="aZ0XZCeKC1_UifiNmSna-172" value="" style="shape=image;verticalLabelPosition=bottom;verticalAlign=top;imageAspect=0;aspect=fixed;image=data:image/png,iVBORw0KGgoAAAANSUhEUgAAAegAAACRCAYAAAAICiuxAAAAAXNSR0IArs4c6QAAAKZlWElmTU0AKgAAAAgABgESAAMAAAABAAEAAAEaAAUAAAABAAAAVgEbAAUAAAABAAAAXgEoAAMAAAABAAIAAAExAAIAAAAWAAAAZodpAAQAAAABAAAAfAAAAAAAAABIAAAAAQAAAEgAAAABUGl4ZWxtYXRvciBQcm8gMy42LjE4AAADoAEAAwAAAAEAAQAAoAIABAAAAAEAAAHooAMABAAAAAEAAACRAAAAAGdlAX4AAAAJcEhZcwAACxMAAAsTAQCanBgAAANvaVRYdFhNTDpjb20uYWRvYmUueG1wAAAAAAA8eDp4bXBtZXRhIHhtbG5zOng9ImFkb2JlOm5zOm1ldGEvIiB4OnhtcHRrPSJYTVAgQ29yZSA2LjAuMCI+CiAgIDxyZGY6UkRGIHhtbG5zOnJkZj0iaHR0cDovL3d3dy53My5vcmcvMTk5OS8wMi8yMi1yZGYtc3ludGF4LW5zIyI+CiAgICAgIDxyZGY6RGVzY3JpcHRpb24gcmRmOmFib3V0PSIiCiAgICAgICAgICAgIHhtbG5zOmV4aWY9Imh0dHA6Ly9ucy5hZG9iZS5jb20vZXhpZi8xLjAvIgogICAgICAgICAgICB4bWxuczp4bXA9Imh0dHA6Ly9ucy5hZG9iZS5jb20veGFwLzEuMC8iCiAgICAgICAgICAgIHhtbG5zOnRpZmY9Imh0dHA6Ly9ucy5hZG9iZS5jb20vdGlmZi8xLjAvIj4KICAgICAgICAgPGV4aWY6UGl4ZWxZRGltZW5zaW9uPjE0NTwvZXhpZjpQaXhlbFlEaW1lbnNpb24+CiAgICAgICAgIDxleGlmOlBpeGVsWERpbWVuc2lvbj40ODg8L2V4aWY6UGl4ZWxYRGltZW5zaW9uPgogICAgICAgICA8eG1wOkNyZWF0b3JUb29sPlBpeGVsbWF0b3IgUHJvIDMuNi4xODwveG1wOkNyZWF0b3JUb29sPgogICAgICAgICA8eG1wOk1ldGFkYXRhRGF0ZT4yMDI1LTA2LTE1VDIwOjEyOjEwKzAxOjAwPC94bXA6TWV0YWRhdGFEYXRlPgogICAgICAgICA8dGlmZjpYUmVzb2x1dGlvbj43MjAwMDAvMTAwMDA8L3RpZmY6WFJlc29sdXRpb24+CiAgICAgICAgIDx0aWZmOlJlc29sdXRpb25Vbml0PjI8L3RpZmY6UmVzb2x1dGlvblVuaXQ+CiAgICAgICAgIDx0aWZmOllSZXNvbHV0aW9uPjcyMDAwMC8xMDAwMDwvdGlmZjpZUmVzb2x1dGlvbj4KICAgICAgICAgPHRpZmY6T3JpZW50YXRpb24+MTwvdGlmZjpPcmllbnRhdGlvbj4KICAgICAgPC9yZGY6RGVzY3JpcHRpb24+CiAgIDwvcmRmOlJERj4KPC94OnhtcG1ldGE+Clwe9akAAEAASURBVHgB7N0JvOVJVR/w+7beu2cfBphh3rATFDWogAFpBtREUDBCRHEZJCSGBHCL0QQBFdcEiUbFNY5GogQIEhJxDSOLkCBqhEHQcWhAGAaGYbZe33JzvvXe785/7ty3TL/3ul9P3/P51K3617/q1DmnTp1TVf/6/2+vd3bBxArsrpS/QvFx9lgCYwmMJTCWwFgCWyuBs9Ex4XmY7/6IvI1Ifhj/RnCN665fAvrxVMFG+jj6dirpPVVyube0cyb3zUZ081T2X1fGaO5eo2P4+lTSti3aOlM6crOEhd/hQAmE1WQx+t6j707WiKy7FzrLc44dGy3rXbs2d0C+t+SsP8QNBolk3C1eyyCM1oO7oRmR0VGMTnJQcP/+zeV9gHibJK5ZpuPgcpzr5cvNiSA9WOGaFWR5sDfhNrim/dbPRVX2dbm418cTBw+uzOM117R7a42BUQiWxsXBoVvXDF2v7HBXa9O91e7frZF7U8bJG5ztK4VRPE0WuZMPfnBv8rrrljt7tievd78Tvcm5uYsmJyc/3V9cvGhi79656cXFfsORuMtqv790r5s3nO73RzigfVXqjgqJhytt9vVwO7lOvFJ77gO0niEwMbGxATwxMdEMwOTkUoztbjp6sLh4a9OLkf3bkdXw/YmJ/SMNzMS5d7Y33Kbrczo4RyVD16h7m5nXlcVm4Z2auivvm4W3i6fbxsLC2uM25T+7jGRyeutp7NIrvTjfnxjVrvzhsrk+L4mheJjn4euh4r3wL44Mhsu41t5auEbVk3dLhcmhvp+8daK/c+fU4tTUZP/48YXJuX0Lk/MnFifp/4kTM/O379uxsOMzOxanpw/1rzunt1gz7sW6ZUyJ79WwYqef4VzjK6E54ksv7U3PzfUmT5w4b3r37vmZ48fnd05MTO/tT0+cuzC/uHvnnp3T8wvz5X97U71+fypGtoz/Ym+6sJXTLY3YKnkFb783f5KSR+PdAd6uc8h14rvXuGvOcDnX4OTpXKp/6n6H5TJCviMcfFdmRevCxHzVW1hQeWFdtGcit+T8p8r4DapNlIb1piemB22Utk1MNyUblLkzcWe9Qd6IrMG9k0zc2a93Ihju+zvvnFRqC6geQUcmW4NbaXa1bkuZQaWeLjrDYcmhD9R9kFidrbvJb/Xi7W50fR1FW5HhNuh/WZSy09N99nZianJ+emLqaGXfMbNz6vbe5OLxmfne0ePHd80fOXJk/rzzPjF/7bVtIBpDGUf09V7nsDMw1yvb7VguPCRuDrkInTz//PN3lTLsn5g4se/w8fkLTxw/ep+Fxd7Dygk+uO5fUu72wPT01K6dO3ftPnzHYRPDHepV6I7PKEHw1+0thyjdehs6lbR1abqndHbrbkV6K+SARwM/s/bwnPie8NGlb6U0fN17K+FX5mRoWAnfevLXQ9dKeEJrF0fy1Em+vKRXwrVa/kbrr4Z7I3Sthncr73VlvFXtrLeNYfl1r2O3TaXmKhytnZvD0zumD1ehIzt27/j4wmL/Y1M7dvxN2evrd52z9+Pn9I7ffOutvaO7du1avO6660xB0BFa4FttWla3tz90BbT9qb0rhWgXdMRirZB3Hj7c29Hv7zpvcXLHJXMnjj2g31t8VH++9+jjx+YfUGUurMAB76yQdZW6wsT09HQtnJf6Vpx03RvDWS6B0gWKwUEb8F0jEGMwSkLD90aNtVF5o3Ctljfczmplx/fuvRIY1qXV9GK1e1spoWEatSWvS4/rBPe796Q54mM7du68effeXR+entnxFwuLc3993nnnvb9/ov+psuM3n3POdUff+97BWB3G4fqMgVEC247Eh87WcY98ZG/q+PHexJEjvaljx86fntw7ue+WT93yubVF/cjqvscXA59f4eIKVtC1Xd3vdR3wood3tZcCKm6JhYUFafkTE8vPItXrV1Hx0jZoyGhVBz9VqjTKPfqzVGYpLzl2cFJmUG2QcG+9sNQOvHev417yR1M63EpKhe6741y6k3J3bTftJR7GPnwNy91bWCq1XhxdnOqAJdmOxh28S2XD5518hLPQFZxpZ8k356rFKZrM4evkD8dpajh/M67XS8NmtLVVOO4NPJysbLZKNzYq09RHn/Rm0Lk2jqXW/N6l7NTUVL9Cb25uroZlI819q+1jFT4zs3Pmw7t37n7b7t27/+Scc3ZeX4dRP1uHi44eOnSIUzfBBiqGr5axnX/uIoBtRijaIsiseOVNnH9+b9fCzK4L+icmHz53Yu4pR4/MfXGVfETd21Mh29RcrZVwcNStAWxnvgdEjhNnjwTo6hjGEjhbJTDaTN9NGsO23I5WHj21ndC6PlYrrFt37tzxsQp/tnPnvj+4+OLz33fzzTff8IlPfOLEcnmI4RrGJ39bwXazCuiJ0Ag8MOWQ14kTew8cOzZ1+dzc0cccOzF3sL/Q3qK5b82SZmqFPFEr4zrIszBwypXf+NP561SAtDeOxxI4pRIYO+hTKu5xY9tMAidpn/PIqe2EFo74j+ZDyiccn56avrF2Vj9y3nkX/NHMzNQ1lfeBHTt2HKlt8MXaBo+T3rbPqrebg47aoKuF+92vt/PEiT3nLs5NfM7x+bknHz584svr3kMqWC23VXIJvT/vmG1dp6MZvK7R47zHMJbAdpVAV1e3K41jusYS2CoJxG6fLP4aP80piwsW/QRXLdQm66nm4T27d3tm/fYDB/ZdU076PZV9Y+dwmeLbzklsNwc98cheb+am+/Rmbryxt3jJJfv2Hb5t7nHH5+a/7sTcwhNKgBdV2FHPISbr5F6vnHK9u1yn8uu5xLF64BCIsROnnxKnzDgeS2A7SSA6u51oGtMylsCpksBm2edyur2ZmRnOebF2UwttO1bEV2CFv+OEP3Fg/4G37d2397cPHJh+1/T0gZuuvfbarKJbXYW3A2wnBz196aWXzvzd3/3d4r777Dtn4sjcYw8fPv6MOuN1ZQn5fiX0eo95rm1jM2acslXx8Mq4a+g2q9O3Q0eNabh3S6Crt/duTsfcjSVwdwls1FbXirg54fiDjKdlvP09e/bUR1CO98tpL9a9ycr3CPXT5xw45w8vuPCCN5R/eXftxHLUzZPXvW2xmt4ODhoNjY5zChYXTzz86NHjTyvf+8wS9oPq3lSEvXPnzn51RH00Yr5Xwm7Pm82YBHnKpWw6quqPYSyBbS+B6O22J3RM4FgCWyCBjTro8g3NHziDBCzghIwrO6z8RPmFtkIuh7xQDrmyJnuHDx/+9KWXXvaWxcWF36zrd9Yi8Xih4JNO+2p6OzhoM5kd97vfBbOf/cytTz12Yv4b6ulB7XT3du7du5eA+yXc5pQrbwAEm1V0OkVnCDq72+HKjh32QHTjxDaUQAzJNiRtTNJYAlsuga693qzGumOKD4ifsAVeYfHo0aMeWC/u379/4vbbb18895xzPjQzveO1+w7se3P5lg/W82mnvvmnbH9vFmnrxtP9Yta6K21CQe1ivL7l1Tv3sgvud+XHP/Gpl/QmJp9VjvSKEs4MgVolnzhxok0iarbTZkCEHofL6epY96Td63YKOlN+KxQA/jGMJbAZEhjW283AOcYxlsDZIgHjx4JNAK67gf234Ctf0feotJx1uZH64EU9o+ZnagU+USvp+xw9euQxVeZR/cn+7fe9z31v/MxnPuNw00TvWeWvPjB4w6i1cSp+TscKmmMWps49d9clk70d33rzLbc9t4R5WQmrPR8YxfjYwY6Syjhvu0ignnH16jvBzSjYbjNpvOOOO3oOM9pei+GgxyaTJplA2vOzzO63Cz9jOsYSOJUSMC6MCU5V2ngQx+kuH/Jq99GVcTRMo/LD9+A1zlaDatd2dlVtp8om9+8/cGjv7j2/PbNv5jWTC5PX1sdOfBDllG95n8oVtMnATIXFenVq1+Tk3i+tV6ZeevTYiW8q43ZhzWoI/3RMGIqkMYwlsDEJ0F/GobbO2s4Pg8JJMw5i9zlu13HGHDNj4nqs+huT/7j2mS0BDjTBmMh4kJfxId+1OGWMLWMuYyr3SMP4MiZTZzUJWV0v79ZO1BhdrEn1ufX+9BfsmNp1xXx/7sgDr3jgoRtvvHH+4MGDU+WsOepTAqfKIU7MzvZ2HjrUm6tzYAcW544/qxzzt88vLj6C0bLFkA5ZiWuCH8NYAttVApm50+MYi3379vX+3t/7e73nPOc5vQMHDrQtNo6avjMenHUON0qPYSyBs1UCxoEdqM9+9rO9+upXr7aWe5/61KdauLX+EeOjH/1oc8qcLRB3Ha/xZwzxExl/cc7KreVfjEfjEvjzDThqrPbrs6G9yYnJG/bt3/fq/funf/266z7+yUc/+tET733vez2XXn1Z3rBt7Cef0NwYllVq12mvHdfWB87LOc/v37/zwSeOHn3uifmF5y4sLl6M+bHjXUV441tnjARiLAx0s/E6gOJ0aK8On/Rma3b6D//hP2xOOadJlasZezMmxsEYxhI42yXASQsZSyaznLYxc9NNN/U+9KEP9d71rnf1/vRP/7T34Q9/uI0tjpTzVVbaatqqOrjIlKOO015JxpyzustlvYZV/1G9c6LGKGd9//p/hu9cXNx9xWWX3eenCseHDh7sTV5zTdvy3tKV41avoLMsmD5///4vvPn2219YzH1NCXBnZjqEuZbwCHXsyElhDNtZApwuYBwCjM1XfdVX9X72Z3+2d9lllzVD4h5jwPAwLnaRxvodiY3js1EC0X/jYdRq13kOY8YYM74+9rGP9d75znf2fu/3fq/353/+5736znbvtttua85dOWc/+BWOGyReSbbdHSy0hJ5y2O3E9/IEoH/+eef9wa79u39kz44976lT3pbcHhNv2SnvrXwG3Z43F/F7L9x/7pd95vbbfqCOsz++ZiS7y2hNRIAMWP1V2F2+BLaSEMf5YwlsVwkY4JnJG9wmng6OWSVbRT/kIQ/pXXHFFS2Pzitrts6YKCM9hrEEzlYJGA9xksZPVsCcrLSxZIxkG/rCCy/sPepRj+o99alP7X3zN39z78orr+zdrw432SK3PW7ya5ypK14LslDUdhw8eqq+V3ytqH2xsl9j9cH9hf4jJ6YXbrzg/IsO3XLLLWYABu+WrKS3yirAaxmxd/fUjq8+Mn/8e0oAX1hC223bwIrBFmAEwYCNmjVV/TGMJXBGSMDAZggYEbN8Om57Tj5jYbv7kfU/qfe///0H/LjHCJidGwvGwDiMZXA26gBHbDzg3ZgwjjjNBI5WSJnISDlj5773vW/vKU95Su+Zz3xmr54Rt7FYh7raGIRjuF7qJzZ2LRqzQjdpVsf1ct7E8qOofo3rBywu9B81vWPxsw+84sDf3njj4To81qvDY5v/THrTHXTZoB2f/nRb8u/du3v3V8/3+981Nz/36BL6lE4QCAUQOOMUAQ4s1zgxlsAZJgEOObpNrw1417Vr1FbIh2r0fvEXf3HvQQ96UK8dPCkjxHEzMMYDozSGsQTOZgnEWcY/kEXGURw1ZywN4nRdZ4JrbD384Q9vK+snPelJzenWl8HaBLmLfzgNV9cfwenaGEbD8qKS45qsMbtQK/mL6/2MRx6dm/jsFZc/8G/e855PL70v3SjbvJ/NdtCT5Zz7tWW9f3Kh93VHjh97xcyOmYcXuV4MH6wOMCwEuunkjeOxBM4kCRjQBjldjoFxbSbO+cq7/vrrewdrqn3BBRcMVgjdcRF+Uz/X3RjOgLT6DEnXwQ/X79Zxb/gavi7d0soET/eesu7JSzl53bLoAaEpuNJuyioTXCkrbwxnnwToREKXe3mjdCP5YmAcKCfQSw61/tuh95jHPKb39Kc/vY0Rz6htf5sUe8MCWCBGL127l8k2PMDYhpdeK1vpiZoQWElfWH95/AXz80f7l112wYduuun2o1V8U2fam+mgTWsW6tnAvsO33P6NxxZOfE/NZi6vVcJWH0QjwzGMJXBaJcBALA/ewaq4a0TcZxy8bmVm7x7jINhaG4YYnuQzDjEY7iUwHEknTp2u4ZHnfuKUVSZ0uyedcqnvOsZJGW12g/upJ+1eAN8mKVY4oIszZeR16yR/HI8lsF4JRIfExgl94mxtT1tVX1nPqK2sPcuu58a9G264oek0vVRWzDHTVWNS3eVPTbdycEZ3K93OUJWuL1bZ/ZMT0w+Z6/duuezS8z5cTvpI0bxpPm+zHDSCTO339o/Pf9XiVO976zWqByM0WwUG7hjGErg3S8BAFwzkOOwYjHPPPbc9D/NczFb35Zdf3mbm2eZWbxi6Yya4u/jj4MXGGSMiaFsAysMTmkJX2pIvKBcn3K2jrsBgJV/d4GPQHNzRfvJjzJRXL84ZntCobHArN4axBDYigeiSOCBNtzhejto3CayoOV6TZWefAF2mx3SYvgKxc1LGBBzGjfvC8hgq9BOTdX/i+IkT50xPTT90bnHh9osuvOT9NQGwhUSp79zugvQkYDMcdCSyc//OPU85Mnfsh4uqh9Y294RDMlYHDEhXcCdB57jKWALbXgJxNHGOXYI5Yk46r4IwFGbzxgXjEXCdkDxxHFscrDKMBeenvusAOtwTy48DFjM6xqXg4JrgFRYfhfh0PZ/ykQg0+jiEE7HSaBcYMQYLLSDOV/twA3FolQ4v0rluBetHOfgE9I5hLIGNSoC+Re+NFTqWsUHnjUFjzwlw5T7+8Y83nY+f4qvoacZw8KFLPp1Xj84qU+NvYtfuXYt33H7HBb3+5AMnpuc+dt9LLv1wjSMz5DsH5UkytmEEy+3u2D+9+4vumD/KOT/RjIVgMAsYkaSXyw+ElmvMj2EsgXuTBAxmA9xY4MQ4ZA7wkksu6f3Kr/xK7+DBgy1vPTwbHwJ8MTjqwc1QyEsZ1xyv1bovMHG8h+qQGkds5SBwwFYQynG8jI4YGL+u4eE4XXuH28rj/PPPb8/QL7roosYHXhg99/GYA3DwoAeOxOQBX5d+5cYwlsBGJWAc0DN6O0q/6CH9E3OudJr+/7f/9t96v/ALv9D74Ac/2K75KuWys0WfjZvURacy8GhTenkM+h+JWpDufM+B8/a+5BEP/cw1ytbHTMxm7zxwJfMewGZMW3fs27HjIccX5767XOyXYISQsu1FGAQ3hrEEzhYJ0H9gEAPXBrxx4F3NL/mSL2nOLM+ezew571GQsWPwC4xBAH7jTPjbv/3b5ozf//739/7qr/6qfcjB15eyAlZGXQHOGLHkxQC5Jw3cQzun+v/+3/9redLylEG/U+po9/qY8Dmf8zktzM7O9ryr6jCOcgxZwGTdZEBb8od3AFJuHI8lsF4J0En6RGczVtSNnrsfnZNn7NBbB8g8cnrZy17W+5M/+ZO2k0QnMx6M25SXB7+6GSfGg12pim13zx89euwLy0l/54c+dM4tN9xw658XCRtyfpuxgn7UefvPecFnb7/1W2og7grxBqU04sNsV9gRXPIwPIaxBM5UCUTH6TVjQPeBAexgGKf0xCc+sfeMZzyj9+QnP7mtQjk3ei+sNR7UTxljyqsjvqDEqPgEIqfMCbvXNURwMypdgCe40j76pUHibh1GK7jCm/vw4NdKQ/sm5Ma+91K99/1FX/RFvYc+9KHt3VRysNrmkEEmAO1i/DOWwCZIgI7Sz+gW3QTy6TigpxyvVTRdpbN/8zd/03vNa17T+y//5b+0ia56dBse9ZSxg9Sd6MIlz9h0v8oaQP7Hslf/Lf36vftmXvKxj33qb5/1rN7U6153cl8bO1kHrV6/DMwFu2d2vvhTN9/0omL2QBmG9hESBBMSBgmGIDDWhRiI5Ck3hrEEzlQJxEGjX9rABraCrZq/4zu+o/f4xz++vfoRBxUjMaz7o6453ve97329t771re0Th3/913/dvk9si5pxiCFqja7xA3+3jYzT4Ajt3evwpJ7yrsUxhhnPqRMnzrFbqXjlxXM/k5PHPvaxvQc84AHNOCIVzshkDdLHt8cSGCkBk9LoEH2iw3QxeqmSMvRWABkDdNVE2unuX/u1X+v93M/9XNuRCh7lpekyPwZvN60tOu7est7P792z5/aZ6clX3f+y3a+69tpPH67mzBSWZu0a30JoTr2Mzp5z9+5/brXzyWKuX4K4S6h8HveUhRJiv7bTWntoqZlRvwTpg+ctrzpvcK9mPY1W9Emjf6O0aku7wQOnPNeRT2iQVysO33ht9xOjFR/uJ5bGS/DkXuQdnuVvJKBVm+SRttCNTm2FxvCIl9DVlWeXhtAohlsb8IQ315G9vMgJjlL4u+Dv4j0dafSkP9M+esmhy4/rlHvYwx7W/4Ef+IH+Bz7wgRrf9WfnNcMuZ9pCGYt+DeiWdq+2uUX9GuD9crrtXj376tf3hvv//t//+/4XfuEX9mdnZ5tcunINLds9rsl80yu01wn2/j/5J/+kX4awX5MOn08cyCFyacJY/iE3AZCZEEh+t0zubacYzaE19Luug3gDMl2Hv5R1syZygzKnK0FvQWLpmjQO+gK97tXirMWuu0E+oNv6GNDvegTTdN51PRMWtXrhWb2uLFqBLfjRDn7Q9PrXv77/9//+32/62vUjsVV0OH7FuGODXS+P+8WycU5xL+7eteuj55+///l8ZV3zm0vL+UqsF5qzXW/h5XKtof279z92cXLxR4uYx9fMo2i+K6qS4T1Eu7HiZRjbDMlWm7atTspwZkbTZkiuawC0hqRLqO00a3VCK78xCpaeNWqbLOAvhW20uBZK0dpMqzq6PRss2bVZn1VQdW5rXrngcN+MrJSn3cMjnOiWX4reZnLScG8UbD+aRZoNwkdW+LA16Tmp9tApT5tC+hndINehpZsPr5UgKKfeDl9IW2UCh5kA/tK2trS7HcCWNLr0h8NS0g6Q6E/XDp3gT7mv+7qv6/3zf/7P26qRLkY/8R2exIJ66Vvy0wdvf/vbe6+rfTFb2E5T02t4tAmiL5F34u0gp1E00AM86Fs6jBf6YPu7JjK9b/zGb2xph83IUxmBfIwD+ojn6Lm0fnBNdoHoW663U9w9a+CQXv31biPP+Ceb9Glo1qfhx1g7nUDO+gFNQpdWOqkPQis6Uy40q6+/uvZZHf1rDOHPeQV9DuTDJ+7KIfg2O04baHSI8m1ve1vvF3/xF3vX1CkvgP7QjlY2CW102PgFZAJPlfMPWHMllx0HDux/1549O779k5/8zHtrF2lnPZpaMoCtxto/J/Wa1YV79ty3PzP10sNHjnxlEeRj4nfpnLWb3fwSlMfAJkQdDhh+f8ThsAphcsRAJxAkhWAoNkv5taGTdCbQBujmaTtGlgKiweGa+9znPm0AkKUycEjDkY5XHq2uBfeV027abA2exA98AXJiNBhTX72ijPknJrSjITKjoOTuujtAg6sbw6eMtuLsOSwOifHKffwD13jLdRfXqU6TCedLzugih+5kgxPVH4973ON6L3/5y3v/6l/9q94V9ecYyqtLPxkkfOvTpOPQ5TvoZYvt+77v+3qvfvWr27NlvMPb1VMyIUd4hLXkfqplNao9NOMRH3iiL2ToX4g8P/+f//N/tpO05EGn6B0ZkR9dpGP4TJAPD/7JNrCdZYFmfOOFPIwD/BoDYv0M3FO2O76VPZ0h8kUDGaNXX6IThLaUU0bfdAE/eFNPHwN5gkVAcOhP6YyxXHdxbXaabuoXNLPJzk/QQWc9Plx/bYkftKMpfMlTJ/Ypsqlr3+1uf1VZ6C6bnpzec59L9v/JRz/6yVt79Ty694H1Hxy767J3da6V7Zcf2Tt35JxnHz5+7JXHTxw/B5ExWN3qYaKbt9Vpim4we97l/3c96/qCL/iC3sUXX9yaJmjG4A/+4A96f/iHf9gcgzqUjMJtFCiSARil1aFALJ+hJhcO2b+w/KN/9I8arcpYgfkLNYYejW984xvbyVm4BEpNASgSIHOKDa/8tNlunsQPRYPPhAYNnpv+43/8j3vPqhMODvy4h4+PfOQjvde+9rW93/md32nPQDWlfffxljBMgkkSvJGD2ADQR1ac2vcurtPCVtKUHk9wu2/FcTpB36InfYw+tHEi+gYvz3ve83rPfe5zew984APbgE5ZJ6n1PZ6jb/SUUdKfTl5fffXVbdb+l3/5l00WDJhJC7kyGF39JGO4ApvR/8G11TF7QS50Kboijxwi39pe7H3N13xN7yu+4iva6tqkG//qKBOb06UVLuDedgT9hX66El1wTQ/oBMgrcMqQB57pGZ5ON1/sDbqMRbpuPEsH6Ck97NIpnT4Wq49XZaV/93d/t/1dJJvilUB4/dGFg4XeVXZOgXyUt7u3lUDWsc/SdA789//+33v1iKn3f//v/23jkv4J5KFP0aasWF81O7ow368Pl9Dzxfl5W/u9o+ecs+cl55138S/UX1Qy4HedubSWNv5jiTV93u79j68H4H9Rjbc99+qUwfPJ5YY1fpfn0dVRLa97fyvSpfD9OojSr3dM+/WKSXveUUJrz0RKIdqznBJu/9prr+2//OUv983wkbSfDG14JJPUdY2exORUTrj/ghe8oF9GuD2rqQ5uz19qMPZrplYduQRo9WwGHzWTa3Kujm/POUqJBnKHP+1tNC6H0PDDWYOj/z/+x//ol6McPFNCmeczoBS4/7//9//uf/3Xf31rH2/qiVfr63JI7Zn2Ix7xiP5LXvKS/p/92Z+151HwloI3/GTzQz/0Q/36LF8rq85Gedus+tH5GpCtL/ErXQalPbeqk6BNPn5qpj14tuZaH+OR7OhkOd9+/Zdt/znPeU6/VtqNRzJMn4rhrgnA4J72hnlRjm4M52/Ha/SjdZhe1/ik27knrle2+i996Uv7733vewfP6I1f+kJ+5GkMieUL2x1Cc563GmO1e9CvyV3/y77sy/oPfvCD++X8HMBt8ihH0M4dkMfpDPRJ+zVxbzbpa7/2a/u1y9OvCfXAlpG//qDf3b7Ac3c8lGPu13+kN/02pmI38VoOvH95nVGoRx79t771ra074dtqQC+7C9BbC4KWFtdiqfULOtFHDsYdm0ku8tEuTcfLZnkn2tbCYo1hz6QWdu/e+ef3v/+FT6r01kERdL/9e/b8ssYNqK4xqVbvYiQY6m4Yvr/Z1xTagP6lX/qlfn0MognXT5ygQS0NdEb9cUFTEnREQTZKUwwovnWiGE7pmgG2A0M33HBDo8EA5YQpbiYR9VGJfs2i230/FOXNb35zc5hwwMVod+nVRvphI/TDwRnWvy01ZxMiMtDQUrPZpsRi15wpJ402vAvheZgWkxN5nH99HKA5Km1k4kQGtdXdmoXbQQ1l1amPYbR4GOepvO72Z9o1wbvqqquaISGT9CVn3NU1+Xiil3is16P6L37xi/u1Qhj0HfwGfz2XHByO0050Kem0nX7XbyvJPGW3Q9zVWfTgt2tD5OFDHjlw1vIYQTr5yle+sl/P45uMo5vkKgB6Gl3N/e0Uhz4TtEDtlPV/5Ed+pF+PRfq1y9cOG8WGdPuM7PTz6QzsDtpqN2dgfzjSejuhXyvggb7jja53+8LY1k8mVW94wxv6tbvZHJr+hg9fHBznH77ZIk48k/jIbCtjdBq3aEev66TreXS/dsYafehFZxZL+CAbMpKPlyrDQdNnz+uOV3ziwP69Vz/wgectHTxYOjRWtzYPDuzdteubdu3c9QnEINJgKvRtsIm7AdHd0L23FWn0/Ot//a8HpyI5QIpiQGRQED5HnZlSvfPWBgY6N5Mm8mGA4CQjg6+eK/brfdWmXzEq6ItTcoPDphDorO3gVhatb3rTm9qKEo9CjB26k7dR+uGicN/2bd82mCSgRftoicNxjW7A4dTWbN9p5fT1MB3dfOU4Z/XhyWoSLvjTV2Jlaiu9nVyGYxjvqb5GA2fBoGibMfn+7//+/qFDh5Df+i0D3HV0LbsD8vT/D//wD7cVSOinJ4J+TB6d0Rfp5+QrF2OdMSjO/e0eozX0h1ZyxTvZxp7kXnhk+JSpV7Taye96xazJO3IW01Vhu4JJG+Ck6AkdZxOGJ59kgN/0P763Qx9nJwstaBP0U52d6X/3d393W3GGx9iw9EXsRZ036Nf/NQ/6mS7AJ9ADjk1sghYdeNGLXjQ43R18WxHHvuGBbYouoV1ant0c/YXe9Et4CN3y0a6Mvqwxy1HPT01Nzu/cseNjF1987jeVzDzT2NRnMZP7d+x/+PT01JtKiGYErYMQJYQo+Qm5lzj5WxXPzs62V1J0HqMIMhCkdYDBIc4Kp5759uurTk2Ym0lXl2errM/93M/t17OHNiuL4Y7SogWdcdpopQzygHyTjW/91m9tjj4dj94ox2bQjmYONDNWNICs6MkOWClS2AzGT37yk/16Vt30YJiOyEFMR7qDLROT4CGXyKSeRbe2bC/hexjv6biO8dB2PTfv/+Zv/ubgFRHGNvJCePdavl2Tn/zJn+wfPHhw4HTJBK7IKEYq+eFRvrZdk2G3zyNXZVJ+u8aj+BqemDD64TX84k2Ig7DDUCfk27aw7eHuSidGtSnPNvuh29FvE16PNzyOI4OsSrt9G/5jW6MnpzPWP3Yq0RYnjb76Eld7RJdte/3AfhnTwLW0MRPnq14mnPhmJ+F1nw5EDzzqysJmK7s0NKaN+AjX+s39ek7erzMmrb+yo5BJZejtTjSX+26xYgdG5ovfhb27d/3xw6649FF1vWkwUc9E9s9MTn57rZ69B9MEadAYLK4JOPmnK66PQLRnpgQao5+Ywex2QGaxBveP/uiP3s1BLwu28ZQOWIuvbh1ldZQg/Vu/9VtNYSltOhs96wHlBEp6eW0pxdBlJbde+tChLjqDI3m55gzNcgE645RDqzhGJhMIMn7FK17RBtSwDOCnJ/TDFr+dADiyRW7Q6ptAnvu4Ntjhrq/7tJkoGlcL2tqMkJUBXOGHc5DGRx3s6791+dlYJnzoJY9MsjjlTBLf/e53t+fMdAFuRiny1oY0Ga1Fe2hJOXWG83IPTu1022JAuuXT7nDbwausEFoTpw1xyg635Z488urikJ92h/F38a6UjhGEg3N72cte1iaUkT996eqT/oi+KnO6AX1xWsZal5+VeE4+eSU93Bfdeymz2fGwniyvDlt/2iG024W3yDtjI3bCuP9n/+yfNQeMXvVDt7GRNJ8SmyYWPObbDmBMs8Nf+qVfOtjOpuP6Y7hPOnlW0Bz0QuXNVThy0QUHXlKHxO98N7BurgR3vluzUonKv+2m2+4/tWPm6fML8xcoVo20k2w1GFqtIrLFp/PHCcByWu3UIPpAdWqLayA0el0LZTxafinF4Di9jFLCll+K1nh0XYrV8tb6UQ6+MsKtbilqO5JfH5jofd7nfV6rjq7Qtha+4ftOTXqFJxDZ1wBo7SZ/rTgySDn04BPd3knNyczISRwZSHchZcqBtezh+ykr30nwOgw1OK1LVsPyDR686Uv3a2bdTrgH11bFdIKelHNtp6trhtxOaWo/p7Cdav8P/+E/9GqAtjcAyni0Pi5HMNCpMkwNDx5+7Md+rJ3qdlqVPtArslxJTmvxRh7pL2XhSZ4xGN2Srz0BKING7UvjVXl9oE6CsuhTLgGu3FdeXQGelA1v5EFu7sujm/B0+ZVWL0GboVt6JSgj3nClrNPur3rVq3o//uM/3qvnmq29jL/anRm8W15Osb0BoN1uWKmdrcwnMzT4A5MP1xslaMOP/LUgfRb5pw/UJ2PxVgbtAX1Md/SfWCjH1QIdCy9iAU3Kip3WNr7gIAd06zNyUEa+sSZNj8Rw1C7dWuLZ8vu1qGgn0L0h5KuA3nJhM+k4GawCnFELeC5+dswvTH75Zz5z/kNWqTO4tbZm+I/nmfkvP3bs+KNr0LU/qk5nESyIIRhgPQ2JruLoVEApEkvL1+kEKk05vNLxkIcsycq1ANwXKNF6IINf2Siful4V4fjgQkNoSrluvdXa4Sie9rSnNeMfuqLo6Y/V6qd9/AdCj3s1c+19/ud//uA1IGXIKYM/dRLDk3scGz5GQfK1ZRKlLLoDocfApewp7z79MghOBdDhyIORQKO2vRrmtbh/+S//ZXvdwn/KopPDoCtkQP7+mIK85L/rXe/q1XO53k/91E/1fJLT6zPwC+H3nvKkHbKJjuozAJ/8xPLcy333pCN3PKKDbLsOVDn3lE0bYtfy4UeDut1+x69JnfoMtImJMuoysmSo/jAoL4BR94fLwymoQ96Cfvrt3/7t3r/5N/+mV19sa05PPbqM39qFaTS4TlvBO3yd/K2KyYwsBY7q+uuvbzThfT20kK3+IoPEW0XrKLzaBfoVuE5fS9N9fKQvE+NXPv6NcWm6hAdQW9qDfo2uwaecWLm02Sqcph80oJu+12n73jd/8ze3f3NDDjrxG55XIhGOksNE6e3nzR2fe2o5+6V3uVaqUPlrOeipHb0dD5ifX3x6ld2XWQ1CCROI46hbxmn68Td+ZjkATaFRDCI8sTwxwVqZZoVLKaIM7gvdvIZolR94IwsGxIrQPxdF8eADwR1U2lgPWEHXIYVBfW2A9dQPL2kn1+oK5GCiIh8fkQMZdfvafRC5GkBWLMHTxZ+0e2bZ3nMGcDI48uOsGVS44I+eoUG5tBV8WxVri0PRLmPi2gda/sW/+Be9OoDYdgHwilYGCb1W+lbN5Oe6Hmf06ll7++h+bdk3XqKP+O1CZDmc3y2TdHSIodMOGUYu8AjK0InQ162LF7qpPv4ymfB+aT7o4118acFkiv7qCzgZJnUAeuGBE+8cobb1JYMruGbAyRGEvvDRMusHrvCRvFEx2vWNgHcgjQ4fePGXgXUyvvd//s//GbSlb8gKpN3ISnwqIX2sXTpENzJ+18M/2adfwwOe9KUY/q0M2gH6lEwjP33uvf/Z2dlGnzL4Cb9idcXKqIfv9Ie+lOeartCd8Jd6VqunG6Jr+EdXPaIY/Csd3kLzMJ3yC9pP8d3ihcXFfcePL3xN/f3VA5fLr+iHlyz8MNY7r3fP7J76yhNHe1+kkRK854KtkQzWZQLurHGaUl50FzgZAtPxlIeyZACICZciMDwGt3JejK/Xs1oaX3hSltKA9fBI6dRJWe3U6yHtQwvrxdEaW+EHnbZX6sBZ+6AJ/OgHiVeo2rLJRADhy3VoJjeGOTIKH9oF2tCmfGkxnq1irAiCuxXu/KRdBvYv/uIv2ipdGwF9pA244FdOGn7Bh0vkbTVkgsD4cFQ+lmJb/nu+53t69c5nc8B12Gvw0RaOCb14sYI0Qfzpn/7p9j/Pvj5Ej8iJEwu/+NkIRJZwaFsbgrR+0E6CMu5xUgIjxxmL8RUHzCDqAyFGU11yQLuxIs2pkIntWX9yb1eAYzbxUg4N0voKnugYXO7pY/SnX+WvpDPujQJ0RAbwCdrBA/p8FtXnVX3FzadDMyZNDPOxomG8oWGjfTOMd/iaDMI/uvWTPLG2Q8dwvVzjPTSmLDx41M/6YCshdGqDrnBYJhl0vM7G9Or97caPa4AuaUF51+xsHRRrefqM/hhH7kdvlVc2vJog+8ri6QbjAM9oNo7Y4vqefO8973lP71D917o+Sf+mf7o009PqIw6lzmdMzd9x5Mijdu2Z/rK6/it53bLd9GoOerL+oOqShf7xp1WF9smYEmKzMBSLANNpGpc+nUBZOAqOBi1RFHSmsyPAGI8oka1dKyDPOlIPjpQbJfBhXtVLW2LXvmLG6a0EyoWmlcokHy3k7h+R6iMhbSYbutYj+5SFT7upA68B7gs+Vkm5L+7SpnyMjHyyAxyDFYy8tBE55Fqsf3yNh7PLc25GR9twM+ycpF0Q9eVzdL76po2thtDC0HFEVgUMfb3n3Z6DG6AMBV4YfP2KRk7JNna9p9urd7cb/cpx2HhiiMLTRnjo9lf6D00CkKctxkP7V9Tzfp8rNKHzRSY7LwwMZy2Obq9GE161K45TSV/Z+meY8K6fTL58tlOI04abzpgMM2wALgG9aMh1u7nKj/IZm+rhwbX+Il+6w9h7Nl2vvzX524bU9krOeZXmNv0W+vEaeWqATAF+wlvLGPGTsZfywZV68G8laMeY1y6ZC67tED7/+c9vk9rQhB/0qhO9RdsTnvCEpo/14Zmmt+FJOYFu0h1gPLpvO5n+nm4IH8YYWeu7gwcP9r76q7+69/M///NtrKePR9FasvLpz3YwcG7uhI7fc+LYwtPue99z33jDDbd8ZFSd1fImeuf3DpQB+tZCfEsJqp2yE9dAaKczqxMGp0+lC9lpDWWY+j/zMz9TOrJ0opYwQGLpUoJ2iriEPTjVLV0rgvbqDP5KyAO+ambXeJK3Xv4ilzIM7Utgpciabu21xD38Ca2qlVK0V8lmZ2cbnfoCbeuhr1um21949IpDTkqSEYisaqAMriXIM2XQ5rUsr2eRXWSkrW4bya9HCf3f+I3fGJy2L8PaeIKvKyfXZfz7//E//sfBe6Lhc6U4bWwkLl1vJ++96+gDEmXwG79igK6aaAz60usy9cnY9gUo7dbEY3ByvxzIIO1e6O7SFzmNklW3XOqTMRqDq4xFv1YY7QM9vryEZvT4Kl1X78m2q0f4oEv6VhrU1l17VawcfusL9ZVxX10g3a0jzz1lnf53wtXrQ74EV2cv+rVSH+gEeQzriGsBP8P8jrquCeTg/Vv3ya1s1OBELTzGhFDb8/16NNGvyWPrM7yEn/AUvvCx1RA5o6Gemw9eG4sMRvG7Ul45svYGDT5XKrPZ+em79Bd7++Vf/uX9X//1X2+iw5+Av9gM8qVPQJ7xXo8i+nWOo/W5vqPDoTUfM9KP0vD7YuF2ALzEDuAp/fmnf/qn/Zp4tNPmGZv4yRiNbuO19HWxxsFixRz0YpX/9Lnn7vqWSnt+MHKbe6UV9MyeY3v29eqtkiNHju4rRG3mVES12V4Ju/D12qxVXgmwXZ/OHzN0M3q0lVDa6gY9rtEPSsjt2qzarFt+KXm75yCQ2XeeMShbQm0zOzyuBaW4gxmjelaj/v9WG2XAGi5yQtvJgLrwZCvad7vRXgPiLrPUe4obfVYjtj61IeCX3OS7TxalVC12Tx4gKytFB6TUWw3gIt+f/dmfbasa/wtMTvCSiW0us2c8WW3Xp0Z7//k//+e2ml0N72bdoxP4sb39nd/5ne272qFPHD1CHxko6zDYy1/+8sF3erNKxJMVRmRCXvppJViPTsAJn74gK1tsvmPuEKKDjvrPYSjl0Jf20S6opx1BmWHQP6NAvfR56qEDP8EFvxW6MDs721ZV9cGbth3uX4FsPdv1sdonNziB+pHRqLa7ecqqm/KRaXChTRl8AzTXh4ia/jhEZiyC0Jx0yzwFP+iiY+hEe2SpabSuBewL3umn3R27AnDE3rm/laBtbVnNzlYfe3yX72XThdgENOAVPWQdutRH7zd90ze1xxH1waJefVGvlU1f6l9l2M56t7pXr2X1nvSkJ7V+J7vTCXiJr4jdRavd16/8yq9sZx/Qp1x0NPTKI7uawE+UjWAoDcD6Tvf8ef2FXV99+eUX/v5HPnLTPTqqfs75+y/+kkLydyW8dc9wq7zGT0tAp2/Z+nAGKIEMZjk1iFveaj++K4v2UoQBv3BWJ6ybn1LGwfuf3sv2gYoafK3Z6oxB89Kj6JMH0Cu4rmdrg3qlwO392n/7b/9to8mKAs3roTG7AfhDZylNC3isQTD4dnnoHTRaieRlBomu0FoOqr24jwYB3lE6UEo9oLVOtffrVHS//nCj72MxePRBFKsdXxqzGiyHMyhfzmMkzlHtrJYXnkeV0Yb7ZUDaCrImC4Pv8aLP7F+f1HZ7E42v0FkhlnNqYRTO4TxlyYH8c4/Mcq2PlBmmU7682lbvP/3pT+/XxKX9x7QPdaALRGfEpwPoSNoW0/Ey1G3VQZblqPs/+IM/2D4MZMcmPIvpcXSnq0fJIyv8R2aj4uiXe3AKdNs7uj4U9NZ6d934QRf6ostkZVdkq0GbGUf1Bwxt5bgWT10+Iy86V4+KBnKlj+hn+Lc66Edys4Ls7rCEr9VkyF7EBqpr581X9dhs9sA3yP3vQP1JSvtanN2Y2BjlTzd0eYyeo4k8fMDkyiuvbPrJjtDb9B0dlNbXy/lW0GZkZpJm7R97wAMu9iz67rPmyhy1gp4oTz99YuLIlxWii4uwu80Iqt62g+r89mzQQR6zyxLMYGZaHd1WHasRbfbv2ajZXwmz8Vzyb+nV6uVeDaBWpzqvrVjMrLwaVTJs+cGpvLR8ca7F2gNk7j4ezByTn1WOV32k8QWUs7peDdAFxELo0Y7ZsFmhlZBr0OVdWTRFpmKrIaH+IKI9+2uVVvlBH/zwquO8gH/s8uzfcx38eK7poJ8DSOEHrdrZDOjyBF/kL629+mpR7xu+4RuaXDNj137ez3YQCY5f/uVfbq/1OLNgRSN/PUBH1Qf0xUpYnn5ES3gmX0G+ftFGOea2mnAGwUoZqK+/rDyiG+3Gaf7BixBdEnv+aMXv8NY73vGO3v/6X/+rxQ6clZFrqyYxHcG7NFnRDbpHNnBGfljsppUJpF15djWUe9nLXtZO1/uXLH0qz327Nsb9mQD4pzdkRC+6/G81/WkrfXtP21OPrpM5vbWjwe7803/6T1u/yhfw5ll0xp8xoL9ON6A/0JUFXdUX/p3QgVa2C+gn/KSsPHyzZcv82PLgoM+/47Yjj5udnX37oUOHOO0lA1EJMMpBz8zMz+y5bf62p9b9GQ0R7JkADKa/aqw/zWiDPEJNvBoPto1sc3/wgx9shkUdgjTYpbuCXgmP8srqCAYpg0hdeHQYINNA8KoXw5LOdU1ho6CpR7mdxK0ObWhyPzhHxdoODdpMv1IwH1MxIIJf/S5d4R8tFCzlGNf6Z7BRzY3M0354NBFyoIhDhh9Ez5SJwwkdym8GwKe9tAmnPDI0yPxNKaMeOjkG/Ul++vPnfu7n2sdK0A04Z/kcympg2w4P2iJHMccKInv8x4hpzzZ2fdaybQvawuaoQxd6k45ewdXly/WpgrTblS89CY3oxfcVdXhN8E5/Pb9rf136lre8pekCOZC3oP/VJ6Mur9rRxjAoE5AOPfQVDgf/xOrqY04gk/HQmPrbMcYT2sP7dqG5S9NqctOX+iR8uDbxNTlKX3XrxzErZ3xtJ0gfoJv9pLcOi9Fjf2MsP/waz/oK37Gfxcud3r6G/5HDx7/ivD23/Wrlf2z53kDBhx20ijtvPnpbfblj/kHLRtLWRBdhFdl+QAieXTpNarXhWiBMglkLGEBOmoNWh4AJd70Qo8CYO+FrBU3JGM84Gx2XzoVXHSBfW2nXtXvy0tHyGBS8MNxO6HrlJXUbolV+IofwpB5gqLwHrp3VIOXxgzaK6fS2Z+FowutqoC+UQYc0pYYDPXH6BqI8ZfAax7MZAxT98A5D8uyg+FIY0B4e3VOPw2Dcr7766t5/+k//qU0q0O8++tdyznCGH/jUSd9HT+FPX9NDp92t5u2WyFeOnAD6XKMLPn14uqEr38gUTegE0V3l8G4XwBfZ6oBhOwXsvIET+4dq0mkMKa+usRPH2hCt8hMa6I102kaP9rwSU9uqTZ4mCMpwEunnVVBvm1toFaI/IQwvWwldGXXbku5er0RDt0+6Yyu8yIuew8cOiNWjC5thA1aibT35q/HP/pl01jZ37+1vf/vAdkT/8GKsLveZjmKIxM3oHpube/jthw8/oq7v5qCH972nakZTn3maf3IVbk/lS0Alp63t/Gprw0CAHIAVHUetYwHBrAcYOcYCr3BFuOupq0wcnNiXw/JqAFwBuLt4XSfIl0Yv2l1HKXIvdKHVqlfHr2fy0W2/S498ExO0yu/eC53JSyyfnPH5/ve//y6yTjujYjxlYEozulaqMb6cFrycEIenTGRjgG4U4BqG0OOe7VcTFfRwEOGTfJWr/+xtxt2kiPzRSv7oXg/gh8y0lTQ8DI8Di/I8mnGIhrPyCUv0aAdNZKI9Diu8oE3edoHQ1dWl6E0mFWhVTiBn+odPjhPPDr3Jt+MgZBISnN24i0sfwTmst2mLXsFnAl9vBzRDqp3gaIlt/IOv8BeeTmVM7hkv6dN7Iq6ME3wkGA/0Vz/Q6+gy/HgDymwH6PKcvpCXgF4OenZ2tskJv6E9dY1lkPyqg0mZe+84Ovel9abr3VaSww66Pm4y42VYB8SsnJuBiCJX3rYFQsCvZ5vey4zjinDWIpzQbI3neeN66wWvTlNH8EI+hUMDvPK6Did10CvkHgVNWenwYGAIUWB1nNzN8znX64EYsZRFs0mJd2e1m3ZyXywfKOs+Q4snTtOpbLRn8LWCK/yoH57ErgU8ZnYcebgvL8+mldtsCF/a1N4Tn/jEAX14Ainjved6hW+w9c1hkkUmf+hcC4whdfCS8p5/kqPn8FZ0vi3ti1j51ne+vKY850LuHA2HbrBHXqFjFA14CB+j7m9FXvQx7YrpSOSqTTI0kca/sUIHn/WsZ7UvsflEqhVJnh+TW3gdjofpJyOBnNXTpva1o66dD6fKffENDWA9+jvczqm+xgs+xMMQeQ/nb+Y1eSZ020OTsBbQf/VB+oXcpcNT8ukzPafjcMc+rNXGVt7v8qwd1+kPdEvb1fwH/+AfNDJcp07Gahx0yaEZ7CpDIDp04vjc4uNuv/HSiyt9F2EOW76po0dvv28VelAtwKcL0V0KV/62hQjMITGOAxicjO96wXai53wgSkPQ64EYH6siz59zjS640lld3NIMh4MFH/jAB1o5itwtq/0oLl5icKw6rHwp+XpohDOGKPgZRh+yEMuDp4urmza4lBEL5IxmxnA9oA310NAdmLmGB2+5JhcOLM5wPW2st0z4V167DAB5dvmVdk/sUNP73ve+NpnAg37QJwyJVW8M/WrtwyPgD58C/F4n8UrSr/3ar/XqD+obXg7Yszm4OWayEAxwbcdZa1/eShNo7Z0qCH/a6+pJ2ke3fHIjQzxwymSPB3nAVvS3fMu39H7xF3+xfWLV4xz8kZWgXLf/uu1KZ6wp0+XfRJBcAdl7/ctHVkC3XMvYhj+hMTyKu2GrSSbPrtzT3qi83OvGytF9Ootu+pDxpT+Moei3SVRskjz3TzdEP7t0RCaJ6fQznvGMtsijs2iPfMT4pofiZZDgrBcX+r0H3378pgdVOnmtSNd7TfQuKpndsvg5C3O9+rp8b4YQCZRxOBNAR3J2ObhkQHKYBBJBrcSH+7bbcqLTQA9EuLkeFStPqXxC0fNncotToohdQCecgq1L7xFfc801bXLgWWg6kEJTDP0QJTWz1Pmc8xW1ysCr8qnTbaebRgN8aVfMOPqUXpRP3kq45OMRHdIOiNmpSN1uW6PS+IQfHQKerAzJi6GG1yE/soh84sy0Ef5H4V5PXuQT/nONFvJ06I48rOo4CYNLPrDici0oo2/TL1a5Bl1XX0bRg374xPpQG7bEfNPXe5Rwuo8+MfrkwavN0GssWlmSH4OADvjo2ukE9EW2XTrkAfejK2QguIcPMT7xJo1/3533+chHPOIR7dR8vXbTcMAjKC8OqKN/4NUOPAn6WFm7Y/kqXQ6U+q4AOW53wAOexeEPzV0ZbCUP2o48h9uRvxboG+X0E6DDzvt45OCxEZ7YAX1uJcoWG1fRmbXwn6r7kXdXFtL0Do92v9g013TNPXy4BtLxp+4VPjNTz2EP1BcO6m8Pj71DuYKm3F0H3d9z+MIDR+ZuOlg3a7zvmohRDVFqbVcIjWZfVjsMpxXIeoGhYDStaKzA4TNwycCgWAuUFxgWisa4ulZX54itCE0YdJLTv2j1KpbtNv/K4/kjxTVJ0Nnp2NQXc2o6WNpzU89GKbHrlYAiBJQV0GcyYLVv9oqWYT679fCinjImPk7gOhlLRuE1bXTrJU9dToQ89YuTtByTE+n41D6HD+9rXvOans8BctCMKn4ZiNUAfauB+9ohV7gYCnjlG1DoA5whIE986CeTBuXxKU99vESOdEfISpqM4A1N4rRJB6wKOWY/PluNAABAAElEQVT97VUTMoEPPWIAF/zalSZnTsrKz+E8f+BBF9AjDLclL/2pbdcrgfvhX5ngkk49eUnLH4bcSzlx0sP30BXagkfZyF4fAWPj2c9+dpvI+LcqH4ahI+rCKUZ3xoM6rvEDyE459/W9sUWO+lb6w/WXj/TO/bTdKm7Dn4zvyFWMV/xJbzV09eNk2ooOGNPX1z95eZTD7hlb8vRl+sLjpuc973m9+u/1ZgvTnyfT7mbXCR/Bm+tMNF1788KZiq7/iE4b68swsdxvDI/BufeWW2+/sg6I/nrJ59YU6jromYWF4/t27d794GNHj/pu6MCgafRUKEGIOpk4NOpMzpnz8GwvA3YtBcOfAX15ffg9xjhCXS89jKtnuurrsLSZmJFAH1o5HmltmEUyuiYWvs7jvmBQUt4YD2n58Ig9M+fsrGbXgvSfNtEGzFYZ+WFjOQpXeAhNnAWI0xpVp5unHsfu+fxznvOcNvjsApAZGaDLN6TNnr3r611jXx0zC8XvVgG5aJ+MGerwSUbukY1BZZUaI6K8a31Aftk6Tb/oJ/wA+JQDnLNHCv6K0olxegIXHNqIgYJbHho4ErtCvrzk3WF6bVKlrRht5WLktCfoF/ygGW/owU9iNCnnvjj0hlb0dssr4xook3vqCelHbQI0oVG99QAcaQNubaDNZJecHOzyjP61r31te18efwJgCNUng4Br99GAlvALNxrJl+x9Cc8EbQxbKwE6bXHiGwiveMUretfUjqFdDH2uj6Kr+sQk1D0raxNR9+nAdge6ZRwY4/TL+KR3dHEVYBysAOvTn7sunTh2y4FK+/OBNtgyeiZ79+ntOL4wd0k55/vXzWlIDZAzBQgCEIr3az1fimC6A3clfgiXEljRUSS8U5b1AkWzAueA4Iph6rYdJaOsuU8Rvf7hma6tVMYE3TEqo9pXF16K4OMaIPyPKi8vxjwykYdWq3VtrRfg4TStdLWJjvCyGo4YW6/AeX0o/5FNVnCEPtectM9t+qgFkLcZ0MWTNHmkP+ShU0wmggFHH0KjLXDgnnKRp9UefcGH8pEp2QSvV6fqe9ntMJQy5KecFbJ21GWM9Il7Jpocsz998P61HY8f+7Ef67385S9vW4BwK8eJw4PGOC26xuErgy4x3mLsxED58A9XF1IH7lH35GsH7dqGE1+CPHUY3kxguriH02hTPm1KkxucxpUtT4ZdMIlGN8ecVYp20KA/1Ak+1+QqwKccgN9jDfEYtl4CdJEe/Nf/+l/bn8p4PbPbN/RI/+h/+mgX07kMfx8au7n1VG6sBToGvGHjmxoZi+vwIxzt5OEjRy+649jR+x9ccthQDT4vNnHeifNqhB+7ovLOLaVtWpsGW8lt/qNzdaRByoHkhDGy1zMI1TeorYDNqKUBhXFvLVCeEbGq1THqRAG1Ly2Gj1xjKKxEKavy9fm7uxhZZUM7vvAnD+h0TsE/ZqVM4mFaQ3+MsvaV9azc6io4h+t1r+FQT1nbjNddd92g3nrqq+vxQX0Av+1soF8/kYvBG9rkc4KejdvmsspPX3TpOZm0tgDekxZzkD48EvmSNX6VQ5cDZGhwjQ/30QzUVQYvnJJ60spm58N9Tta/YzmtrS6nGsfo2upaHfxbMf/+7/9+7wUveEHvJ3/yJ5te/eqv/mpzTj6IwLGom360ygToF+Sjy6ocfxwpfVMnwbW2EqxWvAFxqN5DFtuVsVrHC1zwoE9fRw70XH3y0GbSiSMDq4m1QNnoKVmjOTqnLuNOniZtJim+0Zw6ygbUQSs6yT1l0Jc+jJw8387EKvXH8dZIgOzZOd9HpzcmofpTX9AfefpNPxlHJl5sY/0ZR9sx2RqqtgYr22Whh5/o9AotdWeHnMw5x+dPPOTTj3xkFs6DL4lN1aCyhzBbYQpSSm+gUfAzAdBsQMY5+uwao0cJKMd6gEBtGdt6pUzAQKdAa4FynLv6jB+5Cd220Zg8ONHmg/HoBLZ/GEZbvQF10CXoEzGQhoOTlabYwS8eBWgE6jmtPjs7265Tr12s8pNy3n+OE4JT22uBcrZmrfjxQC7dL2PpO84jz5zRaCbq615eu9kMPYxcxJEjurXr8YL2AH60z1BIO/jh4yGeWcrjLDg/PASPclaO9A+tDIyJhlWv/421I8CxZjXJQKFDO8rjGw4TH0bMmQTy4aQ9r/esWnn4o1PGp8ABoiN9Ic3wKac8OuikFblHKdrgkO3amAygCR2Rj3p008QBH/pG+3ghBytYH+PBg/v0T+jKFS34Qgsa0bMa4F199cKfODTh0adg0WKSg5aXvvSl7etNVth40J6gveBClzzX8EXedo/w4V7aW42+8b2NSYD+eZTHrpK5MacvjBn3QOyY/ovd/uM//uM2YTSR2u5ANwE+/A2nP/wx/uSLVwEGm2GfOXZk4SG7rr12YMAz9ZxYmJmxJHgIJARooCQtzkBpmdv8h4DMvhghq2H8rAcYEwbH1vG73/3u9VQZlNEJ3k0G2g9k8JMnhRTH8DPytoopKPna7nYq2wQBMFpwqZP+oLxwMnj4sgowKWBsXcOTODQkTh+K869Y7qVOyo2K4USD1ZT/dXZNXt14VL3kGYgcIKOOB/LSLkcvjScBfjzDa5AypK7JYiMAX/iHJ7RLGzx4svWuTe3FyLtvNuwbzj/90z/dJlPux9DDqyy+8KJv3ecUrWyf+9zn9l74whe2PsKfsuqAOCXlPQulc14v8voaJ3TVVVe1CY2+pit0Ux0y4rC0hSe8CPoHLvfpg1OyHp+I4YbDZDAGMToFR/LQJT8BrQKDSjbaZSzpqNcS7S5wdB5L4Nf9ALzwqNeVfe53Y3RHHspGRon1EUdMrnigSw6Omdh4Np/+0FYMIpnARe4ADwAer3J1J8LtxvhnyyRAhz1b1j92j+iFvtEn+t61PpaOvtFvO1sOkm13yPgzvuminU3jJJ8EXgf9zcDNzfceesfDHrarHFh7vto8SZ0qnbzllqNG1myFZj00Qphdg7KORk5rER2scwnLTM13uQnKwNfxq4F6FMbgzqo0xmG1erlnsJs1oQEObapP8aQZCdfS7qPHqi2vScHD+Dip6mtKyqY+ftTXJ/DJD60MJXo5d3m5F7oSy1cfaJthZVAzUFJupRgNcBgsJhXqyQPy1wJtzc7OtmIpLyYLK7XIzTXAi1URx0e2zhVsBLQFJ0gsnf7xrMvqktMhn8hF2jj4+q//+raC9reJVnLy0By5cBrwop/RwW/9Y1dzzlbCnCaceBWDOMUcAvMFMfj8sYNVd3BFf+BXX1COocMXWtyzA+P0Ox3ikDnmPJ92XwDDsbyu3F3DH31xncmFiYRAVlY3Jg3o8fjC4x0fajDB9QwOTrSbGJigrQXaCJ3i9AFapMk9KylpkzeraPcYf3RFj2K7tA/ISTmPTOzK1L8otUku+yZ/DFsrAfKnn/qSXuhrfRX/4r6+ct+Yc5/eAH293SFjCv14MWm1cLJrhcf1QmnrZfUXdQ6K2VbtN69VSCcWpya8DGgfYUoDGjKDIcQzQYHRTBA6n2Fh/Kyg8aHjdfpaAAder7jiilZenQh+rbpenbHS0rbZIlrUhy/yjAGCC11WShxP5MuIZ8ubgREAg88QqgM3miiv1QpHwEH/7u/+bmsn9GozaTi0QQ5idMyWs2RYgbJrAX60zZkcqueUIHTjcy0l5KTQmkGIF/XTL3B7tu05vnz38cewZ+XTGt3Eny7fnBkDYiuXDqGB7oc3Mv7e7/3elu8ksbrupU/EwCoaDs+bnVa3FUwn4qCUU0YemWjTJy7f9KY3teer/gPXYwD6q0z6SJ/JC130weSFA7Z1+IY3vKH3zne+s62YlcOD/o8ekLu0+gAd4QHuUTJWVhlB+S6+5KunPavY3/u932sHe8jKKzJPecpTmkNEZ1cXGwFDP3SfDqClC9oB2rcbBo/24JRn3JGf/3y2C2LioIyxA1f4Fivr9LzHDXTRpCrlum2O05svAYuP6Fli+kX++pP9MEaS1j90Wx+P0s3Np3BjGKO3bIK0XRr6ir910k/RGZFzFybm+OEbKizNqGuFUrbwwFdUxkdrQMwVUgUH/3NbglRw24cSTPsPWDF6a6bcr4MuNV7XhhrArVApRPtP6VoNt/+ULaMx4JscqgNakC5Ztf/3lf6hH/qh9p/GaSn4ci0u5Rv8R67r7/iO72j/EVrGtMXorgMG/Vr5D/47toz04H92S4lbWlydDkX7H+c/+qM/6lcfNjrR16Wt24+RS71+1v6fFw74AXrxLnQhee4LZQz7NXHrl4Fs7ZQDGcinqyNk0w21BdqvCVPD35VNNx1aQo97tTJq/4Pcxb0VaXKr1V+/Dkg19vVVaKvJUPtvWvS5/yu/8itNt8iRTPVfbbX2Z2dn+1dddVW//tGm/fcwRGQMlz4LyCPXa665pl+OrP33dX1KtF8TlFZEe+mbclytj0JLcNRORt//CtfKvn/55Zc3OtCi7xO68t+ozLq4RqW1qQ2xMUMv6vFL//u+7/v6taJvZJNf5BE+yCH9XhOiQVqe62G+h/VROcE49x/ddYiuX6v3pqPooKfGhv/59l/j9V57azrydQHnVoM2wsvJ/B+0MUe+NYHt12OLRnN43wz60bYSHu0ElCvHmcu72LxB5ogE/fe/89GR6AtdkicezjMm3auDYiMwbr+smoQ0oozZ2v3rv/jFL270x+7iZUSwxWOJbcXsFZGPXnrJuQcrbjPpwQp6atfURb3Dvb3VwlR1Qt2/E0pwbSZzZ872TKGzFKERJ20F7RmA51Rm56uB8sV7Wy1YfTgMY0YeKAVqqw9xKexglq49qxyvDXWfv6WeuBS/1a2OarMrKzN02YJ3T3uh27aubW8HzoD2hG4aHvWAtm2lODQDZ/oKL0DZ9GfyzE69I+465dNGqzTiRzm0OeFbxq3JAA3BPaLKGZWFvw/XIbDXv/71bVtaH8kTyNhs3qrVIwXb3VaHtvvJhD5YIdjitYUK5JOTXaiAPk4fvO51r2sfM6Cbv/RLv9ROt7unHfjU03faV4/+ph3b115XueaaaxoNoTXtiNNON28r012d1LYVMf2mk1bXtsCvqmfq+VYxmukOvYuM4ADqyy8D3dLDcuzyoZzy9Fm/OFCnTTtT+sCWuMN57pM1nOSoXtqzagsNXdzbKU0GIDygn27gpSv7k6XZWIYz8nSdftBOF8jK7oMVr10gfbmWfe3Wv7emo09igc6x7WvYSMadgD3bY9TrcFHv/FrQTJcfONEc9MI550xO3HLzJXXTNrcvnDTrHidQeWcEGHxxdNIctPehYzTXYoIg1aNsDnx5B5UMMgCivMviGWzPOFbPONvOiFKL1aXckaP6QGwrjiMGuS/NqHi251BS2pPfBfnBxXkwQLZFnVzXbuiLYsAfXOLZ2dlWB07XykW5uu0ET/JsbzO6IDSHjpQ5U2OGjsN1SEtfPvnJT259J4+Rt6VKTgKZc9QC407nGCs4XNMfkzVlXZORgUqe8t785je396Ftf//gD/5gO7tAbu6nLr3xGEMeXByebXjvhtpid+YA3vRR4q78R+V1729mOvogxisjjvc8sz5Uj0UcWPOamG1mz/rJEcTAxxGQEXCNR2NyGLq8S5M94DAYRofWRgGZdPGpdyrlNIqm9eTRAU4a7SZoHpOQj0DWsXvrwTWqjD7Td2QBJ3tgQmqbVnBPvnaiy/LIXv4Yls72RL/IhX3Qb75GuA4wOxV2LvYnLpmfv3FnpZcc9Ln1DPqWyen7VKfsMDgIXBzFTbyORk5rEXRGYSiPWR6n5U8I1gPhkwI6REXxDYQopMEc/CkLr7IOxchTxiBSLkotHYghccqc8QeUnsyVl7ZyR7vZMshAgF+Ar4tfORMKzzEZRYNLO/owbacefIyXOjGEKeNeN+0aqKusFaZnpmjVhti9ewNEnvrFaW3yyUE6kybXeE1f4V8dusGpemfYYOR05CurDFBHH5rgOGT2kpe8pE2oaqu8PXNXRhvqm+RlRcxAcsxWg1bMJowO6MFLx7ShPODMTyfgOfqAX9dojK7QZ7L9iZ/4iV49kmm7FFa7kRf68RK5qh+AJxDZuu6mybc77shG2yljXIQWMX1OnUwU0sZ2jOkBek3qPW+PnMiavkQPTpZ2+OAhN/qciaLJv0Oa/mnM64bsXHY0yNGOj8nrGJYOWuojsiRHu5p0aw0HTdEZUTGDMVPu+JJ9cwdq1nPT0nvQZcwny9xeVDfbVKgE30aHxkDidrGNfwxCgjEoOSgO1sc/5HcH+UosqAcoXj3Xa4rJQScfbgAX/AYNRXaalDGNw1MGjsgt6QwC5UwcDIgYkNQRc4SHasXh0FnqikEUINdogtdpdQqhHqcB0AjQGKPvnkM82sUHWtRfCcIzQ8A4OJUI0AFH2lip/pmSz8DREyvht7zlLU0u/mXKl8/0LSBz5SJ7MhDIyGo4QC/Ilf6RMfmajPluep1VaN9r90UxKxPyI0fO2TY5Y6ePMjF0KtuEwSEwk4TQiSb0cmzp77R/OuKuHkmTixhvAhnIIzunzL2L7aS6b5KbCLmnnDogMqZ30ivpqDqAHMkh7bkOTfL0BdBX8jNu5KWc9HYFvKGZwTfZkaYLaCcjurARiE2DAz5tGOsObtI1b5x4J9+nN9OPynb71fXZCpGJ/pAWPErUR/RPf60CS0q8VKAeMc9fsFBe2uXSFveePZN1quV8yAHkAYNjDeQpelrjCAG90oBwbHFbgXjvdzWIgPFK6WyVeQ7MkMgLzsTyKLJTxwyMOvK6Ti9ltQu/Mu57RmYlFHmj2f2UNyu1irbSVcd9IK2cdpIHh2vb+E4PHyoHrYwA3BMA/JwCvDFoudcKrPKDV5MKceqEHniTtwqKbX0L/WRmMsM4ORVvVWsr2ZasU5ldmWMm/SlNLpE5HJGNV0Q429/4jd9o35O2dW4VafvLpElgAK3A6RxZCnD5HvmrX/3qtvJ0zwqcoeao0ajvtbUdZI8G9KCdnBLwIZ980C5WBr8eJ9BXr6P5Mpg68GQySa6ALLug/jCQoXYEEGctrU2rPvZAPnzBgT7tbfdVdBww/qJnJoIAP+G7ZZzED9lHzpENNGRn4ig4K2ERYEdSGW1ud7mdhChOqkrGILmkf+gke78OoNBZRZdtXjx3aunQ5dKKuY7vOUo3OM2SxiDWYPd6HY2dliLo7BoFhosCcc5eZ1oL8Kh+jAPhcrxm3vBEBhkM2gNW2hx5V8EzmKLwynXrmTTkWS48CcppRwd7Dp1tS3lCykUBlAfyHRTjeNHB+SojDVwHPC+fnZ0dtKPuMD5lw2/SHI3diK7CBX83L+2caTFDhB+TI31OLm9/+9vbM2J/2mGixkjhNUYej2SX1VrkQIeA/vud3/md9srVK+ob0t4PrpOdzTkzrvDQM+WtwMkYLgfxfISDI5fWF57lmpFrAx3yrPbFaB8F0RfxVgO6oktkYsygK7qIT9fyjU2yxjc9tyrz9TTjNGMnYy46thb95KAsmYo5ZBMs+NBmh0K7oTG0KHsmOBm0x6bhhz3BC/qzSnN9skFfkLkgTT7agFvfmSCyWb9an5wlV3LWz2lvrf45G+7TQUAu+ogdIafkryYDcixoCOo8fb72M9HceyGc4KQh1UFdWA/ybvnTlSaUOEE0Ew5FkmZc14LwGf4NhivqfWgKarDnvgFBeclK2jMZz2ncXxZyMwqUOhAltupRzxY2g6vzgDZDu2vlbSejH560rS7Aq7aDV8wAzZbjZWxi5MhAOrJRlyNn6NXRLhoYUfhWA9tdJhbqBZKG/0wHvOCDLPQv2QETPNvSvgnsO+K2vD16yPZV5KZv1OWUfSTHO8lW4XZC7Jh4B/dFL3pR297WJ5FdDCGn63CTnRX/3GSbncNWDm764VmW6xhq+pT72u5C8HfztjKt/dAiplvRC/TncRB+jSc8yKfj7n3Xd31Xe7bqy2vGE1BfwPtakDZDA9wgNOgnbbum8xl7xtZ621iLhq28z2ka42I0ky+epDOR32j75CyQR/ovtkSfaS8fv/Fcmgy1L2QcbJSGM7k+udE/8gB0fD26q2zVq2pL9epNtsnlLe4lB13C7U9UGB7kKmqU8MXbHSgVw0qZ8IJuSmSWbuCbBQLlCC6xvCgmhxie82lKhhAehiSKqC7wn8bKxyDIy9eOpAOEr8MYiXoPsqXdgw+tAhp0sEHoBLpvXh88eLDlpaOVDw3qKw/gt02IRw6Co0Zv6EIjHD4gQT74hAcfwQGPOuqGDmXU+5P6p63kuY9edIYndc9kwE8AnzFM0mRrJXv11Vf33vjGN7Y/8vBIwW6EvqYbyh+q7VoO3UE6W+NkG4PqM6K+EGe728o3sodbsIXuGbVtX4eoGN2skDmxbj/RIXWAGO30Xlv6Gc3wuxddzrhIPXqR+/CYiMLTlYN8uEDqtYvln9xzGT1Dp7LaJxftw6ksukE37VodOxf+Q9ck0NfBvOao3Kh21RkFGSPde+gIoGcYtDGq3nC57XCdMWzMGafkhj/BvY2A/oePDgXIJTpCTvrYZFNfKafd6F7qnM0xeRm38SEm8eS3Hj2u/jPQKOvC9PTU8WUHPdmmmT7Cd7wmq0GUQeEa5LpdbNOfKGkUNYaC4fQHFA7pcF4UqzsgI8AuW+HXgR3PmH3XeNhwGSSe53q2Lb0WBCcDbgUdBU/7YjSnD0wKOGh/Xt6ld6V21LNN6jk0fuNgMojV4wRysjCDTz6ZCRns8oBrg5JD53QYBaAsvEm3xL38R/+QqZ0EwRffyEc+edAV8tEPHJGY7NzjzD23k/b8WKyePhAMaq9eOaldHzlp8g4+eqeMOquBPtKeyRPc9Ct9pF76LnQp072vvnt4AtLdGA1oiT65hiPjIrE6cKiP5tBkkrEaKEcOHivYsbDb4OAjpxqjt1r9e/s9Niby17fkGxlvBu90Gz79APRd9FS+fudwlJOPnvQLPVBmDEu635VHxoK81YD8lstMlqyn5upc2KMf3Ztoo7EEXiOzNxkh6wBgEMYIrYZ8O9yLYsXo4CFMW41mm5tyd4FQusG98M8Be18TZPYfQ6SMWf5ah89a5fpRj7HhdK200BYjR8YCkAcMBNukGYwtc40f29ePecxjBo4BTnTiD17b8WgmK3lklT4P6rTvOvdMbnxOMrTAGRmJQ3tw3Btj24tWtGbHVhtkE4NJllbGdISMXAPylfZxjsc+9rEDeZKZctFVuxOvetWrem9961ubI1UH7sh41MpvWMboUY+jZTijp/pT/7ifoJzgHkOb57P0InjQJsAjwKEOQFfuKw+PIK1c8ChDj0021wK4yfX6669vuxT+/9quBZwmHWc7kGXXBpELvYjcXW8k0IPYUP0rpL/FdmBMsjyqMckE0U/tjmFJAt1xQm73QDYGV3O8Va89X6s5f59XyDK5/c3kmSroKBP6CcV1DIXnexwMJU+etHIEGkULjgiVIubglXIgZQyW/GMJXGuB8vB6xYRxNrgyIOAMfgPOYHBtlcY5hr5RbYRWhhlOX2ziRGLU4UEfvJyzHQGAHoZXfSHti9ET+SjLUFpBA3gig5QNDa3AvfSHkxGsRPWfPsE/OXMsVrxWGAxd5KmM+1deeWWTWVYdRKQMPHZnnNamF3DDA5/+JGc6slr/R9zpMzTRH+1qI3Xl6TvX+l3/qiO41qYynLWdFrzQf84RLrQpG16jo3DKA+7DH0eCdvSsB6JDcJlg/NZv/VZ771u7ubcePPfWMmSpH0wSATnrw24/pj9PJoaTHghwa4++alOgj/K90RAb4r487Y1hSQKxj2RiHJDPeqDKd4U4s3dpy7u9ZrV8o+8p9cC46PgzSfgRhMEcw4QfikZQnJ1nJ3kuwDgyMuCuslnappAPjy90GRQMhcDgyKecVkY6ZD1GSBmrCYYYhF5psoYHoNWA0Iatah93sPJ1LYwC+cGXv5+0axBc7gm2vzP77eLr4g0uMomyocGBpfCZttw3oIflN4rGMz1Pn+BTwH83jTd9SyfoFch9j1W8DUB36FH6miylPW/2JxPRU/Xdi2zJdxR0+8x9TtVEVJ8LaEkbMbycn10hh9EYWc/Q6Zbn6FZG4Q1/DLI+98zR4TTvwXquLhhH6EMDHjhU8sGDumlPGXkATauB+vCgz+tkyl9dz/wdzDOxNHE5m4F+kSV561dylpanr+nXRiB6q0/1G11IHrz6xwHJ5z3veW3SRj/ok/L6yv0xLPmO2Af6TDZkuQZ0C/gm+fzcwsJk75rl96Aro19rqCNRgCDT0JkCaB02WgwFZQb55ygOehjU69ZVJ0LNqtPhFYprUADGLR9YSBvDeLvXViJo4OyUD21wdmmXdg/oXH+D6PAXQFOXzpa5/JNVjGfMtuU56ID2tON1sBhMAyq8pFx4dh2eDHzvP6Mp/Odeyg/jCb57U4xXfSMAMtAX8gWySSyfTMRxgnY19CdjCtxjAP2pOwfovuvgh08bcCqb/FZ5xE++VqR/g1sxk9BMEuwG+UtUr3vRE6tlZQPhpdu/DLGg/727/Jd/+Zftrx09fvHYiH7QJbyhGX9i12QQ3ei2k/a6sfJo5/zFaDFWfHnNd+7Pdoi+kbf+ZPzTL3RjLfmuJT/y1kb0OP1mQm8C94xnPKNXfzjSJksmgiaE9FXfj53znbu2+kEgv+y4ke0aoIBgMM7PTM/cVn060Tu47KBLwIuT09M3V+fUOJxvU16NBLGOW8tAFOLTCmjNwEYI+rs0+yLOoXr2m2fKlCqKrWx4lCcNH6NkhWHl6dkx45NZJTzZ6tEZ2l4L3vGOd7TVgbLBo07aC/7IHY1OoPvrwlETi257Bhaw0nj84x/fVmXw4gEez6e9HoTXQNJpD+/Bo4xrqxnfUIZLeWWVwXPqJT94741xl9/IpssnGXAy5ATIRnp2drY5QjJzv6t3Hl94nU5dBpdeKKfPolNwwKUvVgN1OXnAyWmHI/Y5TY89PANnVLNrpA0GPn2YutrRtnYFE0tBHsdgkve1X/u17dGLyaM//XCwDT6GmwMxWdSOVV/4cH81IJvsAthpIA882HH69m//9tWqnhX39BM9IZurrrrqLjse+oesNwLRA31OB7WlD71OJfiwTl4n1VdAmWGbsREazuS6ZBFdlyZP49AYWwfEQSs6PzOz89b+nv7ENdcs/x90y51f+FR1jOXhNOQ6ivCjGMpsd4iQxAxWjAJeHOKxPZdZXwwh/hiCAJ6VB+qbQea9zDhQ966od6QZNWUprPZWAwcsOLrING3EGMofpgMfPg7CkK/loNGKBoEjFmtDu2I82A2IjPAfXuUBsgi4hy/bnHn/OeXQSY7RE3XwcW+G7jjoygnPkak02ZA9ucuPs5HHcWUQK+tdeDJWDs7oa/QghlDZtUAdOg6XP/vwX9TPfvaz24d0sv0Oh/bT7wx7IFuo6AToUQ7AGX1FIxzeGHja057W3us2rnyOlMM24YBLeeWGZdUQjvhBfw6TibMSd2KeocujmRFVz4os41WwmrXVbBIOOAB6lb46WWHod2MaHu0A/acf9QUdMFn3CILe0M2uniZ9su2f6fXIJ32QtHHQXYitwePA+JY1vnXH/M7mhNpPIaq94N4natY6uawI/rt00DFpeI0GTvttShPD0k2jn9C8yiIdo4FHiikOxCgqRxGtCDwHo4CMLvlwzN5pZawosFhnAPXgE5LWHqNjWxAe1/C4r37izLaUEdCig62ipZXr0pc2tY8P9aU5aKv+bD/K9/1tOAFZwJs6aADqgigY/rWtHW277x45AHnhtWWcwT/6ZLWAtdwfZlN+V4bkDrp9qwzZkWHwRP7kCPRPtp3Tz/LVUzZp18ERYwqvrWCvKNk298UyKx/AgKsTuuBSj15oW1AmuNKOawEf3fYYbHkCR22l/vM///PtNbHnP//5zZkqb3KiXYA3ea6Tdt3Fja7cp5/opYPKne2gj8jDeLNLRk5kRz6RGbmebCBf/WrVHBzS8gKcM6CjygS66eSdbbH+MVb0DzAeTS7Zff20DjBQGIKJGjc3zM2caIgGNefn5j5ZN9sJlxoQbVRpLINqHQ1s6yL4OFRb3FYtGfAEKk24eI3SY4RQXVNSB2h80pOyKu+5oq2+KG/XuHVxdwXi+bPVaAy0NoE2gHpR9NAjjxH1DBiEXunQJw0H+t1n5Kw2OOSUEXsdDC8pLw+oA9TXvjbdc81JeA4Yw94Kjn9GSoC8gL6LHomzqqUrtm3FdED5HNaSx+iRvckPuesX/aHP3FNHv7hmlPWz+4L0M5/5zPYZxn/37/5de/QCp7LwZeKmfujTvnogutAuVvjBy2qBQ7Vy96EV73M7XGnli3Zt4iftK+s6gcPBu4lg5KMs+kyGs/2+Amnj7LEETrsEMoboNBD75kXG2yoEdre3GZHFfn/+ppmZKQ6ivWbVu2VqypfEbqyMO2qg1Fc/l4yMGKTxdnEG//gPZtu1jAHoGtLwHAG7lzzO2aEa14Lnz57JAMaUIVEeuB9IfcbQu64cdAANqSN2HYOpTGhU13M4xq6bL536+ke5XDPM/hpOPjyMpFfCTCRSLn2aMvDhPe3CZUvL5KDLk3JjWFkCXflJe42KYwbkSN4C+Xrmql84LGXc1wfRQU6ZczUL16eeAes/ZZWhe3ZKfvzHf7z3yle+sh0A0yZ86V/1OHHX0mI44IRDm9pZC9C7WuBE4ULTU5/61PZs+oUvfGFzuNoxyXM/IA8+tNJt1x7jyMODslbg/j8azjGMJbDdJRD9FtNj3y6XTv4K9MdBJz42Nbn46cnJxbZYbsuoqVtuKYw7/Kv07YWsvjK29Dx0DcQrtLc9szk/hsC3jgmPkRJADKZ0DIQ0w8VYMIyctDQnl4+BqB8ZuQdiXKTdh5tBzd9exlh262mzC+okuOfjDfnQivzQzagBZaSF0Pzo+gwNA4ceh9lsfyoXYxx61UcLvEkzmui042BSk3a6dVrh8c9AAmQbGcqMHvjsqvfIrWRNlDib9BUZP+UpT2kraXqVnZj0kZUypwr0ibMI2oDHatPhr+///u9vfwOYU7XKqschZjVOX6T1c0K2RuGLLqp7ssDhA/yZiPp6mokD+qyQtSNYIXdXydkNwJ9DZng33oBdKs9ao38tc/yzJRKgv6uFLWn0XoY0dtnYNz7tPoJV7GaccitWPwx6DdTeZ268sQZEmeZmlctQLE7XN9cr41MVmtfqDorNGMCF97QDA5G/eYwBRZS0ewHXlBUwGJy7U7AMqu3jJzzhCXcxaukAMbmlbmKrKCt30JWr+2lLOnKWFnS48owrutGCBiAdmrvtSsNzRR1iYyThEHt+FPwNQf3kOnQkH27tOrluFQ0HvCuB+mc7dOVDrq4FTtVHcvQVOXFEAY7Ka0++022lzKnGgZO5iZ3ynDQdTH+rx7Fzfv5TWV/RC/lxzJw9R558TtIk721ve1v7JoA+1ob2pDcK8KOXw3WQic6iwWG1n/mZn2kTRHLBD3qTjp6rhz94OHg4rrrqqrZzBc8YxhI4kyTg+bMt7nsI/foO9811/O7WGvNtu6l5pb+ri+npRaecrq/QHHTX4HTT97DBbVOcMTLQnTL1PmfX4LnXdTJJK5N0Dll5buj5GojRVUaanBgf10kr593RdBbDFIOYcqmPDiCOkU/aCVlGD8RQt4v6UbYLrhnnxz3ucY0O77/ivUtTcKRtMcBzDKJVP1q7/d9NK5960mczkEv6QVogGw7J4w2O0H1OVJ40XXHI6tu+7dvan650Pxai/+LIlI3j1h92cF5Rf1/pFDVc2uGI3RPbbk6/cHbvfve7m5P0v8sOcfmPaR/BgV9fb8YzXvSZvIo5avSjwcreaXL0+i9sbYZmOki/ySq0o9fOD8fuuTo8kevZrF9j3re/BNhOukrvrZ7pMn1fB1j9MMDlh2c+vGN+/vadO69rK6KlUyLXXbeweNFFVtC+59i8hIGjIQ0YPPcGIDwf8PBVJO83R6B4xCueGQ1pECcmnS8vcdRm92SiHoMIlGWcUkdb7jNWDGSeIctnkID7MVAx6vLgCQ3J5yzNyhgvZQSADmUTt8zlH6usq6+++i7fgUafNtUPz9068JAL5bLyUw7NoyA0jrp3tuaRF/mCyFr////27gXYsqssEPA5931v3+70K3ZekE5CAibgIJRKlIFWeajojIOkqFgQkClFqkaoESnLmqopHyVEpBSNRclQoPIQCC8jD5kA0gQoFM0oYkJCEmhIQ8DOk37d5znzf+ve//buk3Nv32f3vX33X2eftfZ6/utf/2Ottdde2274Zz/72WU2bPkLJF2d/mY2/N73vrc8u7Xiot/NnKXVJ57P4jV9ytAy0iD7AM8wfPLAwWDO8vpHP/rRcmwmg2y27ktRDr7xyMYGNjNuS8rJx6XQZfzJn/IDB364Zxu9Ow1HAwKn+tmsKV6YQYs2Msb2dvz3OK3qpTF7ZtytLIivoabAeqcAvZm626SMzifHZJQ7DzA2LgnCQPfdGSPmwzGPLEpkxkBHxNTWrcdjavnNSDRnoMM/Z3D4NzIk8SgFoxuvTqVRTeWUxNROCiONrXtKzC5Vm68QnOLpzEcpCUulRFFSgDYLpPJSFlBGli8ugTJyLz5xhpcvYFluduCImYp4IK08yQBVA/GUpzylzNAMKoA8rmwbv3zwVQ7cKXbLjGb8nn1nHvmzDv4aTqYAuqOPPqv2p1SWlm+88cbyaERfSZu8x48nGdy9e/cWI37zzTeXrzox1Ppan9uY6NU+fMuQ5SYvS8PJi8rKZXGz9j/8wz8sfSiPTWQ+n2q2jCcpD2Ub8CUfntyipd1RTPgHDdKvLrSAlwGfmbTn5o42tfHRmw0GnYy21QMb5l4ahtn7+tqVebmrgePSWlSnrimweApUeVUu+pqcAbw7j+5Mw1ySxV+72WzdG2WV588C00C3H+rpGRvauuOe8SOPHO7paW5XISExgj0bgBJjbICvBr385S8vsw3tTENLuSZU/cLc+5YyRcnAZR6KkpLLNOmqi+I1czH7TaOdrg7rRluzICBdpuWq0/utnoXzU3pwp9woRPcYgYKmGJVtJmMnLbcK8iRkO+VVrlmLco0APT/FA4lT5kl3HqbL6E3lohnQ5wnomYblYx/7WPl06HXXXVd4R5+J4+IV/eXxCR77ifi4hg1T+hIw6lZwcmlY2uQ5YfowjSJD6J1kJ3zhVR/iYJjtQYAjXtL/+AV+8urHlI1Mk/yUbZEm4+AD1C0Mj6Q8KCfjpVEOsOoE9sYg5GUve1njRS96UWmztiTfwUVeZWX9VTkoBWzSv9QF2U/ZZ3m/Sclyxptd1YF4Gf/ab+SzqWSUDFfTZH9VwtJIcw9vGRy4Mwb0XluoLHG7ufvuqb6d5z3Q6u97IDI/huCl8kgFcMapsQIEMDiiUIpOPvIc2vvMSbBTFc3IMY5et1JGElh+fleWxVUfxWOZmLJdKVCGd9xxR5nhYgJ1ZD3pwssFKGHhZvx5YMVicNAORsYGMTyQRmIxees081OA4fSFJjxnJswIkS/9hM5p1Pj1oSXt6tIz4U/DhbfMgPGXsMxrI6ETvSyp+/60pXCzUbwD5EvDl4ZZfcqxcmJgh8+lyfDkbfmzHunhqG7lLAZSl2Q+eRl2OFXxEo9vAbd6v5h66jQ1Bc4EBchMyoUVWhMz93g7+bmKl7CQrXx2yG3GBrHv9DX77SybEYDwVKWrNbxt6MGpY73/Pj4+9sQQvD4VqLhbBdXKNoKfogEE3msvlh3zOTRlpJ2ngnxVKWctWR76pJLJMtSnXCOp6qwq45fjMvbOFKd0QSrPVKjCKD7h2Wc+6LFYyHZYFaDk0Uq7alg5BRhiX64yqrZk7XGJJbA00gxkGtvkRf0oXh9kX+Ap6TyGEA8Yayse119/fVlae+UrX9kwU7eEjfekT5BfecmvKd/5apN4F0geyrTC1Jn5k8/ScIufD+APlJnlZli3PNm2zNMtTR1WU2A9USD52n4TOtTgNWU5ZQq+0s3ydypXgjw1MND///q2bDkUs8cMjwM+T4AzHI/E8vY/RObJWcEth5ZQEmcDIAxCWbq1Ucy9dlaVwXztlNZFkVJQlIuysgNS2SjLJY1OuvXWWxc9y5ivbuEUvOfCFLE6DZ7UDyeQbYBH+rni4bEYUJ786vHcPNuW7mLKqNOcTIHsC4M6S9g2bdlJ7StNniUDNOdn6PCNfsi+ZVz1vTh+5ZlNp0xancHLv/3bv12e53p04+MqjLONWPpf+fLwKyMVR/arsmwY80WsXFrPwbn0ZtXwgVvOCuCTeAk7FajLBQdtUFa2tZo/47iuGmoKbAQKkCFyRXcy0OQDX5ORTpjl7WRuo2F2eHpoaPCfwz3pmfJJM+hY9h3funXHvzYaxx4OgRxOZU+QzgZAQIREOCdk8SOkdp4KKJdUmvlM1z0Flp2jjEyDZjZZOehjNRQNxUbJmtl6/SQVb+KV+KtXHICnGVQ3Jsn06cIx2+NVNIMYYZ3lZ/raPZkCaXhODp25Q0c8xmCiJ977jd/4jbIEfe2115alZSmlw0v6IY2ocPxqluw5rr40806++5u/+ZtyIIj67QR//vOfX9IaEJgVC/eYAp8rE6jDhkO7vO2otkcCbnhHXeo303dKmY1b3qO30zx5O/kJb8E55aEUvog/OLm6wUJx3dLXYTUF1gMFUsYZ57vuumuOv1Oeu+DIqKYQcB8eHh789wMHDjDYabxPWuJWxvTo6NDB0AW3h6DuDqXSl8brbDDS2RYN9YzVx+gX+xw6DZ/ndIBySmWicxIoYOE6xterzEyq9Wa6pbr5HNFzRs8zKV91AbhR2CBxoUzFw9NsKsNLoi5/cKbApTfrT2UMd/4aTk0BNKzSmV8YSBoylMLwn1ee0NrXiexu1k+Mnf40GGMs9at+sXnPSkg+t7UT+q1vfWtZNpfm93//98sRm4wn3sMf8psRy6sM5Rrh+2iLmTxeslMcj4LEVTq4K9ezcPnh6AhPeOIraciCdAYPltxXG5TtAqshQ6uNX11eTYGkALkmdx/5yEeKS18L4+Jd8pLyFTzNOGNsyoESn+rtbd7ZP91z3969jd44wHFuybo6g450ZbT+QDifiutHo9D+EMbY+j2rZSTYoKAJlGQSy+zWSMfrHYsByi4NIqWhvJyRpKucJJVZi+8/g6yz3CzzLxWVZ+fw/qEf+qFSrvDEK5lAfWnQKdnMe6qqtcNrL2ZVQFuUtRr4n6rusyUezbrR24zU4xGGFz2BWez73//+Yiy9o2y39U/EDm4Hy+Tytz41aPL+vgGlFZmbbrqp7G2Q30EnTiK75pprivHG44w4HPCsevEA5fHBD36wfMjCwFFZyk4wMMAzGaYd8qvDgPCP/uiPGh/4wAcaP//zP192YfuCFeOvXEv3SwX4Va+UoQxTHn/K01LLr9PXFDidFMCrVqLofPo4ebfKvxkWeBE8SqAV8c0Ib4W839I3OvHg4N0lbg71TgPdig0sE2Fcbg1l4h2PYQKbQjuXa4N6KJwc1eQSn7alwlyoWfJRfsqQxz2gdClT4UCH8JuVmCXpLFfGl0TL+FMfRW0p0uDCJyUpVeVSwHCjYM2g4KBN4ihr+RLf+aqmaOWxtO0dPm1UTnVQM1/eOnx+CqRQ4hP0dI8f9J1+8dzXDPRDH/pQ4+/+7u8af/zHf1xmrF6LMnOV3pK2/PldbkZev+h3mwBf85rXFEMMi+Rl+fQ9HjBL9uqV8hlnkPyc+CgTyA8//a8OODOe0sfyW+ONb3xj44tf/GLjFa94RTHWcGTA8zWqUkiXv+QnUcp0nQrgUUNNgY1AAfre2QMG0uQy9TV9TM4TQt5y9lyWhkK2ekL3jsUGsX8ZGxuZHLzqwUbjtjKznonPjOnG88f2nosvvmtqYuK28cnJZ6SQZnw3NxVPt7j1EkbxaEsaIgrSu6kveclLSvhilEG3NDnTocQoQ2nUY+nS61yWLSmwlYJO1vEUqeVNhz6ANM7qpZAThCfkM8O8r7oUNMhyGAGvCGgXpco4pNKv5qv9J1Mg6Xhy6MxdxqWLB10JKWNo7fIKoJWSKuiPXOJOo6lffV6ScdRHBp0Mu9Ub/Ykn8KBvRP9lnCinfmHcav34NkGfuxL403iTGX6HjJiBe4ZtU5rldPwJH20B8JFXfcrPGXKWy+1mqLuFVfPU/poCZ4IC5IVMcfE0IKtkAs/T8VbDgHhygufFkYXUoVPTU/H8qNGMNFMR1xfltUZHt3x5++DIv9x98OBkvKSTBryU1W131FTv5OTh/sH+WyKFFygNdWe0eMmyMf8oC6MaRONHaMbIkm4SfCUtS+WnDH67rXUSZZmds5LyKS44gwMxkzHL1fmu1QIzcO/wUahmbDny054aziwF0ujqG/yrrxyfaQNXDsA8L5Yunw0z2K973esaH/7whwtP6sfqlS3CW4uBNLjKwIPvfve7y4Eo+EQZ+J0siZfWBdzXUFNgI1MgdTheJoPuDZqtgDHcDpEyYAXSkAdpqrJA+kRLE3qbS/LGhwcHPj/V33/kqTO29sToOBJ0M9AyHhsaHfn7cA/G1XWkK3wjAUJ1GmLP8xz+sRpAGaWiy+UOdebMd6V1YAJgkOEZtAGAwUa3di23LjO0XAJVRirYbNdyy63zrZwC+gL/Ug76w0z5pS99aXmX333yAWON5xjLd7zjHeV8b0vc8rukcy0V1GGAaECYRtjrXX/xF39RnqELywEkvyv5hr+GmgIbmQJ4mOwlb2db6GOG2Tn6zqgAKWfJ/xk2PRWTqRC/uHexvfZ33Tu6pX9/DLgnbo0tYNJWoZuBttNzvKfVc3tE/kMklqkMsasVVgtZjsBX858Ov9EMAufoxz0l5sH+asxCdZxyKCmzCzPRNKo6bKWQtOdaAnVoyWoCulDkDH/OyNAoVxxWs666rKVTAH/lTFVunzy1UZDs6bs0jvgDX3vE8uY3v7mM8M2sU2lUZbXqPxVGORjMdGYP6lKPr2NRUpSVZb8qr6oj7zNv7dYU2IgUoN/xchpre0c8VrR/xKupeJ3OTHuSel/6WRnIkXEa6KnhkaFbJ1sDt5//7W9bHs34OfJ0NdASxtLvgwNbhj4e/odUlEKW7lwJG8QDb0qMS9lYIkQ4O5YpuNUCncTI5Xulys2OWkkd8AXaAF+zFwp7tQCOeUQdJkMnYUtR4quFS13OoymgT/RFDvp8atJSdvJAKgZL3IykM7gNFCkLjyvk7ezLlOXO8EfXHgoh8gP1Z5n8eNGnUD1/wy/wAClr/KspX8qroabA6aYAHmYvqgNhg1QbgT3qSTmEV+p7cpIy0dvXS4A8j+SWGVvI3wNDI4OfiOfY98fsuessbj4DLfHUlqEt/xTGzDs3WWB4Z5a8i2cD/VUVDLTduyxxe1a3GkA5UY52ueqwaqettHy4ptGkGC3Pe4aOaZIhVlIHZjJYwYBV5bqSMuu8q0cB/QPwmOVt58IDvGDA6cIfXqvCf56JCasqlZJh9i+NczVsIX/KjzRwwHPC1GEm8fa3v70MCHL1BQ9Jlzy7UNl1XE2B9U4B/I7X8TxZJFf4+53vfGeZkKUh5uL55HvpGfepyfhjnOMln3DZ3fbIlpGvDvT1/mNsCDX7WpKBjvSN5gNbtx4YGGje1NvT86AKozJr5uI2HCAU4CYxKRHPDYyCVgqpQO2AdtpXdtRKy8386I5BAMaAt3pm+yWTLdu1C1F56sBQ3Oxr9dVwZimAn/SJQZ/TvXw3GVAUCfrJ8rb3ne0nyH5kNPVl9co83JSNalinXxp1KdOgwO5V5WX9lvgcX5qDUsvdcAbJt51l1vc1BTYKBfBwyiAZsCrlbRpnEljdFJbypU0pU+Qj/DlrDiM6s4zNpg4O9P5tq9X3zUjOqM4YKJkrsJDmbcWQeOycc3b/43Sr9VWVQGC2soJMpZx174U7YJQZ0zxdK99XXmkDlK+TPIszs6Us87Wnmf5ZaQ0xxJpVeBjCrN9SOlDvSsFrM5RsGmOuNqlztfBfKY6bOb++SCXBQJsp6xd9j5+t3ACPPuyrsPwtnMHs5I+UBekX27f4IHeHkyH3+JDLGCvHIQ3eihAPV4MFVxpx9dVQU2AjUoA+dDAPl1zRl38Zry46kwJ/kwNx+D7lixuywfDOzJ5njHDZ7dtqt+6J16tuiXLMnue1w/NGJBHjmdbXdu7c+oFA4GgYHKeeFGEkrGmA1uKYv6x/tVzEMpOAfyo6fsR1fqpndyBHQ/xGSa4EiieVkrwJGa4Oh0FQSuK5QMetFJSNMRLgbSnzQDxn1C54JcBHWkzDTSUuPnHjp9TFSffJT36y+JWTsx/hYKn4w7V6yY8ecIFb4sVNw6IeuIgH4uQTn8umJeIs/UOfhS60SH768R//8eJHY+EuPA0YZ8d5oqXypEHLatnV+6WQ01I2kD/5LXlf/Q5qMHA0wxZOR2yGvlsMDfWDyQBImug3KxEJ5M79fAMa+dCWvkV/m0VB8kWWsx5d+pX8ax/+cWmLNqMN/uTHR/ye7wL3ePl0AF2fOir1UNbNTTtndcqri75Opx36S19KI58woB2hv9wwFowABW7J68Fzz935wenpIwfCD+Zt4CktR4waHo4KPzXQ339bKlOI8kMMcVNwZ+pan/+IBeCLkLkUx/X5SbNeaXSQNGkYMIoOEZ5MpTPcYzodkoxmNGW5XHzWxZV2pZD4JzMo0yjOc2Nx2R5+aVxwgyMmd69NBES4NhlgwVUaeHOBeFfCcvBPfJXBj3boTggTF+Wib+IuDi0pn6QxHDeCAkparbWr/9AMDQE64VcXOlPa6Ie27vNaa7z0LQVnBq2v4VPDCQqQN7vpvTdr9cMJbPoodQeXzOF14fo1r+xrcpL9jA+Ul3J8oqb16bNiqY3apD3wx5va5J6O0nZ+Mi9cPFrkgGYtW4b26k5cuED92R9oz+8seyfq0Zd0Fr0K1y4gMA00I0Aomv39fd/s7+/91Le+dfjh2fhwusMpDXRkaz+8++gdI1v63hOCZwjYnJqcDHzahTlypNO9+PUTSmmk4oB7dQZgFup0JEomGQhTYBqQnaUzUvFIZ4ZQNSjeIfb6kzh1uNK/UkpkvekqjzLev39/Eewc3WFsjKMt2pAG0L28XKAtAHM5ns6HEwhI4pu4V+srGZb5B6fcjKdMeOkPwIWXS7+gNzzgYzYIx80Oybv6mXJHnwzLvtL3HrGkckOz1eq/U9EfDgy0vRH8KTP8NTSKUdZf+N7Z5Tb60R14WzhIWpFNsouGwjJemiuvvLLECZM/84hbz8AAOp6YgYMzOU9dhEfxs/a63ItL/eW8+bUG9aoPoC18QE5u4C2NMyhuuOGGojPxuz5I6NIXjHIaZoIg8Xd27dp+Y2/vxDfCL2zB2dtiDHSjcXdjvL9/9KOx4+xzCp2YnGym8ULIVPYRt64hZ4WIj5jJDJaePPA3I9VJmCeFggAZ0UkrLMPlz3t+zyeMrLxeBcTp1NUC9ScOySzak8vcjJnRtJGpEbo4faOt/JhenLbpr8RNWks1jDTQr8mc6uPnLgfQJS/GWR3oYsUFPuqCG3zUgdkZ8qxPvOfiNZxQ3njRwBD9khe52c/OUu9UfKeDfvpMXyb/ww8kjqcDh/VeBz2Dxx3NGt88KLKhr9AI7RL46R0u+QFpPHxUxdGq5ATghUxTAtbpH73zkz/5k2XwiFfTZhiwaKd4oF2po+g0xtkXB9ca4IRn6cWkJzf7R7+RLTNn7/7TpQbL8BWXeZQxy/s5cyYIDAEl2hoc7PunLVuGbhofH5rYu3fvzCxpgcYtzkDHSlrM1g4Mbxl4ewjit5UXDWkHgm1E3AiQCgOuFL/7qvLwHPrTn/506SAzEKOjVHyZTltTkHQkgRNGeBg5m2SUnelXky4YIHHmVw+muv322+eOcqQkMTfcCIB0puNXKgAAI7JJREFU/IywtOKSkRhz4HASJ05pl/LFp4HUDvmrtFtMm5SR9WR69MTYaAvSEGuH+tQD3KfyIRBm9pmnJNjEf/pBP6Yy6SRF9lfy31L7rbO8pd7rQwqts++XWs7ZmJ585arRnj17Gs997nNLP9IdBl2UfA5Uk35kgSFwoSuj7uMojDKZBvo4ddJ6phucn/jEJ5ZvjGsLWpD75FFtTx0gDj3w8TOe8YySZ63bpm4X2qM7N1eihNP1b3nLW8r7/nQZmtNT8E76a0u2J/C1VMlIM9Bcy7EHd+/ecdORI5P3xWRw/MCBAydGZRHZDRZroFUwOT3U++nhwf4PB8LToSSajFMahW6Fr6cwSg0gYAoAF/GBZ0PeabPJprqMqLMwlE4gSNkh2u0ZENe52H/9139djGV2LhdkveVmBX9w6FS88Mc4jpmzRA8X+OVuQ0yexk1a+eHFNTK1HPonf/In5flzMpd2Js5oU6XRUtGXNy95P/7xj5ed5+hLYJWfbRKvLRQPhQRsXFutk95KgRv8Tx8ZZOlT/uynqmv5WxzIPj8dzdaX6tW31T5NXE4HDuu5DrJY7Scfu/mpn/qp0pcUPjol3cgoOZaePOYyuE99Oj0uJ0Upn/p5vQMc6Zxf+qVfKnrKilrKP72lzWjAz/ChyeWXX14+pYp2aw1Zd/YRusOFLuKn352YR7cmr3NBJ49HW6vGmV8DpsM4f7KnZ+jmMM5mtTLPFBCe+WApa5fNiaMTY1tGhx+MD3I8JYh2HkXBaEUDZjTCfLWsg3BETOJXCZvMLc4GF4xx4YUXlmUojMEwEhbCk0xESUovzLvDf/VXf1XOIzYrzc7KeHmVsVJQbuKqTEwDhFuadwqY51qXXXZZMXLSSqNuuFSFgMAbkLzrXe9qvOlNbyrlSpt0Map3n/lScaykDepHX3j5BrdZhHLhJ86lfjS3BO55PoGweS2FZCX1b/S8+gLo72uvvbZx3nnnzfFgxqGtFYc8Tz35RXz615IO+unFL35x44orrij9mbKQ7lrWvRHKxtdki2s2bKna4N7ANI2wfkIvcpHywLD99E//dOPXfu3XCm1z0E1+yAuX/KxnoDPhevHFF5e9M/aWaEfin/7UBz4Cw5g///nPL+nQbS0heTR1HZe+t4r3iU98ovHa1762fOUPfiYR+stgmL3A98KVEf1nMusisEZOrSind2ho8Eu7dm19/Te+8S3P7NZuRBXKdXjHjtH/EZXcHww2HUhBRoXr/grD1g5GLngG3m33obzKPTeYoPh/8Rd/sR2d0o5OKFcQvR3CYjm/HYbLbTsMXEnzohe9qB1MVsqx5I8O7rOeWK4pYSulT3TyXDkx+yx+dYSiLn5tufrqq9sxWGgHU7VjFNoOpi+4wl1bgunaoQzasfO7HZ8pbMdApOTVdmWhiSt2XM6VmXWtFH/la0Mwc/tlL3tZO3bNF9xCcAtNQ2mVe3SNz4C2f+7nfq7goN5q21eKx0bNn32jnz/72c/O8SF+1K8glET7D/7gD9p4Lnld354O+unfeLbajsdEbX2K50C65WYT/1XpELOwOdncv39/m74JXTrXZ/oOn+rzJz3pSe1f/uVfbn/lK18p1CPb+lt5KTMp5+udvGHMCu5k/7rrrmuHsW7HBG+urWHwiu784R/+4XZMHIqO1aaY+Kx508iRC+8m0Pcf+chH2rFqUXAkVylLbEVVV872V1lpDr8H6mZQY2ELzJIfuvAx3/frF1xwwUj4lzSZXVLiKLxAzNQuHBs7/rtHjx77hWCmbcEsTTNpM8hQCCVNNLKMQKLRZQZqBLWewXMPOMI3OqHMoi0nPfOZz2xcddVVpQ3CtTGEpRFKssxUnBy2HtqG/kahRndPfvKTG89+9rPLcphRutGgdlnStqnMs3KvlWmLfgLprmUf4Q31GHE+/vGPL5tGnv70p5dNIPDzDeRQ8OV5vlffQgDKjEMebdvsEEawzKre9ra3NWJgWGQNTdEpwWjfzMN3oEMu517tyfhurvyn6n+8b5ZATiyxKjvxCR1Q8uvTUGhldi8s+c4sSdoaZuQs+wvN0dFlg+mXvvSl8tqkZVSzZruefRSFu9Hph3fwatoHM1OrYx7NOW7ZsrY2O4SHTshVGPkA/lsJoDG6Z/3Kwp9AmPo9drO6oS761HG5119/fTlrXl8tJCOzMjQ1MDgwPTE+EUU2x2McNRhy0Nq6deQ9O3YMvebuu7/jxXXCOqN0Vb4GwAL3b98++owQvM+EfyIaZGbUCiYqs9CciQaWc7OxSFdGIRvJ1S4zSCM7oz1XjILKvbat17Yk3kbl559/fjuOhWzH8/Jy5YgV7sFUczPn09EWeKkz6zJTh5+ZfAhnOwZ+hd4Zv55pnDieLhfdQtgL7V7+8peHrmiXFR2zKTMTwG92Ekq99Cu+hV8M2uZo3g3fap90i88wK0Rk3L1VIqsh7jP/K17xinZsJi0zkVCIBSdu+kvAJv/TR1Ww6mHWxtWPZov8QLiVL+7ZANqlPWam/HlvVS/94hIyTd6v1EVbK3QxGShF6QsrjTmzz7qFxQcw2rFjvqyM0kPJ4ykLnW7otqn+gX6zZpfZxDjjPDDQ98+Pe9xeB+cbYSx5lLqcYYlhR2v79t1fnJz8zv9pT7fPC0JeHsg04ypr854XmCUZaUdcJF//YHOLUVZe0YPFb2QFjGqrEB1SZndGttGB5TlSNf50+43+4AFvs1F4J+7CgxlLfOINP+H6R5vXGsyisu6ksRm8528JIQQFfy664qdsUwhRJtu0rj5EF7OtUHTFj1ZoC/hjENlw0pgvTGW/6uOk7UqIl/2WfQkHfn2E/+KxRFnByT5TFz+8a5ihgH6ogvukF53Jn4C2+rszT8ZvJDd5MWU6cdc+7RavvdlWPJN56DS6YyVAJ1r9AVbjXMo0UwZWQdVv85pVoD//8z8vq43wgTNbtgAEqtOt9lS7GV+tmo7vPo9Hvm2TkxPfvvji824455wD8bGqAktWtEu26IlkjESmzj//goPTrfHBqanWD0YDo63DRiflOFACiygajhDrXUjhCV9MAVcdA2+dlvhX79MQZhuTLmfKTTy48DdIcsGf0GuXNomrGmVhLu1ZS8h64ad+9akXfvBMRQTXxDPbJH0NM0tylJnByrOe9axijNGIAkFfgEfJ3i233FIOefGIw7Jd9vNy6Si/ugClxp98hree85znNH71V3917jjEqqFZad3LxXkj5Eva4H+A1w18GJA0TNJsdMAPKdvapZ3ayPC58FTG4ytp0CTpUuWn5dACv6aO6abHyZBNrO95z3vKmy1OaBSWxhk+8wCjm5HNdqtt5twfMnF0z55dbxsenn7Lbbcdn3jqUxs98UbrkkeqyzbQkI1Z5djOnbu/EUOG84IA3x+N6AvlYEmrafaGEEAj17uSTWZIRoK3TsEsqfyE8adycq+NDMyZbl/inUwIH3i6KFBKO401vKttW4D5JF0VQCM4wg8eAF7VC22lQdNsh/uNwD+rQqQFCqGk0cVlMMnwMtI5ABavz9EwHhuUZ9BOtdO3FCE6guUq++wX9VOoysmZD1x+8zd/s+x90G9Aeryn/gwrEZv0Dx3mo332HTq58LuLHw0ZbPKz0QENXCDbqV34CB9XdRaa4DVu8u5K2q8cspH9QO+okwsXz8Ht7Xjzm99cTgtTZ+IjXt4uwDiL4GJ8Rx5uUeb2nVtvHB7qvf7AgQfLEmEY52XNMlZkoAMZG40OnzMycm/f4MDFwUiXRqN7ZkfYZdincRCep4GKWDeg8+CZHZmdmYrRvbYk6HSgI880wA3AKf15LwwzEna4Zrv0jUv7qu0qBa3yX5Wu6a9WAQ8Aj7yq6fg3OxjYoAP6MLo/8zM/Uwy1fs0+1NfSeUc/z4YXlhca8i8V8IxyuXCgWBlqytU7vbHTuMTrx1So8FRX9u1S6zzb0lfp3imj2pq05aKh9Pr1bDPO2pW0wCN0kgGJtuKxHJygCb1lsrdSGqCp8rkGPPzqiZXgcn7F61//+saNN95YVp1stE3dk/V20T+pkNI4u++JdvUPDQ9+fueObf/r3nsPfTPeeuqLx3jL3iG9YgONiMeeOH5o+OGRb0VjLosdbBf1xMcuESAI38yGIcxGgGSSVCrwrxoMbSA80nG1az20rYoLfODnAtpgBp1tEiaN8MQ9XXFrASmU6sm6hMERXjlwyHuueDi6apiZdVBY+ppxzF2v7l3omDRjoO2rOBDnzHvOj75A/HJAPmXoC4pNH1JeP/uzP9t45Stf2bj00ktLnHSZNvtwuXUuB8/1nKdKh045SLrBn198VT6reddzG+fDLdunTfiITgV41qW9wg02M04ePJRGcr6yFxOuTOWpg2sgYEnbt9Md1uRb5vbEeE5NlhhxeElnMNwFNIBiYkMJV3PLyEizJ7aIPOYxe/53ZLk9Hi1Nr8Q4R5lL31Um06PgvkZ762VbDzWPte6PR+VPigbtjoY1Z4lSNo8hzHoGjADgnJd7naVDMVAqwkyH2XQihbUe2gfPvKoCLqw6e842aYd0rtMBVfqpM+mK3imoSXuu+OyX04Xj6aDDcupAH4Dn0ER/+liKAyyM+BluygTw40mvB/J7fccmR/RMqPozbCGX4lInUL9y4737srQd760WJZaGWz/nrEc98iX+C9VxtsclzVPmUga0W1zeox/Q1+BsoF0aRm1LWddmbdTu1A14GH+5T10gXdKuEGQZf+pUHh4Fjh12ENJb3/rW8oGj1OUMM4NsFRjO+LzK+7NVp3EmUKWTYgLUHzz/3Used8Hv3vXVg5+44ILBwQceONbVss+WsShnVWbQUVPz2KFjEzt27PzGwEDvg63pxlXHx47vCiKb8peNYxoMdAZiITg/MEJCvDMJySidOMAx8Ux/3ksr33owzp14L3Sf7VgozVrEqXchOourwkLpq+k2gz95jgLDb6k8yI133sWTq3QZRYrOcYmXXHJJUUiUj3BlZFpySBnKx+9KEO4CFJUZuXh5zZx/67d+q5wTkGHSJH5kOsui8IRvZkhaoAF/0pY/4zr9meZsoJu2ZDuzPe6zjfjPVdUB+CzzVcPlz7TiEzoNujx4zwXwoBPMHNtpSds3nfMLe+Klzz5Ine4+B6byRxozTYaL7aSwmoFDf/D+XZc/4bFvvOuOe98lPIyz0eyKZz6rZaADl0aPKf3IyOh3Bwb7jgTpf2B8YnxrvIvZ1NggXs6oC9ER0/Mrgkxx1FBToKbA/BQgKxQFuclZALmhNHxr14cILGVnupyFUE4OujDbFW8zDHmULpWc8nIZUfmAckwjTnGpwxKgDWEvfOELG6961asaT3va04pSs0scHsrlUprySA8P5Xcq5/lbWsdsRgqkYUyDjAZ4yIUn8VWVhzJdxmcaPEtODBalwXsuvO+LhX/2Z39Wjjh2SErmUS5ZWAg8IgxZctZHpvVcOY7wHOqN+u679PGP/dND9z38zvGrx8efuqvs2F6VGedqGmgt7Ilp/pGdO3fdHYf8jQ8ODj0hCLNNeBDDoQZNDQQIO2u4i/DnKKdE1n81BWoKnEQBho68gDS+FJHPO5oF+AyhpW5KKQ0vl2Lh+mRfHBtZnhVTVk6Vo6AYas+z0/iTT8owFZ/yLPEJf97zntd49atf3XjJS15SToKDj3zqpeTSQMPREnfue7C8rp4aagrMRwG8mEZamvTjPxd+dKUhFSYNF28mz+NHYTngdCKhV6be8IY3NOLwkfKs+aGHHioylINUfKushSDKbY1sGZmKPVYSmh1z+2OB+OsX7j3vhrHDU28JWTzSONBoxY7tVTHO8FkYKymWDh7mTl9wxQW7Jh8af+H42OT/PHzk8KWIZpnbqDqgabnMKIdhJsgEuoaaAjUFulOAAqGEUhlx04j6vvA111zT+J3f+Z1yzCYDnMvRSkvDbsYtnxmvz6PateprYe5dlGSCWYePr/howSWxRP6CF7ygHB3rIx2pKOFEfilFM2wyrPxUjqlMq4Y7y6/dmgJVCqSBZidA8g4/PsNzGSdtGtUcrEpXBTLgWGM87vjbHJAqw4BSfvKQ9cxnoCPexLPV19/XnpqccppfmK0JD7L743XnOy64+NzXH//e9I0XXfTdiXisbcn7hBBVEVqmfy0MNFRMk6cdDj45OX7N1GTr1Q89/NATY8TiEJPynnSM0h2f1iTgVcWwzHbU2WoKnNUUoEBcDCCDyG+my09JMdK+JOV9ZLu7GVwDYrKVy4PyJNA7U5OTD3wzZtJxBvrWUFZ9MdPtobTMLCxl++KYL4/58pK8OYtXJwNO2VGccJJPfeRZGL86HKpCIdZQU2CxFMgBIP5JnuXHZ+7FJzC0+NEqjwGiGbNT9G6++ebyzQHfSkge5eJhIA9QZspUCZj9i/oY5mKcww3ha7Tiz/m1PcH7zYnJiTsuu/zCNzRbw+8N+Znat6/R3L9/ee86V+vt9J+Q2M6Yld+jxNTevXu3T0wcf+7YsclfPzZ27AdDgPsQM2bSpe569rxyQtclnP0UYPAYQUaR7pjRHzPtJkNmrZTVr/zKrzRe85rXFOPqXjpL2GSOgkoFx3APDAzGglx7bHxyyqwgjHm8j9rfv2doeGigt7dnqDXd6o2To+OlyaZHUz2MrTKqS9oMsjrg9+Uvf7kMBq688sqCC1wpP2Uz6DXUFDgVBZJH0zBX0+NZVxpVcQytd5ktY3/mM58p35zPj2+Ix4OMsnLlTVA+meEy7NX6gp/TMGfyvB+I8qbjgxif33vpRa898sjYLbHHavq2225blQ1hWVnVXUsDrR7rFa1YJhsMg3x1uzX1qiNHjj9ncmpypNoRBLiGmgI1BeanQBpoyon+ID+UDzeNn5kvWfI1K0bazNfsWXwqJ/kBwzo+PnF7X29vjJSb42HM280eB0XEhrGh3gui2P5Wa3ok0m8JHTYUg4NytoHy1E+pwQkOnjH/27/9W9kZGx9mabzuda8rS96WGfM5dFUBzt/KOmazUiB5motXkk8ZYANNfIb3gNWhgwcPlscz+2Payjj7Op8BLHlInuefGXjO7LVwD6qGPu+r/Bk4nLDkYb8iTcvqb+AxtmXb8Cf37D73+q9+9Wv/IjyunGkratVhrQ00hBnpdryS2f/wwxd+//TkZCx3P/L86dZ0ObmcYogReXP22fSqN7AusKbA2UCBVCBG/WbEwEyWAmNsU3mZLVBUP/IjP1KeSftwhjSMKQVF0YGp6el743D/QzF5PvrI9w5Px5abMNCWzePoxcGhni2jQ+fGsp616T0ho4O5vE1xKk9ZBgQH4iCUj3/8440bbrihnMi0d+/exu/93u+V17AclgJX6WqoKXAqCjDEOZBkqPGZgSB+/vrXv15ekWKMLWHfddddZWd2GlsuGcHf8iakURYnHP9Ko2zgPvO6jzRpcNONrM3eCH7gvAv3/O2W7aOvvee2e+5p7IvHuGuwpA2HKpwOA531lbpik8nFMUC59nsPf+/a4+PjT4jGx0648glC6bxTVp5NI2yOooyCIs3cJWEQrCgJ/hpqCmx2CqSioXz4yY+d2zaPuRxawkiDUHqPhPx8r7en/1Asbh+NGcnxqdbUhHx9PYON2K3aNzw8dFlvX4hss3FhyN4IeaNAs3zL3b6J/o53vKO8vmKQYJBtxuwbxt7NvuSSS4ryo2Tz2d9m76fN2n58sxBYbcFDZsfeSnDKl8tbCniNgU6dj7fT8C5U5nxxbImBLiM9OyBoxQC3GfdsFMNsBs3tj8HlVAwy7/mBp175pv945MF3f+fu79wf4ZlOmjWFYjTXtIaTC5/bPBanlzzjyPGjLz92fPyZQaTtFQUT9Gsm4UrujHMjLkGHAWHpz7jarSmwmSiQy9gpC7OKp7F79+6y0csubLPqq5929VgY0fHYkfpwDJL/4/jxiQcmxseOTLViChLipJytW7b1nbN963m9gz0/EOX0xWrXMIUG7r///jKD8Uk+y4tm0GbJjD8FC6SlkA2sGfWqzJYE9V9NgQ4K4BFX1ZCnIabbrRBVDXRV3yfPdxT5qFtvNoDcS8EftqUV/Oq70D38EeRj0T1Rt00T07vP3fl/L9h7/g3fO3T0H4LXD0dYGuWZ9fIIWEs4Ye3WspbuZffFTtHHT0+Ov/jYsYkXTE5PXhwE6osOCvq0y+EmOiuNc3ZIuopMweeuZETVHb06tKbAxqEAGUh5SLlxz0imbDhV7OlPf3o5tOSKx13xzfP3nP/dmC0/EJ+yPdKOB85TkzMbcIa3bO3bMjq8ZWR08EdjeXEoDPCA40J9HetT8XqWV7McM0oWzYzVYzaiXpdwhhlQrJa4KcUaNi8Fkjfno0AOKDNe+ryE8eOr6pXhXOGngixjVj6myUXUa9LYjrAQgQiIR7KRrmdwYOCecy8490Nbto2+5Y4v3XHXvn37emNAmjPrU1W1avFn0kCru2fHjuELB/uGn3bo0IPXxS6UH52cmtpuBB6C3T5+7HgzRu9NAp7PDDo7Ijts1ShSF1RTYANSgPIxmKVjXJQQueEylmTKTJccWYb2PrMPXFx22WXtOFjo+Lat2+6PfGMDkW5wcMDH5nfEKyoD99xzT/O+OHnhzjvvLOUqSxnclEV1MNTus34kFC6M8uWvoabAfBRI/kke4roS8DeohrmfL1xcFaTDg5WBQCvCyuNUtsbqT8T3Bv8ePWf7ti+cf+GuPx072v5EzJpzhzYEqpvHqsWvmf9MGuhqowZ2jY5ednxq4heOjU38QkQ8Ia6BWDabDqXTE4rFkoN3qEsexM6OoRAyvFpg7a8psNkowECTi6qRRAOKSVhC571Zbrwu4sz89kRc0zNfoSNv5Wt05EvZgL9alvpS8VX90grPumoZRZHNC8vp/+Qnbq7IVCkoPGGB8ovRiLQOGQnWLhvRgp17nWxpFo3He0IGpvr7++7asWvbe0eGBt51553fuDfKbu/bty/eb95/xr70dKKF2dIz49o/345dn6P909NPOjYx8d+Ojo8/L8IuicuSQ1EW4Z/DNxUGZbFA50SWGmoKbB4KkIvckJWzXEbSM+KcQVNsjDLXbLhqcNOoohi5ysu9cpUvvbK50qcsSmOGUi1PHcrg1rB5KXCq/sdH+ATvcKuQPNQZVr3vzDMbp6AyMg0eLQdkVfOEP4J740jqwW+Pbh25eee5299zZOvYPx78wsHxMMw9YZjlPTGy7ch8Om7Xm9QYpvfH6yNb40n0U+L513+dbLV+IsIeG0QcjOGP10PgHH128iz6dBCrrqOmwHqlAINLueUSHoVHRlLhVQ1pNZ32SGcJPMOzDHHyZVmMeUIaa2kZa5vLPO9OYLTlozilmUeBZvLaPcspgMcWgoyv8omwvPBYQqbNe241XyU8jaul7EhSDL/3+Vs9zZ7p3r7eh0bPGb1lZGTwvTu29f39v/7rgcNhmJuxv6JnLQ8fqeB3Su/CVDtl9jVJkA+revfsGd1x9OjEf25NNP5LzKr39fb07mq1W4NBaKeU5dLF3NL3mmBTF1pTYINQgFGkhBhawIi6ZyAZcP6qoquGZV5pUil2lqXMDMt0acDTeMub9WZd0tSwuSmQPLlUKqQxTn7L/NVwYeID0iBX7VrOoq3EShdL2f0Pbd+x/bOxnP3+gd7h/fGmwwOzG8DK5C/KOe3PmiHfDaoN6RZ/JsPghrj9sdt7eOLYsafGA4PnHJ+YeE6EPT6u4SB4IXq4li+sV4T3xPMKfoonAZMko+SsQMdm52ec9PImZHze125NgZoCNQVqCqweBVLf0rXAferm2VrMgluzqzIR1fa6z5z+r6RVgLTiSzmxuuObD8fiNasDW7eOfnLbtsGPxVtUt8bpYw9FWkY9bc1M5bMVrgfnhBVaD9h0x8HwuxjqIPC24f7+K2K0/mNHjx3fNzE99Z8i7ry4mjrBiJ2RjU504MlJHZzGt9Mwq1JHGvVLw98J3cI609T3NQVqCtQUqCmwPAqkQa7mntXVoX7LG1BVxcxupe0qrvxx5VJ22fgVacbjjYXDx8ePf+1JV131/omJsc/17hi887Yv3PbQvjgJ7NChqyxlmy2vmxlztf382cjO8PV4D1edVJ5T7949snPyeP9VY+PHnzUxNXl1zIOviNnyzphJ9zO2lu8su+Uym5m0TgQMscu9tOKq74uWRB1/1Zl4R1R9W1Ng01KA9gSnIMCJ+PCFrJ4ieYleVKLFFFSnOSMUWKRtYVjn7NBJjytn9TU+KK9Ehc4uPCE8LsdvqqPUE/q5TNDi3jvNR0a3jn51dMvoJ845Z+SmXbuG7/zc575sttwTh+o13/e+MmveEPy1SCJG09YX5Lp1vEe9YySM7PfFNPspsZ3lyYePHb36yNEjlwe6u+LqZYC99xlHyPH7Ko/t9Qx007J4zrqF0TOpa3KmrdnCpK2hpkBNgZMoUFVyVf9JiVZwsxZlrgCdOusiKLAsm2JClWDyxPhyA/BAXpRwLkmXjQ1hqtt9ffHRtUbj4Z07t39zdHTb34+ODn9yeHj0ttDh37vooi9MHDpUXpWSL/kp3Qha37AsYq6zJmlDb3wDd0inDk1M9B9r9Z0/2Rq7fHqi9YPj01M/Nt2eelw8ktgRDywGZzeZlSYYiTHEgH+WMebuiyf+GGgGvIaaAjUFTlAg5KIounTFVP0nUs76Fow8KXWnAu28PynxWXizFL28HmjTiW/nfemimYnyLLoU7iyEtxhjbkDRt6LCn8+dvaMvSObx0MXHhoYGHxgZHvlanPj1ldb05J3nX/TYzzcaD913661fcxxnsezhUu7pD+/GgzkibTzUF8Q4doDvGYpZry31Q/F8+tyJ48cv7unpv2C61b40HmnsnZyeOj8+2nFudPy20BvDkXYoGKIsm4SrY8Mpe/PRKN/DPqnSyOd+XgGR/6QMlZuF4irJluxV7uL14JKLP60Z5mtHNXyt6NjZ0DRF1fDF1L2YNMpcbLpq/Sv1d6NjNSzLPynMIlOJmP2PyEwXklBuqkxfTXtyuhPZ5sJnPVFIRM4fr57OPNV7kVUcxD06Q6Z6dEy1rEf7q2amW97Omh9dgpBMlVjMpZopfu52UZ4KPU7G6OS7RZU1lygxnAuYw3nW86gEBfUu+ONtwdBMXiphs39RA0NMBhhTG8GmQm9PxKdPj4fuPtaamn5kZHT0nvgS4oHhod67BvoG7+7v7f3WZE/PAxF/JN7vb673Z8knqLg036OIvLTs6zr1zNQ4ZOGqmGH/x7nnDsS3teNEsu1Ga8145uxVrZHWWGt0qmeKgR4O5jFNZuDm8jbiqOFGnPcfbqyHL6a9uRQ+O+NWSwU6bjMm++FR8hoJUsoyTebp5nbLX03XLT7Lr6ar+uerN/N1xs8XXi0z/Zk274u7IJk7IkOoZ8qYh7AnFbzMm/ZkedY1mzv71233Po4INCl4dUGrg16RYjZRJW2kibsofrYGdcUrCY3m3H1fHEgSoSAM2myZc7EzERLM0gudAqQrg82SF+1mV4Zm6Dgdz3JKgTPlxeOh2TylPHmiUUads/2WGJToU/7N9dXJKdvTzai3o19DldPos+06OcNa3ZU6OwoPszHbVo0OO1K570i6uW+DFfpmOPLk/izhsQsrjG9zuhmiNBk62Hcp2iZP7b7gQfwU+3uDPWL61Ntrqhwv1PePx77fI5HwcOjqsW3bth2PL15NX3nlbdOzz5B9pa3o6fe97336KK+zqh9OqwCcQcppZwpamR3P4iI8aZDxiWbnfYZzM0817FT+LG+xeTP9qco9VfxK6lso70rwU263/AvVd6p2boT4bm1eKt6LKWOOjg5eiP0XzUceeaQnjvPsdWxuvHLS0zqn1ezp62kPHhls0ZbxDHCu3FhVsj/DpptmnO5XyuLvRJSCrYZ13mfcw3NlH2o04geyzpgBteOQlPbBgwdDSV/U3Lu3Yb9ITxWHkiH+lP8oPOJrXbszwTLcLI+rzVkE/NKfbrV9VX/Gn62u7yueAHcoPhsaDlpU+/O+6M++6E/9Go8eyxJz8mDc94Sh7UXviG/FK7TTEVcd9ZaqzIp55J890cutPnlUv4g4W2GOIc/WBp6Gdp1NNOxk/pW0TVkryX8auu6MVNFJ49OFhL6YWxnaN1vr/hm3G07NfY1MNZu4q7M/QveVmP2N/d3KKXFd/jJtutUkyTfpVuPWxL+v8Gr8d4FoVzW0G77V+M3qT7qkm3So3uvP7NN0xW/o58TZ0LVw/z/rYeL69cQmaQAAAABJRU5ErkJggg==;" vertex="1" parent="1">
          <mxGeometry x="1171.1" y="140" width="117.79" height="35" as="geometry" />
        </mxCell>
      </root>
    </mxGraphModel>
  </diagram>
</mxfile>
